G04*
G04 #@! TF.GenerationSoftware,Altium Limited,Altium Designer,22.3.1 (43)*
G04*
G04 Layer_Color=32768*
%FSLAX25Y25*%
%MOIN*%
G70*
G04*
G04 #@! TF.SameCoordinates,2454C8F7-4EAD-40B7-BFB8-64AA641CEC59*
G04*
G04*
G04 #@! TF.FilePolarity,Positive*
G04*
G01*
G75*
%ADD63C,0.00197*%
%ADD64C,0.00394*%
D63*
X110378Y117500D02*
X110056Y118386D01*
X109239Y118857D01*
X108311Y118693D01*
X107705Y117971D01*
Y117029D01*
X108311Y116307D01*
X109239Y116143D01*
X110056Y116614D01*
X110378Y117500D01*
X105378Y25500D02*
X105056Y26386D01*
X104239Y26857D01*
X103311Y26693D01*
X102705Y25971D01*
Y25029D01*
X103311Y24307D01*
X104239Y24143D01*
X105056Y24614D01*
X105378Y25500D01*
X76791Y50000D02*
X76469Y50886D01*
X75653Y51357D01*
X74724Y51193D01*
X74119Y50471D01*
Y49529D01*
X74724Y48807D01*
X75653Y48643D01*
X76469Y49114D01*
X76791Y50000D01*
X47378Y39000D02*
X47056Y39886D01*
X46239Y40357D01*
X45311Y40193D01*
X44705Y39471D01*
Y38529D01*
X45311Y37807D01*
X46239Y37643D01*
X47056Y38114D01*
X47378Y39000D01*
X109378Y146000D02*
X109056Y146886D01*
X108239Y147357D01*
X107311Y147193D01*
X106705Y146471D01*
Y145529D01*
X107311Y144807D01*
X108239Y144643D01*
X109056Y145114D01*
X109378Y146000D01*
X137047Y139102D02*
X142953D01*
X137047Y126898D02*
X142953D01*
Y139102D01*
X137047Y126898D02*
Y139102D01*
X140000Y131819D02*
Y134181D01*
X138819Y133000D02*
X141181D01*
X132319D02*
X134681D01*
X133500Y131819D02*
Y134181D01*
X136453Y127094D02*
Y138906D01*
X130547Y127094D02*
Y138906D01*
X136453D01*
X130547Y127094D02*
X136453D01*
X162094Y115547D02*
Y121453D01*
X173906Y115547D02*
Y121453D01*
X162094D02*
X173906D01*
X162094Y115547D02*
X173906D01*
X166819Y118500D02*
X169181D01*
X168000Y117319D02*
Y119681D01*
X140594Y140047D02*
Y145953D01*
X152406Y140047D02*
Y145953D01*
X140594D02*
X152406D01*
X140594Y140047D02*
X152406D01*
X145319Y143000D02*
X147681D01*
X146500Y141819D02*
Y144181D01*
X153595Y140047D02*
Y145953D01*
X165405Y140047D02*
Y145953D01*
X153595D02*
X165405D01*
X153595Y140047D02*
X165405D01*
X158319Y143000D02*
X160681D01*
X159500Y141819D02*
Y144181D01*
X129047Y70398D02*
X134953D01*
X129047Y82602D02*
X134953D01*
X129047Y70398D02*
Y82602D01*
X134953Y70398D02*
Y82602D01*
X132000Y75319D02*
Y77681D01*
X130819Y76500D02*
X133181D01*
X66602Y106547D02*
Y112453D01*
X54398Y106547D02*
Y112453D01*
Y106547D02*
X66602D01*
X54398Y112453D02*
X66602D01*
X59319Y109500D02*
X61681D01*
X60500Y108319D02*
Y110681D01*
X79602Y68547D02*
Y74453D01*
X67398Y68547D02*
Y74453D01*
Y68547D02*
X79602D01*
X67398Y74453D02*
X79602D01*
X72319Y71500D02*
X74681D01*
X73500Y70319D02*
Y72681D01*
X79602Y90047D02*
Y95953D01*
X67398Y90047D02*
Y95953D01*
Y90047D02*
X79602D01*
X67398Y95953D02*
X79602D01*
X72319Y93000D02*
X74681D01*
X73500Y91819D02*
Y94181D01*
Y98819D02*
Y101181D01*
X72319Y100000D02*
X74681D01*
X67594Y97047D02*
X79405D01*
X67594Y102953D02*
X79405D01*
Y97047D02*
Y102953D01*
X67594Y97047D02*
Y102953D01*
X73500Y85319D02*
Y87681D01*
X72319Y86500D02*
X74681D01*
X67594Y83547D02*
X79405D01*
X67594Y89453D02*
X79405D01*
Y83547D02*
Y89453D01*
X67594Y83547D02*
Y89453D01*
X69319Y112000D02*
X71681D01*
X70500Y110819D02*
Y113181D01*
X73453Y105898D02*
Y118102D01*
X67547Y105898D02*
Y118102D01*
X73453D01*
X67547Y105898D02*
X73453D01*
X130819Y89500D02*
X133181D01*
X132000Y88319D02*
Y90681D01*
X134953Y83595D02*
Y95406D01*
X129047Y83595D02*
Y95406D01*
X134953D01*
X129047Y83595D02*
X134953D01*
X159500Y147819D02*
Y150181D01*
X158319Y149000D02*
X160681D01*
X153398Y151953D02*
X165602D01*
X153398Y146047D02*
X165602D01*
X153398D02*
Y151953D01*
X165602Y146047D02*
Y151953D01*
X60500Y116319D02*
Y118681D01*
X59319Y117500D02*
X61681D01*
X54594Y114547D02*
X66405D01*
X54594Y120453D02*
X66405D01*
Y114547D02*
Y120453D01*
X54594Y114547D02*
Y120453D01*
X107032Y117500D02*
X110968D01*
X109000Y115532D02*
Y119468D01*
X103094Y114547D02*
Y120453D01*
X114906D01*
Y114547D02*
Y120453D01*
X103094Y114547D02*
X114906D01*
X52602Y116547D02*
Y122453D01*
X40398Y116547D02*
Y122453D01*
Y116547D02*
X52602D01*
X40398Y122453D02*
X52602D01*
X45319Y119500D02*
X47681D01*
X46500Y118319D02*
Y120681D01*
X52406Y106547D02*
Y112453D01*
X40595Y106547D02*
Y112453D01*
Y106547D02*
X52406D01*
X40595Y112453D02*
X52406D01*
X45319Y109500D02*
X47681D01*
X46500Y108319D02*
Y110681D01*
X178602Y140047D02*
Y145953D01*
X166398Y140047D02*
Y145953D01*
Y140047D02*
X178602D01*
X166398Y145953D02*
X178602D01*
X171319Y143000D02*
X173681D01*
X172500Y141819D02*
Y144181D01*
X67594Y75047D02*
Y80953D01*
X79405Y75047D02*
Y80953D01*
X67594D02*
X79405D01*
X67594Y75047D02*
X79405D01*
X72319Y78000D02*
X74681D01*
X73500Y76819D02*
Y79181D01*
X160602Y115547D02*
Y121453D01*
X148398Y115547D02*
Y121453D01*
Y115547D02*
X160602D01*
X148398Y121453D02*
X160602D01*
X153319Y118500D02*
X155681D01*
X154500Y117319D02*
Y119681D01*
X108260Y32693D02*
X115740D01*
Y19307D02*
Y32693D01*
X108260Y19307D02*
Y32693D01*
X112000Y24819D02*
Y27181D01*
X110819Y26000D02*
X113181D01*
X108260Y19307D02*
X115740D01*
X104000Y23531D02*
Y27468D01*
X102032Y25500D02*
X105968D01*
X101047Y31405D02*
X106953D01*
Y19594D02*
Y31405D01*
X101047Y19594D02*
X106953D01*
X101047D02*
Y31405D01*
X65374Y45669D02*
Y54331D01*
X85453D01*
Y45669D02*
Y54331D01*
X65374Y45669D02*
X85453D01*
X73445Y50000D02*
X77382D01*
X75413Y48031D02*
Y51968D01*
X69898Y39547D02*
Y45453D01*
X82102Y39547D02*
Y45453D01*
X69898D02*
X82102D01*
X69898Y39547D02*
X82102D01*
X74819Y42500D02*
X77181D01*
X76000Y41319D02*
Y43681D01*
X44032Y39000D02*
X47969D01*
X46000Y37031D02*
Y40968D01*
X51906Y36047D02*
Y41953D01*
X40095Y36047D02*
X51906D01*
X40095D02*
Y41953D01*
X51906D01*
X57890Y43201D02*
Y55799D01*
X44110Y43201D02*
Y55799D01*
Y43201D02*
X57890D01*
X44110Y55799D02*
X57890D01*
X44547Y57398D02*
X50453D01*
X44547Y69602D02*
X50453D01*
X44547Y57398D02*
Y69602D01*
X50453Y57398D02*
Y69602D01*
X47500Y62319D02*
Y64681D01*
X46319Y63500D02*
X48681D01*
X51547Y57595D02*
X57453D01*
X51547Y69406D02*
X57453D01*
X51547Y57595D02*
Y69406D01*
X57453Y57595D02*
Y69406D01*
X54500Y62319D02*
Y64681D01*
X53319Y63500D02*
X55681D01*
X160102Y68047D02*
Y73953D01*
X147898Y68047D02*
Y73953D01*
Y68047D02*
X160102D01*
X147898Y73953D02*
X160102D01*
X152819Y71000D02*
X155181D01*
X154000Y69819D02*
Y72181D01*
X174047Y76398D02*
X179953D01*
X174047Y88602D02*
X179953D01*
X174047Y76398D02*
Y88602D01*
X179953Y76398D02*
Y88602D01*
X177000Y81319D02*
Y83681D01*
X175819Y82500D02*
X178181D01*
X137047Y83595D02*
X142953D01*
X137047Y95406D02*
X142953D01*
X137047Y83595D02*
Y95406D01*
X142953Y83595D02*
Y95406D01*
X140000Y88319D02*
Y90681D01*
X138819Y89500D02*
X141181D01*
X116047Y127102D02*
X121953D01*
X116047Y114898D02*
X121953D01*
Y127102D01*
X116047Y114898D02*
Y127102D01*
X119000Y119819D02*
Y122181D01*
X117819Y121000D02*
X120181D01*
X116047Y129398D02*
X121953D01*
X116047Y141602D02*
X121953D01*
X116047Y129398D02*
Y141602D01*
X121953Y129398D02*
Y141602D01*
X119000Y134319D02*
Y136681D01*
X117819Y135500D02*
X120181D01*
X106032Y146000D02*
X109968D01*
X108000Y144032D02*
Y147968D01*
X102094Y143047D02*
Y148953D01*
X113906D01*
Y143047D02*
Y148953D01*
X102094Y143047D02*
X113906D01*
X88114Y121216D02*
X114886D01*
X88114Y141689D02*
X114886D01*
Y121216D02*
Y141689D01*
X88114Y121216D02*
Y141689D01*
X81047Y136906D02*
X86953D01*
X81047Y125094D02*
X86953D01*
Y136906D01*
X81047Y125094D02*
Y136906D01*
X84000Y129819D02*
Y132181D01*
X82819Y131000D02*
X85181D01*
X68547Y127594D02*
X74453D01*
X68547Y139406D02*
X74453D01*
X68547Y127594D02*
Y139406D01*
X74453Y127594D02*
Y139406D01*
X71500Y132319D02*
Y134681D01*
X70319Y133500D02*
X72681D01*
X71602Y140047D02*
Y145953D01*
X59398Y140047D02*
Y145953D01*
Y140047D02*
X71602D01*
X59398Y145953D02*
X71602D01*
X64319Y143000D02*
X66681D01*
X65500Y141819D02*
Y144181D01*
X29594Y140047D02*
Y145953D01*
X41405Y140047D02*
Y145953D01*
X29594D02*
X41405D01*
X29594Y140047D02*
X41405D01*
X34319Y143000D02*
X36681D01*
X35500Y141819D02*
Y144181D01*
X30047Y127398D02*
X35953D01*
X30047Y139602D02*
X35953D01*
X30047Y127398D02*
Y139602D01*
X35953Y127398D02*
Y139602D01*
X33000Y132319D02*
Y134681D01*
X31819Y133500D02*
X34181D01*
X45594Y140047D02*
Y145953D01*
X57406Y140047D02*
Y145953D01*
X45594D02*
X57406D01*
X45594Y140047D02*
X57406D01*
X50319Y143000D02*
X52681D01*
X51500Y141819D02*
Y144181D01*
X39854Y90413D02*
X65051D01*
Y104587D01*
X39854D02*
X65051D01*
X39854Y90413D02*
Y104587D01*
X52453Y95531D02*
Y99468D01*
X50484Y97500D02*
X54421D01*
X33047Y91398D02*
X38953D01*
X33047Y103602D02*
X38953D01*
X33047Y91398D02*
Y103602D01*
X38953Y91398D02*
Y103602D01*
X36000Y96319D02*
Y98681D01*
X34819Y97500D02*
X37181D01*
X45126Y149150D02*
X60874D01*
X45126Y167850D02*
X60874D01*
X45126Y149150D02*
Y167850D01*
X60874Y149150D02*
Y167850D01*
X64500Y58819D02*
Y61181D01*
X63319Y60000D02*
X65681D01*
X58595Y62953D02*
X70406D01*
X58595Y57047D02*
X70406D01*
X58595D02*
Y62953D01*
X70406Y57047D02*
Y62953D01*
D64*
X74221Y19899D02*
Y34101D01*
X51780Y19899D02*
Y34101D01*
X69510Y15189D02*
X74221Y19899D01*
X56490Y15189D02*
X69510D01*
X51780Y19899D02*
X56490Y15189D01*
X51780Y34101D02*
X56490Y38811D01*
X69510D01*
X74221Y34101D01*
X49031Y49500D02*
X52969D01*
X51000Y47532D02*
Y51468D01*
X101500Y129484D02*
Y133421D01*
X99532Y131453D02*
X103469D01*
X53000Y156532D02*
Y160468D01*
X51032Y158500D02*
X54969D01*
X77280Y19821D02*
Y34022D01*
X99721Y19821D02*
Y34022D01*
X77280D02*
X81990Y38732D01*
X95010D01*
X99721Y34022D01*
X95010Y15110D02*
X99721Y19821D01*
X81990Y15110D02*
X95010D01*
X77280Y19821D02*
X81990Y15110D01*
M02*
