G04*
G04 #@! TF.GenerationSoftware,Altium Limited,Altium Designer,22.3.1 (43)*
G04*
G04 Layer_Color=128*
%FSLAX25Y25*%
%MOIN*%
G70*
G04*
G04 #@! TF.SameCoordinates,2454C8F7-4EAD-40B7-BFB8-64AA641CEC59*
G04*
G04*
G04 #@! TF.FilePolarity,Positive*
G04*
G01*
G75*
%ADD66C,0.00200*%
D66*
X12795Y19685D02*
X26575D01*
X19685Y12795D02*
Y26575D01*
X6532Y88500D02*
X10469D01*
X8500Y86532D02*
Y90469D01*
X16532Y78500D02*
X20469D01*
X18500Y76531D02*
Y80468D01*
X16532Y88500D02*
X20469D01*
X18500Y86532D02*
Y90469D01*
X16532Y118500D02*
X20469D01*
X18500Y116532D02*
Y120468D01*
X6532Y108500D02*
X10469D01*
X8500Y106532D02*
Y110468D01*
X6532Y98500D02*
X10469D01*
X8500Y96531D02*
Y100469D01*
X6532Y78500D02*
X10469D01*
X8500Y76531D02*
Y80468D01*
X16532Y108500D02*
X20469D01*
X18500Y106532D02*
Y110468D01*
X16532Y98500D02*
X20469D01*
X18500Y96531D02*
Y100469D01*
X6532Y118500D02*
X10469D01*
X8500Y116532D02*
Y120468D01*
X121335Y180000D02*
X125665D01*
X123500Y177835D02*
Y182165D01*
X81335Y180000D02*
X85665D01*
X83500Y177835D02*
Y182165D01*
X170276Y177165D02*
X184055D01*
X177165Y170276D02*
Y184055D01*
X170276Y19685D02*
X184055D01*
X177165Y12795D02*
Y26575D01*
X91335Y180000D02*
X95665D01*
X93500Y177835D02*
Y182165D01*
X12795Y177165D02*
X26575D01*
X19685Y170276D02*
Y184055D01*
X111335Y180000D02*
X115665D01*
X113500Y177835D02*
Y182165D01*
X71335Y180000D02*
X75665D01*
X73500Y177835D02*
Y182165D01*
X101335Y180000D02*
X105665D01*
X103500Y177835D02*
Y182165D01*
X192323Y62992D02*
X193504D01*
X192913Y62402D02*
Y63583D01*
X188386Y55118D02*
X189567D01*
X188977Y54528D02*
Y55709D01*
X192323Y47244D02*
X193504D01*
X192913Y46654D02*
Y47835D01*
X188386Y39370D02*
X189567D01*
X188977Y38780D02*
Y39961D01*
X192323Y31496D02*
X193504D01*
X192913Y30906D02*
Y32087D01*
X184449Y62992D02*
X185630D01*
X185039Y62402D02*
Y63583D01*
X180512Y55118D02*
X181693D01*
X181103Y54528D02*
Y55709D01*
X184449Y47244D02*
X185630D01*
X185039Y46654D02*
Y47835D01*
X180512Y39370D02*
X181693D01*
X181103Y38780D02*
Y39961D01*
X176575Y62992D02*
X177756D01*
X177165Y62402D02*
Y63583D01*
X172638Y55118D02*
X173819D01*
X173228Y54528D02*
Y55709D01*
X176575Y47244D02*
X177756D01*
X177165Y46654D02*
Y47835D01*
X172638Y39370D02*
X173819D01*
X173228Y38780D02*
Y39961D01*
X168701Y62992D02*
X169882D01*
X169291Y62402D02*
Y63583D01*
X164764Y55118D02*
X165945D01*
X165354Y54528D02*
Y55709D01*
X168701Y47244D02*
X169882D01*
X169291Y46654D02*
Y47835D01*
X164764Y39370D02*
X165945D01*
X165354Y38780D02*
Y39961D01*
X164764Y7874D02*
X165945D01*
X165354Y7283D02*
Y8465D01*
X160827Y62992D02*
X162008D01*
X161417Y62402D02*
Y63583D01*
X156890Y55118D02*
X158071D01*
X157480Y54528D02*
Y55709D01*
X160827Y47244D02*
X162008D01*
X161417Y46654D02*
Y47835D01*
X156890Y39370D02*
X158071D01*
X157480Y38780D02*
Y39961D01*
X160827Y31496D02*
X162008D01*
X161417Y30906D02*
Y32087D01*
X156890Y23622D02*
X158071D01*
X157480Y23031D02*
Y24213D01*
X160827Y15748D02*
X162008D01*
X161417Y15157D02*
Y16339D01*
X156890Y7874D02*
X158071D01*
X157480Y7283D02*
Y8465D01*
X152953Y62992D02*
X154134D01*
X153543Y62402D02*
Y63583D01*
X152953Y47244D02*
X154134D01*
X153543Y46654D02*
Y47835D01*
X152953Y31496D02*
X154134D01*
X153543Y30906D02*
Y32087D01*
X152953Y15748D02*
X154134D01*
X153543Y15157D02*
Y16339D01*
X149016Y7874D02*
X150197D01*
X149606Y7283D02*
Y8465D01*
X137205Y62992D02*
X138386D01*
X137795Y62402D02*
Y63583D01*
X133268Y55118D02*
X134449D01*
X133858Y54528D02*
Y55709D01*
X137205Y47244D02*
X138386D01*
X137795Y46654D02*
Y47835D01*
X133268Y39370D02*
X134449D01*
X133858Y38780D02*
Y39961D01*
X137205Y31496D02*
X138386D01*
X137795Y30906D02*
Y32087D01*
X133268Y23622D02*
X134449D01*
X133858Y23031D02*
Y24213D01*
X129331Y62992D02*
X130512D01*
X129921Y62402D02*
Y63583D01*
X125394Y55118D02*
X126575D01*
X125984Y54528D02*
Y55709D01*
X129331Y47244D02*
X130512D01*
X129921Y46654D02*
Y47835D01*
X125394Y39370D02*
X126575D01*
X125984Y38780D02*
Y39961D01*
X129331Y31496D02*
X130512D01*
X129921Y30906D02*
Y32087D01*
X121457Y62992D02*
X122638D01*
X122047Y62402D02*
Y63583D01*
X117520Y55118D02*
X118701D01*
X118110Y54528D02*
Y55709D01*
X117520Y39370D02*
X118701D01*
X118110Y38780D02*
Y39961D01*
X113583Y62992D02*
X114764D01*
X114173Y62402D02*
Y63583D01*
X109646Y39370D02*
X110827D01*
X110236Y38780D02*
Y39961D01*
X101772Y55118D02*
X102953D01*
X102362Y54528D02*
Y55709D01*
X105709Y47244D02*
X106890D01*
X106299Y46654D02*
Y47835D01*
X101772Y39370D02*
X102953D01*
X102362Y38780D02*
Y39961D01*
X93898Y55118D02*
X95079D01*
X94488Y54528D02*
Y55709D01*
X97835Y47244D02*
X99016D01*
X98425Y46654D02*
Y47835D01*
X89961Y62992D02*
X91142D01*
X90551Y62402D02*
Y63583D01*
X86024Y55118D02*
X87205D01*
X86614Y54528D02*
Y55709D01*
X89961Y47244D02*
X91142D01*
X90551Y46654D02*
Y47835D01*
X82087Y62992D02*
X83268D01*
X82677Y62402D02*
Y63583D01*
X78150Y55118D02*
X79331D01*
X78740Y54528D02*
Y55709D01*
X70276Y7874D02*
X71457D01*
X70866Y7283D02*
Y8465D01*
X62402Y55118D02*
X63583D01*
X62992Y54528D02*
Y55709D01*
X62402Y7874D02*
X63583D01*
X62992Y7283D02*
Y8465D01*
X54528Y7874D02*
X55709D01*
X55118Y7283D02*
Y8465D01*
X46654Y7874D02*
X47835D01*
X47244Y7283D02*
Y8465D01*
X38780Y7874D02*
X39961D01*
X39370Y7283D02*
Y8465D01*
X34843Y62992D02*
X36024D01*
X35433Y62402D02*
Y63583D01*
X34843Y31496D02*
X36024D01*
X35433Y30906D02*
Y32087D01*
X34843Y15748D02*
X36024D01*
X35433Y15157D02*
Y16339D01*
X30906Y7874D02*
X32087D01*
X31496Y7283D02*
Y8465D01*
X81410Y97500D02*
X82591D01*
X82000Y96909D02*
Y98090D01*
X64410Y89000D02*
X65591D01*
X65000Y88410D02*
Y89591D01*
X83410Y140000D02*
X84591D01*
X84000Y139409D02*
Y140591D01*
X81410Y90000D02*
X82591D01*
X82000Y89410D02*
Y90591D01*
X75910Y113500D02*
X77091D01*
X76500Y112909D02*
Y114091D01*
X53909Y102000D02*
X55090D01*
X54500Y101409D02*
Y102591D01*
X83410Y113500D02*
X84591D01*
X84000Y112909D02*
Y114091D01*
X105280Y112366D02*
X106461D01*
X105871Y111775D02*
Y112956D01*
X81410Y71500D02*
X82591D01*
X82000Y70910D02*
Y72091D01*
X137409Y73500D02*
X138591D01*
X138000Y72909D02*
Y74090D01*
X118409Y128292D02*
X119591D01*
X119000Y127702D02*
Y128883D01*
X168409Y138000D02*
X169591D01*
X169000Y137409D02*
Y138591D01*
X180409Y142500D02*
X181591D01*
X181000Y141909D02*
Y143091D01*
X103409Y33500D02*
X104591D01*
X104000Y32909D02*
Y34091D01*
X35409Y120000D02*
X36591D01*
X36000Y119409D02*
Y120591D01*
X42909Y124000D02*
X44091D01*
X43500Y123409D02*
Y124591D01*
X101909Y141000D02*
X103091D01*
X102500Y140409D02*
Y141591D01*
X73409Y143000D02*
X74590D01*
X74000Y142409D02*
Y143591D01*
X30409Y103000D02*
X31591D01*
X31000Y102409D02*
Y103591D01*
X176409Y91000D02*
X177591D01*
X177000Y90409D02*
Y91590D01*
X181909Y79500D02*
X183091D01*
X182500Y78909D02*
Y80090D01*
X55910Y88000D02*
X57091D01*
X56500Y87410D02*
Y88591D01*
X29909Y98000D02*
X31091D01*
X30500Y97409D02*
Y98590D01*
X144909Y71000D02*
X146091D01*
X145500Y70410D02*
Y71591D01*
X161909Y71000D02*
X163091D01*
X162500Y70410D02*
Y71591D01*
X111409Y35000D02*
X112591D01*
X112000Y34409D02*
Y35591D01*
X71909Y60000D02*
X73090D01*
X72500Y59409D02*
Y60590D01*
X109909Y17500D02*
X111091D01*
X110500Y16909D02*
Y18090D01*
X105909Y17500D02*
X107091D01*
X106500Y16909D02*
Y18090D01*
X101909Y17500D02*
X103091D01*
X102500Y16909D02*
Y18090D01*
X97909Y13000D02*
X99090D01*
X98500Y12409D02*
Y13590D01*
X89909Y13000D02*
X91091D01*
X90500Y12409D02*
Y13590D01*
X105909Y13000D02*
X107091D01*
X106500Y12409D02*
Y13590D01*
X93910Y8500D02*
X95091D01*
X94500Y7909D02*
Y9091D01*
X101909Y8500D02*
X103091D01*
X102500Y7909D02*
Y9091D01*
X109909Y13000D02*
X111091D01*
X110500Y12409D02*
Y13590D01*
X81910Y13000D02*
X83091D01*
X82500Y12409D02*
Y13590D01*
X93910Y13000D02*
X95091D01*
X94500Y12409D02*
Y13590D01*
X81910Y8500D02*
X83091D01*
X82500Y7909D02*
Y9091D01*
X105909Y8500D02*
X107091D01*
X106500Y7909D02*
Y9091D01*
X85909Y8500D02*
X87090D01*
X86500Y7909D02*
Y9091D01*
X89909Y8500D02*
X91091D01*
X90500Y7909D02*
Y9091D01*
X109909Y8500D02*
X111091D01*
X110500Y7909D02*
Y9091D01*
X101909Y13000D02*
X103091D01*
X102500Y12409D02*
Y13590D01*
X97909Y8500D02*
X99090D01*
X98500Y7909D02*
Y9091D01*
X85909Y13000D02*
X87090D01*
X86500Y12409D02*
Y13590D01*
X48409Y34000D02*
X49591D01*
X49000Y33409D02*
Y34591D01*
X118409Y113000D02*
X119591D01*
X119000Y112409D02*
Y113591D01*
X111409Y112500D02*
X112591D01*
X112000Y111909D02*
Y113091D01*
X164409Y113500D02*
X165591D01*
X165000Y112909D02*
Y114091D01*
X156909Y124000D02*
X158091D01*
X157500Y123409D02*
Y124591D01*
X145409Y118500D02*
X146591D01*
X146000Y117909D02*
Y119091D01*
X118409Y143500D02*
X119591D01*
X119000Y142909D02*
Y144091D01*
X110409Y151000D02*
X111591D01*
X111000Y150409D02*
Y151591D01*
X61910Y148500D02*
X63090D01*
X62500Y147909D02*
Y149091D01*
X51410Y125000D02*
X52591D01*
X52000Y124409D02*
Y125591D01*
M02*
