G04*
G04 #@! TF.GenerationSoftware,Altium Limited,Altium Designer,22.3.1 (43)*
G04*
G04 Layer_Color=32896*
%FSLAX25Y25*%
%MOIN*%
G70*
G04*
G04 #@! TF.SameCoordinates,2454C8F7-4EAD-40B7-BFB8-64AA641CEC59*
G04*
G04*
G04 #@! TF.FilePolarity,Positive*
G04*
G01*
G75*
%ADD61C,0.03543*%
D61*
X52000Y125000D02*
D03*
X62500Y148500D02*
D03*
X111000Y151000D02*
D03*
X119000Y143500D02*
D03*
X146000Y118500D02*
D03*
X157500Y124000D02*
D03*
X165000Y113500D02*
D03*
X112000Y112500D02*
D03*
X119000Y113000D02*
D03*
X49000Y34000D02*
D03*
X86500Y13000D02*
D03*
X98500Y8500D02*
D03*
X102500Y13000D02*
D03*
X110500Y8500D02*
D03*
X90500D02*
D03*
X86500D02*
D03*
X106500D02*
D03*
X82500D02*
D03*
X94500Y13000D02*
D03*
X82500D02*
D03*
X110500D02*
D03*
X102500Y8500D02*
D03*
X94500D02*
D03*
X106500Y13000D02*
D03*
X90500D02*
D03*
X98500D02*
D03*
X102500Y17500D02*
D03*
X106500D02*
D03*
X110500D02*
D03*
X72500Y60000D02*
D03*
X112000Y35000D02*
D03*
X162500Y71000D02*
D03*
X145500D02*
D03*
X30500Y98000D02*
D03*
X56500Y88000D02*
D03*
X182500Y79500D02*
D03*
X177000Y91000D02*
D03*
X31000Y103000D02*
D03*
X74000Y143000D02*
D03*
X102500Y141000D02*
D03*
X43500Y124000D02*
D03*
X36000Y120000D02*
D03*
X104000Y33500D02*
D03*
X181000Y142500D02*
D03*
X169000Y138000D02*
D03*
X119000Y128292D02*
D03*
X138000Y73500D02*
D03*
X82000Y71500D02*
D03*
X105871Y112366D02*
D03*
X84000Y113500D02*
D03*
X54500Y102000D02*
D03*
X76500Y113500D02*
D03*
X82000Y90000D02*
D03*
X84000Y140000D02*
D03*
X65000Y89000D02*
D03*
X82000Y97500D02*
D03*
X31496Y7874D02*
D03*
X35433Y15748D02*
D03*
Y31496D02*
D03*
Y62992D02*
D03*
X39370Y7874D02*
D03*
X47244D02*
D03*
X55118D02*
D03*
X62992D02*
D03*
Y55118D02*
D03*
X70866Y7874D02*
D03*
X78740Y55118D02*
D03*
X82677Y62992D02*
D03*
X90551Y47244D02*
D03*
X86614Y55118D02*
D03*
X90551Y62992D02*
D03*
X98425Y47244D02*
D03*
X94488Y55118D02*
D03*
X102362Y39370D02*
D03*
X106299Y47244D02*
D03*
X102362Y55118D02*
D03*
X110236Y39370D02*
D03*
X114173Y62992D02*
D03*
X118110Y39370D02*
D03*
Y55118D02*
D03*
X122047Y62992D02*
D03*
X129921Y31496D02*
D03*
X125984Y39370D02*
D03*
X129921Y47244D02*
D03*
X125984Y55118D02*
D03*
X129921Y62992D02*
D03*
X133858Y23622D02*
D03*
X137795Y31496D02*
D03*
X133858Y39370D02*
D03*
X137795Y47244D02*
D03*
X133858Y55118D02*
D03*
X137795Y62992D02*
D03*
X149606Y7874D02*
D03*
X153543Y15748D02*
D03*
Y31496D02*
D03*
Y47244D02*
D03*
Y62992D02*
D03*
X157480Y7874D02*
D03*
X161417Y15748D02*
D03*
X157480Y23622D02*
D03*
X161417Y31496D02*
D03*
X157480Y39370D02*
D03*
X161417Y47244D02*
D03*
X157480Y55118D02*
D03*
X161417Y62992D02*
D03*
X165354Y7874D02*
D03*
Y39370D02*
D03*
X169291Y47244D02*
D03*
X165354Y55118D02*
D03*
X169291Y62992D02*
D03*
X173228Y39370D02*
D03*
X177165Y47244D02*
D03*
X173228Y55118D02*
D03*
X177165Y62992D02*
D03*
X181103Y39370D02*
D03*
X185039Y47244D02*
D03*
X181103Y55118D02*
D03*
X185039Y62992D02*
D03*
X192913Y31496D02*
D03*
X188977Y39370D02*
D03*
X192913Y47244D02*
D03*
X188977Y55118D02*
D03*
X192913Y62992D02*
D03*
M02*
