G04*
G04 #@! TF.GenerationSoftware,Altium Limited,Altium Designer,22.3.1 (43)*
G04*
G04 Layer_Physical_Order=2*
G04 Layer_Color=16711680*
%FSLAX25Y25*%
%MOIN*%
G70*
G04*
G04 #@! TF.SameCoordinates,2454C8F7-4EAD-40B7-BFB8-64AA641CEC59*
G04*
G04*
G04 #@! TF.FilePolarity,Positive*
G04*
G01*
G75*
%ADD58C,0.25591*%
%ADD59C,0.06693*%
%ADD60C,0.07087*%
%ADD61C,0.03543*%
%ADD62C,0.05000*%
G36*
X20484Y195830D02*
X20499Y195832D01*
X20514Y195829D01*
X176850D01*
X176858Y195831D01*
X176867Y195829D01*
X178135Y195850D01*
X180653Y195547D01*
X183108Y194906D01*
X185453Y193939D01*
X187645Y192664D01*
X189646Y191104D01*
X191416Y189288D01*
X192925Y187249D01*
X194144Y185024D01*
X195051Y182655D01*
X195629Y180186D01*
X195869Y177655D01*
X195830Y176368D01*
X195832Y176352D01*
X195829Y176337D01*
Y20000D01*
X195831Y19992D01*
X195829Y19984D01*
X195850Y18716D01*
X195547Y16197D01*
X194906Y13743D01*
X193939Y11398D01*
X192664Y9205D01*
X191104Y7205D01*
X189288Y5434D01*
X187249Y3925D01*
X185024Y2706D01*
X182655Y1799D01*
X180186Y1221D01*
X177655Y982D01*
X176368Y1021D01*
X176352Y1018D01*
X176337Y1021D01*
X20000Y1021D01*
X19992Y1020D01*
X19984Y1021D01*
X18716Y1001D01*
X16197Y1304D01*
X13743Y1944D01*
X11398Y2911D01*
X9205Y4186D01*
X7205Y5746D01*
X5434Y7563D01*
X3925Y9602D01*
X2706Y11826D01*
X1799Y14195D01*
X1221Y16665D01*
X982Y19196D01*
X1021Y20483D01*
X1018Y20498D01*
X1021Y20514D01*
X1022Y176852D01*
X1021Y176860D01*
X1022Y176868D01*
X1002Y178136D01*
X1305Y180654D01*
X1946Y183108D01*
X2912Y185453D01*
X4187Y187645D01*
X5747Y189645D01*
X7563Y191416D01*
X9602Y192924D01*
X11826Y194143D01*
X14195Y195050D01*
X16664Y195628D01*
X19195Y195868D01*
X20484Y195830D01*
D02*
G37*
%LPC*%
G36*
X72500Y184436D02*
X71746Y184234D01*
X70710Y183635D01*
X69864Y182790D01*
X69266Y181754D01*
X69064Y181000D01*
X72500D01*
Y184436D01*
D02*
G37*
G36*
X84098Y184543D02*
X82902D01*
X81746Y184234D01*
X80710Y183635D01*
X79865Y182790D01*
X79266Y181754D01*
X78993Y180734D01*
X78007D01*
X77734Y181754D01*
X77135Y182790D01*
X76290Y183635D01*
X75254Y184234D01*
X74500Y184436D01*
Y180000D01*
Y175564D01*
X75254Y175766D01*
X76290Y176365D01*
X77135Y177210D01*
X77734Y178246D01*
X78007Y179267D01*
X78993D01*
X79266Y178246D01*
X79865Y177210D01*
X80710Y176365D01*
X81746Y175766D01*
X82902Y175457D01*
X84098D01*
X85254Y175766D01*
X86290Y176365D01*
X87135Y177210D01*
X87734Y178246D01*
X88007Y179267D01*
X88993D01*
X89266Y178246D01*
X89864Y177210D01*
X90710Y176365D01*
X91746Y175766D01*
X92500Y175564D01*
Y180000D01*
Y184436D01*
X91746Y184234D01*
X90710Y183635D01*
X89864Y182790D01*
X89266Y181754D01*
X88993Y180734D01*
X88007D01*
X87734Y181754D01*
X87135Y182790D01*
X86290Y183635D01*
X85254Y184234D01*
X84098Y184543D01*
D02*
G37*
G36*
X124098D02*
X122902D01*
X121746Y184234D01*
X120710Y183635D01*
X119864Y182790D01*
X119266Y181754D01*
X118993Y180734D01*
X118007D01*
X117734Y181754D01*
X117136Y182790D01*
X116290Y183635D01*
X115254Y184234D01*
X114500Y184436D01*
Y180000D01*
Y175564D01*
X115254Y175766D01*
X116290Y176365D01*
X117136Y177210D01*
X117734Y178246D01*
X118007Y179267D01*
X118993D01*
X119266Y178246D01*
X119864Y177210D01*
X120710Y176365D01*
X121746Y175766D01*
X122902Y175457D01*
X124098D01*
X125254Y175766D01*
X126290Y176365D01*
X127136Y177210D01*
X127734Y178246D01*
X128043Y179402D01*
Y180598D01*
X127734Y181754D01*
X127136Y182790D01*
X126290Y183635D01*
X125254Y184234D01*
X124098Y184543D01*
D02*
G37*
G36*
X104098D02*
X102902D01*
X101746Y184234D01*
X100710Y183635D01*
X99865Y182790D01*
X99266Y181754D01*
X98993Y180734D01*
X98007D01*
X97734Y181754D01*
X97136Y182790D01*
X96290Y183635D01*
X95254Y184234D01*
X94500Y184436D01*
Y180000D01*
Y175564D01*
X95254Y175766D01*
X96290Y176365D01*
X97136Y177210D01*
X97734Y178246D01*
X98007Y179267D01*
X98993D01*
X99266Y178246D01*
X99865Y177210D01*
X100710Y176365D01*
X101746Y175766D01*
X102902Y175457D01*
X104098D01*
X105254Y175766D01*
X106290Y176365D01*
X107135Y177210D01*
X107734Y178246D01*
X108007Y179267D01*
X108993D01*
X109266Y178246D01*
X109864Y177210D01*
X110710Y176365D01*
X111746Y175766D01*
X112500Y175564D01*
Y180000D01*
Y184436D01*
X111746Y184234D01*
X110710Y183635D01*
X109864Y182790D01*
X109266Y181754D01*
X108993Y180734D01*
X108007D01*
X107734Y181754D01*
X107135Y182790D01*
X106290Y183635D01*
X105254Y184234D01*
X104098Y184543D01*
D02*
G37*
G36*
X178251Y190961D02*
X178165D01*
Y178165D01*
X190961D01*
Y178251D01*
X190621Y180396D01*
X189950Y182461D01*
X188964Y184396D01*
X187688Y186152D01*
X186152Y187688D01*
X184396Y188964D01*
X182461Y189950D01*
X180396Y190621D01*
X178251Y190961D01*
D02*
G37*
G36*
X176165D02*
X176080D01*
X173935Y190621D01*
X171870Y189950D01*
X169935Y188964D01*
X168178Y187688D01*
X166643Y186152D01*
X165367Y184396D01*
X164381Y182461D01*
X163710Y180396D01*
X163370Y178251D01*
Y178165D01*
X176165D01*
Y190961D01*
D02*
G37*
G36*
X20771D02*
X20685D01*
Y178165D01*
X33480D01*
Y178251D01*
X33141Y180396D01*
X32470Y182461D01*
X31484Y184396D01*
X30207Y186152D01*
X28672Y187688D01*
X26915Y188964D01*
X24981Y189950D01*
X22915Y190621D01*
X20771Y190961D01*
D02*
G37*
G36*
X18685D02*
X18599D01*
X16455Y190621D01*
X14390Y189950D01*
X12455Y188964D01*
X10698Y187688D01*
X9163Y186152D01*
X7886Y184396D01*
X6900Y182461D01*
X6229Y180396D01*
X5890Y178251D01*
Y178165D01*
X18685D01*
Y190961D01*
D02*
G37*
G36*
X72500Y179000D02*
X69064D01*
X69266Y178246D01*
X69864Y177210D01*
X70710Y176365D01*
X71746Y175766D01*
X72500Y175564D01*
Y179000D01*
D02*
G37*
G36*
X190961Y176165D02*
X178165D01*
Y163370D01*
X178251D01*
X180396Y163710D01*
X182461Y164381D01*
X184396Y165367D01*
X186152Y166643D01*
X187688Y168178D01*
X188964Y169935D01*
X189950Y171870D01*
X190621Y173935D01*
X190961Y176080D01*
Y176165D01*
D02*
G37*
G36*
X176165D02*
X163370D01*
Y176080D01*
X163710Y173935D01*
X164381Y171870D01*
X165367Y169935D01*
X166643Y168178D01*
X168178Y166643D01*
X169935Y165367D01*
X171870Y164381D01*
X173935Y163710D01*
X176080Y163370D01*
X176165D01*
Y176165D01*
D02*
G37*
G36*
X33480D02*
X20685D01*
Y163370D01*
X20771D01*
X22915Y163710D01*
X24981Y164381D01*
X26915Y165367D01*
X28672Y166643D01*
X30207Y168178D01*
X31484Y169935D01*
X32470Y171870D01*
X33141Y173935D01*
X33480Y176080D01*
Y176165D01*
D02*
G37*
G36*
X18685D02*
X5890D01*
Y176080D01*
X6229Y173935D01*
X6900Y171870D01*
X7886Y169935D01*
X9163Y168178D01*
X10698Y166643D01*
X12455Y165367D01*
X14390Y164381D01*
X16455Y163710D01*
X18599Y163370D01*
X18685D01*
Y176165D01*
D02*
G37*
G36*
X9500Y122732D02*
Y119500D01*
X12732D01*
X12550Y120178D01*
X11978Y121169D01*
X11169Y121978D01*
X10178Y122550D01*
X9500Y122732D01*
D02*
G37*
G36*
X7500D02*
X6822Y122550D01*
X5831Y121978D01*
X5022Y121169D01*
X4450Y120178D01*
X4268Y119500D01*
X7500D01*
Y122732D01*
D02*
G37*
G36*
X12732Y117500D02*
X9500D01*
Y114268D01*
X10178Y114450D01*
X11169Y115022D01*
X11978Y115831D01*
X12550Y116822D01*
X12732Y117500D01*
D02*
G37*
G36*
X7500D02*
X4268D01*
X4450Y116822D01*
X5022Y115831D01*
X5831Y115022D01*
X6822Y114450D01*
X7500Y114268D01*
Y117500D01*
D02*
G37*
G36*
X19072Y122846D02*
X17928D01*
X16822Y122550D01*
X15831Y121978D01*
X15022Y121169D01*
X14450Y120178D01*
X14154Y119072D01*
Y117928D01*
X14450Y116822D01*
X15022Y115831D01*
X15831Y115022D01*
X16822Y114450D01*
X17928Y114154D01*
X19072D01*
X20178Y114450D01*
X21169Y115022D01*
X21978Y115831D01*
X22550Y116822D01*
X22846Y117928D01*
Y119072D01*
X22550Y120178D01*
X21978Y121169D01*
X21169Y121978D01*
X20178Y122550D01*
X19072Y122846D01*
D02*
G37*
G36*
Y112847D02*
X17928D01*
X16822Y112550D01*
X15831Y111978D01*
X15022Y111169D01*
X14450Y110178D01*
X14154Y109072D01*
Y107928D01*
X14450Y106822D01*
X15022Y105831D01*
X15831Y105022D01*
X16822Y104450D01*
X17928Y104154D01*
X19072D01*
X20178Y104450D01*
X21169Y105022D01*
X21978Y105831D01*
X22550Y106822D01*
X22846Y107928D01*
Y109072D01*
X22550Y110178D01*
X21978Y111169D01*
X21169Y111978D01*
X20178Y112550D01*
X19072Y112847D01*
D02*
G37*
G36*
X9072D02*
X7928D01*
X6822Y112550D01*
X5831Y111978D01*
X5022Y111169D01*
X4450Y110178D01*
X4154Y109072D01*
Y107928D01*
X4450Y106822D01*
X5022Y105831D01*
X5831Y105022D01*
X6822Y104450D01*
X7928Y104154D01*
X9072D01*
X10178Y104450D01*
X11169Y105022D01*
X11978Y105831D01*
X12550Y106822D01*
X12846Y107928D01*
Y109072D01*
X12550Y110178D01*
X11978Y111169D01*
X11169Y111978D01*
X10178Y112550D01*
X9072Y112847D01*
D02*
G37*
G36*
X19072Y102847D02*
X17928D01*
X16822Y102550D01*
X15831Y101978D01*
X15022Y101169D01*
X14450Y100178D01*
X14154Y99072D01*
Y97928D01*
X14450Y96822D01*
X15022Y95831D01*
X15831Y95022D01*
X16822Y94450D01*
X17928Y94153D01*
X19072D01*
X20178Y94450D01*
X21169Y95022D01*
X21978Y95831D01*
X22550Y96822D01*
X22846Y97928D01*
Y99072D01*
X22550Y100178D01*
X21978Y101169D01*
X21169Y101978D01*
X20178Y102550D01*
X19072Y102847D01*
D02*
G37*
G36*
X9072D02*
X7928D01*
X6822Y102550D01*
X5831Y101978D01*
X5022Y101169D01*
X4450Y100178D01*
X4154Y99072D01*
Y97928D01*
X4450Y96822D01*
X5022Y95831D01*
X5831Y95022D01*
X6822Y94450D01*
X7928Y94153D01*
X9072D01*
X10178Y94450D01*
X11169Y95022D01*
X11978Y95831D01*
X12550Y96822D01*
X12846Y97928D01*
Y99072D01*
X12550Y100178D01*
X11978Y101169D01*
X11169Y101978D01*
X10178Y102550D01*
X9072Y102847D01*
D02*
G37*
G36*
X112500Y154520D02*
X109000D01*
X108610Y154442D01*
X108279Y154221D01*
X105578Y151520D01*
X30000D01*
X29610Y151442D01*
X29279Y151221D01*
X24779Y146721D01*
X24558Y146390D01*
X24480Y146000D01*
Y105000D01*
X24558Y104610D01*
X24779Y104279D01*
X28779Y100279D01*
X29110Y100058D01*
X29500Y99980D01*
X32578D01*
X32980Y99578D01*
X32980Y92422D01*
X25279Y84721D01*
X25058Y84390D01*
X24980Y84000D01*
X24980Y70922D01*
X23578Y69520D01*
X16422D01*
X12030Y73912D01*
Y75922D01*
X12550Y76822D01*
X12846Y77928D01*
Y79072D01*
X12550Y80178D01*
X11978Y81169D01*
X11169Y81978D01*
X10178Y82550D01*
X9072Y82846D01*
X7928D01*
X6822Y82550D01*
X5831Y81978D01*
X5022Y81169D01*
X4450Y80178D01*
X4154Y79072D01*
Y77928D01*
X4450Y76822D01*
X4970Y75922D01*
Y70500D01*
X4980Y70419D01*
Y66500D01*
X5058Y66110D01*
X5279Y65779D01*
X7279Y63779D01*
X7279Y63779D01*
X7610Y63558D01*
X8000Y63480D01*
X16000Y63480D01*
X26500Y63480D01*
X26890Y63558D01*
X27221Y63779D01*
X31221Y67779D01*
X31442Y68110D01*
X31520Y68500D01*
Y82078D01*
X40922Y91480D01*
X80787D01*
X80853Y91493D01*
X80920Y91489D01*
X81046Y91532D01*
X81177Y91558D01*
X81233Y91595D01*
X81297Y91617D01*
X81324Y91633D01*
X81402Y91654D01*
X81463Y91684D01*
X81529Y91697D01*
X81640Y91771D01*
X81759Y91830D01*
X81804Y91880D01*
X81860Y91918D01*
X85278Y95336D01*
X85499Y95667D01*
X85576Y96057D01*
Y98596D01*
X85499Y98986D01*
X85278Y99317D01*
X84374Y100221D01*
X84043Y100442D01*
X83653Y100520D01*
X80863D01*
X80473Y100442D01*
X80142Y100221D01*
X77441Y97520D01*
X59500Y97520D01*
X58922D01*
X58291Y98151D01*
Y102881D01*
X58214Y103271D01*
X57993Y103602D01*
X56291Y105304D01*
X55960Y105525D01*
X55570Y105602D01*
X53430D01*
X53040Y105525D01*
X52709Y105304D01*
X51279Y103874D01*
X51058Y103543D01*
X50980Y103153D01*
Y97922D01*
X50578Y97520D01*
X47000Y97520D01*
X40422Y97520D01*
X39020Y98922D01*
X39020Y103000D01*
X38942Y103390D01*
X38721Y103721D01*
X36721Y105721D01*
X36390Y105942D01*
X36000Y106020D01*
X32961Y106020D01*
X31520Y107462D01*
Y131000D01*
X31520Y144078D01*
X32922Y145480D01*
X112078D01*
X117779Y139779D01*
X118110Y139558D01*
X118500Y139480D01*
X160578D01*
X173480Y126578D01*
Y90500D01*
X173558Y90110D01*
X173779Y89779D01*
X173779Y89779D01*
X175278Y88280D01*
X175278Y88280D01*
X175609Y88059D01*
X175999Y87981D01*
X178501D01*
X178891Y88059D01*
X179222Y88280D01*
X180721Y89779D01*
X180942Y90110D01*
X181020Y90500D01*
X181020Y130000D01*
X180942Y130390D01*
X180721Y130721D01*
X172721Y138721D01*
X166221Y145221D01*
X165890Y145442D01*
X165500Y145520D01*
X121922Y145520D01*
X113221Y154221D01*
X112890Y154442D01*
X112500Y154520D01*
D02*
G37*
G36*
X19072Y92847D02*
X17928D01*
X16822Y92550D01*
X15831Y91978D01*
X15022Y91169D01*
X14450Y90178D01*
X14154Y89072D01*
Y87928D01*
X14450Y86822D01*
X15022Y85831D01*
X15831Y85022D01*
X16822Y84450D01*
X17928Y84153D01*
X19072D01*
X20178Y84450D01*
X21169Y85022D01*
X21978Y85831D01*
X22550Y86822D01*
X22846Y87928D01*
Y89072D01*
X22550Y90178D01*
X21978Y91169D01*
X21169Y91978D01*
X20178Y92550D01*
X19072Y92847D01*
D02*
G37*
G36*
X9072D02*
X7928D01*
X6822Y92550D01*
X5831Y91978D01*
X5022Y91169D01*
X4450Y90178D01*
X4154Y89072D01*
Y87928D01*
X4450Y86822D01*
X5022Y85831D01*
X5831Y85022D01*
X6822Y84450D01*
X7928Y84153D01*
X9072D01*
X10178Y84450D01*
X11169Y85022D01*
X11978Y85831D01*
X12550Y86822D01*
X12846Y87928D01*
Y89072D01*
X12550Y90178D01*
X11978Y91169D01*
X11169Y91978D01*
X10178Y92550D01*
X9072Y92847D01*
D02*
G37*
G36*
X19072Y82846D02*
X17928D01*
X16822Y82550D01*
X15831Y81978D01*
X15022Y81169D01*
X14450Y80178D01*
X14154Y79072D01*
Y77928D01*
X14450Y76822D01*
X15022Y75831D01*
X15831Y75022D01*
X16822Y74450D01*
X17928Y74154D01*
X19072D01*
X20178Y74450D01*
X21169Y75022D01*
X21978Y75831D01*
X22550Y76822D01*
X22846Y77928D01*
Y79072D01*
X22550Y80178D01*
X21978Y81169D01*
X21169Y81978D01*
X20178Y82550D01*
X19072Y82846D01*
D02*
G37*
G36*
X178251Y33480D02*
X178165D01*
Y20685D01*
X190961D01*
Y20771D01*
X190621Y22915D01*
X189950Y24981D01*
X188964Y26915D01*
X187688Y28672D01*
X186152Y30207D01*
X184396Y31484D01*
X182461Y32470D01*
X180396Y33141D01*
X178251Y33480D01*
D02*
G37*
G36*
X176165D02*
X176080D01*
X173935Y33141D01*
X171870Y32470D01*
X169935Y31484D01*
X168178Y30207D01*
X166643Y28672D01*
X165367Y26915D01*
X164381Y24981D01*
X163710Y22915D01*
X163370Y20771D01*
Y20685D01*
X176165D01*
Y33480D01*
D02*
G37*
G36*
X20771D02*
X20685D01*
Y20685D01*
X33480D01*
Y20771D01*
X33141Y22915D01*
X32470Y24981D01*
X31484Y26915D01*
X30207Y28672D01*
X28672Y30207D01*
X26915Y31484D01*
X24981Y32470D01*
X22915Y33141D01*
X20771Y33480D01*
D02*
G37*
G36*
X18685D02*
X18599D01*
X16455Y33141D01*
X14390Y32470D01*
X12455Y31484D01*
X10698Y30207D01*
X9163Y28672D01*
X7886Y26915D01*
X6900Y24981D01*
X6229Y22915D01*
X5890Y20771D01*
Y20685D01*
X18685D01*
Y33480D01*
D02*
G37*
G36*
X190961Y18685D02*
X178165D01*
Y5890D01*
X178251D01*
X180396Y6229D01*
X182461Y6900D01*
X184396Y7886D01*
X186152Y9163D01*
X187688Y10698D01*
X188964Y12455D01*
X189950Y14390D01*
X190621Y16455D01*
X190961Y18599D01*
Y18685D01*
D02*
G37*
G36*
X176165D02*
X163370D01*
Y18599D01*
X163710Y16455D01*
X164381Y14390D01*
X165367Y12455D01*
X166643Y10698D01*
X168178Y9163D01*
X169935Y7886D01*
X171870Y6900D01*
X173935Y6229D01*
X176080Y5890D01*
X176165D01*
Y18685D01*
D02*
G37*
G36*
X33480D02*
X20685D01*
Y5890D01*
X20771D01*
X22915Y6229D01*
X24981Y6900D01*
X26915Y7886D01*
X28672Y9163D01*
X30207Y10698D01*
X31484Y12455D01*
X32470Y14390D01*
X33141Y16455D01*
X33480Y18599D01*
Y18685D01*
D02*
G37*
G36*
X18685D02*
X5890D01*
Y18599D01*
X6229Y16455D01*
X6900Y14390D01*
X7886Y12455D01*
X9163Y10698D01*
X10698Y9163D01*
X12455Y7886D01*
X14390Y6900D01*
X16455Y6229D01*
X18599Y5890D01*
X18685D01*
Y18685D01*
D02*
G37*
G36*
X43865Y126772D02*
X43135D01*
X42430Y126583D01*
X41798Y126218D01*
X41282Y125702D01*
X40917Y125070D01*
X40728Y124365D01*
Y123635D01*
X40917Y122930D01*
X40980Y122821D01*
X40980Y119999D01*
X41058Y119609D01*
X41279Y119278D01*
X41279Y119278D01*
X43778Y116779D01*
X43778Y116779D01*
X44109Y116558D01*
X44499Y116480D01*
X102078D01*
X104278Y114280D01*
X104388Y114206D01*
X104489Y114119D01*
X104552Y114097D01*
X104608Y114059D01*
X104739Y114033D01*
X104865Y113991D01*
X104932Y113995D01*
X104999Y113982D01*
X105129Y114008D01*
X105262Y114017D01*
X105640Y114118D01*
X106102D01*
X106547Y113998D01*
X106947Y113768D01*
X107273Y113442D01*
X107503Y113042D01*
X107623Y112596D01*
Y112135D01*
X107522Y111757D01*
X107513Y111624D01*
X107487Y111494D01*
X107500Y111427D01*
X107496Y111360D01*
X107539Y111234D01*
X107565Y111103D01*
X107602Y111047D01*
X107624Y110984D01*
X107712Y110883D01*
X107786Y110773D01*
X109279Y109279D01*
X109610Y109058D01*
X110000Y108980D01*
X139578D01*
X141980Y106578D01*
Y23864D01*
X139136Y21020D01*
X81500D01*
X81110Y20942D01*
X80779Y20721D01*
X78779Y18721D01*
X78558Y18390D01*
X78480Y18000D01*
Y8000D01*
X78558Y7610D01*
X78779Y7279D01*
X78779Y7279D01*
X80279Y5779D01*
X80610Y5558D01*
X81000Y5480D01*
X141000D01*
X141390Y5558D01*
X141721Y5779D01*
X149721Y13779D01*
X149942Y14110D01*
X150020Y14500D01*
Y119000D01*
X149942Y119390D01*
X149721Y119721D01*
X146721Y122721D01*
X146390Y122942D01*
X146000Y123020D01*
X48422D01*
X45721Y125721D01*
X45654Y125766D01*
X45202Y126218D01*
X44570Y126583D01*
X43865Y126772D01*
D02*
G37*
%LPD*%
G36*
X121500Y144500D02*
X165500Y144500D01*
X172000Y138000D01*
X180000Y130000D01*
X180000Y90500D01*
X178501Y89001D01*
X175999D01*
X174500Y90500D01*
Y127000D01*
X161000Y140500D01*
X118500D01*
X112500Y146500D01*
X32500D01*
X30500Y144500D01*
X30500Y131000D01*
Y107039D01*
X32539Y105000D01*
X36000Y105000D01*
X38000Y103000D01*
X38000Y98500D01*
X40000Y96500D01*
X47000Y96500D01*
X51000Y96500D01*
X52000Y97500D01*
Y103153D01*
X53430Y104583D01*
X55570D01*
X57272Y102881D01*
Y97728D01*
X58500Y96500D01*
X59500D01*
X77500Y96500D01*
X77864D01*
X80863Y99500D01*
X83653D01*
X84557Y98596D01*
Y96057D01*
X81139Y92639D01*
X80930Y92583D01*
X80787Y92500D01*
X40500D01*
X30500Y82500D01*
Y68500D01*
X26500Y64500D01*
X16000Y64500D01*
X8000Y64500D01*
X6000Y66500D01*
Y73500D01*
X11000D01*
X16000Y68500D01*
X24000D01*
X26000Y70500D01*
X26000Y84000D01*
X34000Y92000D01*
X34000Y100000D01*
X33000Y101000D01*
X29500D01*
X25500Y105000D01*
Y146000D01*
X30000Y150500D01*
X106000D01*
X109000Y153500D01*
X112500D01*
X121500Y144500D01*
D02*
G37*
G36*
X48000Y122000D02*
X146000D01*
X149000Y119000D01*
Y14500D01*
X141000Y6500D01*
X81000D01*
X79500Y8000D01*
Y18000D01*
X81500Y20000D01*
X139558D01*
X143000Y23442D01*
Y107000D01*
X140000Y110000D01*
X110000D01*
X108507Y111494D01*
X108642Y112001D01*
Y112731D01*
X108454Y113436D01*
X108089Y114068D01*
X107573Y114584D01*
X106941Y114949D01*
X106236Y115138D01*
X105506D01*
X104999Y115001D01*
X102500Y117500D01*
X44499D01*
X42000Y119999D01*
X42000Y124500D01*
X42500Y125000D01*
X45000Y125000D01*
X48000Y122000D01*
D02*
G37*
D58*
X19685Y19685D02*
D03*
X177165Y177165D02*
D03*
Y19685D02*
D03*
X19685Y177165D02*
D03*
D59*
X8500Y88500D02*
D03*
X18500Y78500D02*
D03*
Y88500D02*
D03*
Y118500D02*
D03*
X8500Y108500D02*
D03*
Y98500D02*
D03*
Y78500D02*
D03*
X18500Y108500D02*
D03*
Y98500D02*
D03*
X8500Y118500D02*
D03*
D60*
X123500Y180000D02*
D03*
X83500D02*
D03*
X93500D02*
D03*
X113500D02*
D03*
X73500D02*
D03*
X103500D02*
D03*
D61*
X192913Y62992D02*
D03*
X188977Y55118D02*
D03*
X192913Y47244D02*
D03*
X188977Y39370D02*
D03*
X192913Y31496D02*
D03*
X185039Y62992D02*
D03*
X181103Y55118D02*
D03*
X185039Y47244D02*
D03*
X181103Y39370D02*
D03*
X177165Y62992D02*
D03*
X173228Y55118D02*
D03*
X177165Y47244D02*
D03*
X173228Y39370D02*
D03*
X169291Y62992D02*
D03*
X165354Y55118D02*
D03*
X169291Y47244D02*
D03*
X165354Y39370D02*
D03*
Y7874D02*
D03*
X161417Y62992D02*
D03*
X157480Y55118D02*
D03*
X161417Y47244D02*
D03*
X157480Y39370D02*
D03*
X161417Y31496D02*
D03*
X157480Y23622D02*
D03*
X161417Y15748D02*
D03*
X157480Y7874D02*
D03*
X153543Y62992D02*
D03*
Y47244D02*
D03*
Y31496D02*
D03*
Y15748D02*
D03*
X149606Y7874D02*
D03*
X137795Y62992D02*
D03*
X133858Y55118D02*
D03*
X137795Y47244D02*
D03*
X133858Y39370D02*
D03*
X137795Y31496D02*
D03*
X133858Y23622D02*
D03*
X129921Y62992D02*
D03*
X125984Y55118D02*
D03*
X129921Y47244D02*
D03*
X125984Y39370D02*
D03*
X129921Y31496D02*
D03*
X122047Y62992D02*
D03*
X118110Y55118D02*
D03*
Y39370D02*
D03*
X114173Y62992D02*
D03*
X110236Y39370D02*
D03*
X102362Y55118D02*
D03*
X106299Y47244D02*
D03*
X102362Y39370D02*
D03*
X94488Y55118D02*
D03*
X98425Y47244D02*
D03*
X90551Y62992D02*
D03*
X86614Y55118D02*
D03*
X90551Y47244D02*
D03*
X82677Y62992D02*
D03*
X78740Y55118D02*
D03*
X70866Y7874D02*
D03*
X62992Y55118D02*
D03*
Y7874D02*
D03*
X55118D02*
D03*
X47244D02*
D03*
X39370D02*
D03*
X35433Y62992D02*
D03*
Y31496D02*
D03*
Y15748D02*
D03*
X31496Y7874D02*
D03*
X82000Y97500D02*
D03*
X65000Y89000D02*
D03*
X84000Y140000D02*
D03*
X82000Y90000D02*
D03*
X76500Y113500D02*
D03*
X54500Y102000D02*
D03*
X84000Y113500D02*
D03*
X105871Y112366D02*
D03*
X82000Y71500D02*
D03*
X138000Y73500D02*
D03*
X119000Y128292D02*
D03*
X169000Y138000D02*
D03*
X181000Y142500D02*
D03*
X104000Y33500D02*
D03*
X36000Y120000D02*
D03*
X43500Y124000D02*
D03*
X102500Y141000D02*
D03*
X74000Y143000D02*
D03*
X31000Y103000D02*
D03*
X177000Y91000D02*
D03*
X182500Y79500D02*
D03*
X56500Y88000D02*
D03*
X30500Y98000D02*
D03*
X145500Y71000D02*
D03*
X162500D02*
D03*
X112000Y35000D02*
D03*
X72500Y60000D02*
D03*
X110500Y17500D02*
D03*
X106500D02*
D03*
X102500D02*
D03*
X98500Y13000D02*
D03*
X90500D02*
D03*
X106500D02*
D03*
X94500Y8500D02*
D03*
X102500D02*
D03*
X110500Y13000D02*
D03*
X82500D02*
D03*
X94500D02*
D03*
X82500Y8500D02*
D03*
X106500D02*
D03*
X86500D02*
D03*
X90500D02*
D03*
X110500D02*
D03*
X102500Y13000D02*
D03*
X98500Y8500D02*
D03*
X86500Y13000D02*
D03*
X49000Y34000D02*
D03*
X119000Y113000D02*
D03*
X112000Y112500D02*
D03*
X165000Y113500D02*
D03*
X157500Y124000D02*
D03*
X146000Y118500D02*
D03*
X119000Y143500D02*
D03*
X111000Y151000D02*
D03*
X62500Y148500D02*
D03*
X52000Y125000D02*
D03*
D62*
X8500Y70500D02*
Y78042D01*
M02*
