G04*
G04 #@! TF.GenerationSoftware,Altium Limited,Altium Designer,22.3.1 (43)*
G04*
G04 Layer_Color=2752767*
%FSLAX25Y25*%
%MOIN*%
G70*
G04*
G04 #@! TF.SameCoordinates,2454C8F7-4EAD-40B7-BFB8-64AA641CEC59*
G04*
G04*
G04 #@! TF.FilePolarity,Positive*
G04*
G01*
G75*
%ADD66C,0.00200*%
%ADD67C,0.00267*%
D66*
X18885Y18885D02*
Y20485D01*
X20485D01*
Y18885D01*
X18885D01*
X123500Y179200D02*
X122700Y180800D01*
X124300D01*
X123500Y179200D01*
X83500D02*
X82700Y180800D01*
X84300D01*
X83500Y179200D01*
X176365Y176365D02*
Y177965D01*
X177965D01*
Y176365D01*
X176365D01*
Y18885D02*
Y20485D01*
X177965D01*
Y18885D01*
X176365D01*
X93500Y179200D02*
X92700Y180800D01*
X94300D01*
X93500Y179200D01*
X18885Y176365D02*
Y177965D01*
X20485D01*
Y176365D01*
X18885D01*
X113500Y179200D02*
X112700Y180800D01*
X114300D01*
X113500Y179200D01*
X73500D02*
X72700Y180800D01*
X74300D01*
X73500Y179200D01*
X103500D02*
X102700Y180800D01*
X104300D01*
X103500Y179200D01*
X192913Y62192D02*
X193314Y62592D01*
X193713D01*
X193314Y62992D01*
X193713Y63392D01*
X193314D01*
X192913Y63792D01*
X192514Y63392D01*
X192113D01*
X192514Y62992D01*
X192113Y62592D01*
X192514D01*
X192913Y62192D01*
X188977Y54318D02*
X189376Y54718D01*
X189777D01*
X189376Y55118D01*
X189777Y55518D01*
X189376D01*
X188977Y55918D01*
X188576Y55518D01*
X188177D01*
X188576Y55118D01*
X188177Y54718D01*
X188576D01*
X188977Y54318D01*
X192913Y46444D02*
X193314Y46844D01*
X193713D01*
X193314Y47244D01*
X193713Y47644D01*
X193314D01*
X192913Y48044D01*
X192514Y47644D01*
X192113D01*
X192514Y47244D01*
X192113Y46844D01*
X192514D01*
X192913Y46444D01*
X188977Y38570D02*
X189376Y38970D01*
X189777D01*
X189376Y39370D01*
X189777Y39770D01*
X189376D01*
X188977Y40170D01*
X188576Y39770D01*
X188177D01*
X188576Y39370D01*
X188177Y38970D01*
X188576D01*
X188977Y38570D01*
X192913Y30696D02*
X193314Y31096D01*
X193713D01*
X193314Y31496D01*
X193713Y31896D01*
X193314D01*
X192913Y32296D01*
X192514Y31896D01*
X192113D01*
X192514Y31496D01*
X192113Y31096D01*
X192514D01*
X192913Y30696D01*
X185039Y62192D02*
X185440Y62592D01*
X185839D01*
X185440Y62992D01*
X185839Y63392D01*
X185440D01*
X185039Y63792D01*
X184640Y63392D01*
X184239D01*
X184640Y62992D01*
X184239Y62592D01*
X184640D01*
X185039Y62192D01*
X181103Y54318D02*
X181502Y54718D01*
X181903D01*
X181502Y55118D01*
X181903Y55518D01*
X181502D01*
X181103Y55918D01*
X180702Y55518D01*
X180303D01*
X180702Y55118D01*
X180303Y54718D01*
X180702D01*
X181103Y54318D01*
X185039Y46444D02*
X185440Y46844D01*
X185839D01*
X185440Y47244D01*
X185839Y47644D01*
X185440D01*
X185039Y48044D01*
X184640Y47644D01*
X184239D01*
X184640Y47244D01*
X184239Y46844D01*
X184640D01*
X185039Y46444D01*
X181103Y38570D02*
X181502Y38970D01*
X181903D01*
X181502Y39370D01*
X181903Y39770D01*
X181502D01*
X181103Y40170D01*
X180702Y39770D01*
X180303D01*
X180702Y39370D01*
X180303Y38970D01*
X180702D01*
X181103Y38570D01*
X177165Y62192D02*
X177566Y62592D01*
X177965D01*
X177566Y62992D01*
X177965Y63392D01*
X177566D01*
X177165Y63792D01*
X176766Y63392D01*
X176365D01*
X176766Y62992D01*
X176365Y62592D01*
X176766D01*
X177165Y62192D01*
X173228Y54318D02*
X173628Y54718D01*
X174028D01*
X173628Y55118D01*
X174028Y55518D01*
X173628D01*
X173228Y55918D01*
X172828Y55518D01*
X172428D01*
X172828Y55118D01*
X172428Y54718D01*
X172828D01*
X173228Y54318D01*
X177165Y46444D02*
X177566Y46844D01*
X177965D01*
X177566Y47244D01*
X177965Y47644D01*
X177566D01*
X177165Y48044D01*
X176766Y47644D01*
X176365D01*
X176766Y47244D01*
X176365Y46844D01*
X176766D01*
X177165Y46444D01*
X173228Y38570D02*
X173628Y38970D01*
X174028D01*
X173628Y39370D01*
X174028Y39770D01*
X173628D01*
X173228Y40170D01*
X172828Y39770D01*
X172428D01*
X172828Y39370D01*
X172428Y38970D01*
X172828D01*
X173228Y38570D01*
X169291Y62192D02*
X169691Y62592D01*
X170091D01*
X169691Y62992D01*
X170091Y63392D01*
X169691D01*
X169291Y63792D01*
X168891Y63392D01*
X168491D01*
X168891Y62992D01*
X168491Y62592D01*
X168891D01*
X169291Y62192D01*
X165354Y54318D02*
X165754Y54718D01*
X166154D01*
X165754Y55118D01*
X166154Y55518D01*
X165754D01*
X165354Y55918D01*
X164954Y55518D01*
X164554D01*
X164954Y55118D01*
X164554Y54718D01*
X164954D01*
X165354Y54318D01*
X169291Y46444D02*
X169691Y46844D01*
X170091D01*
X169691Y47244D01*
X170091Y47644D01*
X169691D01*
X169291Y48044D01*
X168891Y47644D01*
X168491D01*
X168891Y47244D01*
X168491Y46844D01*
X168891D01*
X169291Y46444D01*
X165354Y38570D02*
X165754Y38970D01*
X166154D01*
X165754Y39370D01*
X166154Y39770D01*
X165754D01*
X165354Y40170D01*
X164954Y39770D01*
X164554D01*
X164954Y39370D01*
X164554Y38970D01*
X164954D01*
X165354Y38570D01*
Y7074D02*
X165754Y7474D01*
X166154D01*
X165754Y7874D01*
X166154Y8274D01*
X165754D01*
X165354Y8674D01*
X164954Y8274D01*
X164554D01*
X164954Y7874D01*
X164554Y7474D01*
X164954D01*
X165354Y7074D01*
X161417Y62192D02*
X161817Y62592D01*
X162217D01*
X161817Y62992D01*
X162217Y63392D01*
X161817D01*
X161417Y63792D01*
X161017Y63392D01*
X160617D01*
X161017Y62992D01*
X160617Y62592D01*
X161017D01*
X161417Y62192D01*
X157480Y54318D02*
X157880Y54718D01*
X158280D01*
X157880Y55118D01*
X158280Y55518D01*
X157880D01*
X157480Y55918D01*
X157080Y55518D01*
X156680D01*
X157080Y55118D01*
X156680Y54718D01*
X157080D01*
X157480Y54318D01*
X161417Y46444D02*
X161817Y46844D01*
X162217D01*
X161817Y47244D01*
X162217Y47644D01*
X161817D01*
X161417Y48044D01*
X161017Y47644D01*
X160617D01*
X161017Y47244D01*
X160617Y46844D01*
X161017D01*
X161417Y46444D01*
X157480Y38570D02*
X157880Y38970D01*
X158280D01*
X157880Y39370D01*
X158280Y39770D01*
X157880D01*
X157480Y40170D01*
X157080Y39770D01*
X156680D01*
X157080Y39370D01*
X156680Y38970D01*
X157080D01*
X157480Y38570D01*
X161417Y30696D02*
X161817Y31096D01*
X162217D01*
X161817Y31496D01*
X162217Y31896D01*
X161817D01*
X161417Y32296D01*
X161017Y31896D01*
X160617D01*
X161017Y31496D01*
X160617Y31096D01*
X161017D01*
X161417Y30696D01*
X157480Y22822D02*
X157880Y23222D01*
X158280D01*
X157880Y23622D01*
X158280Y24022D01*
X157880D01*
X157480Y24422D01*
X157080Y24022D01*
X156680D01*
X157080Y23622D01*
X156680Y23222D01*
X157080D01*
X157480Y22822D01*
X161417Y14948D02*
X161817Y15348D01*
X162217D01*
X161817Y15748D01*
X162217Y16148D01*
X161817D01*
X161417Y16548D01*
X161017Y16148D01*
X160617D01*
X161017Y15748D01*
X160617Y15348D01*
X161017D01*
X161417Y14948D01*
X157480Y7074D02*
X157880Y7474D01*
X158280D01*
X157880Y7874D01*
X158280Y8274D01*
X157880D01*
X157480Y8674D01*
X157080Y8274D01*
X156680D01*
X157080Y7874D01*
X156680Y7474D01*
X157080D01*
X157480Y7074D01*
X153543Y62192D02*
X153943Y62592D01*
X154343D01*
X153943Y62992D01*
X154343Y63392D01*
X153943D01*
X153543Y63792D01*
X153143Y63392D01*
X152743D01*
X153143Y62992D01*
X152743Y62592D01*
X153143D01*
X153543Y62192D01*
Y46444D02*
X153943Y46844D01*
X154343D01*
X153943Y47244D01*
X154343Y47644D01*
X153943D01*
X153543Y48044D01*
X153143Y47644D01*
X152743D01*
X153143Y47244D01*
X152743Y46844D01*
X153143D01*
X153543Y46444D01*
Y30696D02*
X153943Y31096D01*
X154343D01*
X153943Y31496D01*
X154343Y31896D01*
X153943D01*
X153543Y32296D01*
X153143Y31896D01*
X152743D01*
X153143Y31496D01*
X152743Y31096D01*
X153143D01*
X153543Y30696D01*
Y14948D02*
X153943Y15348D01*
X154343D01*
X153943Y15748D01*
X154343Y16148D01*
X153943D01*
X153543Y16548D01*
X153143Y16148D01*
X152743D01*
X153143Y15748D01*
X152743Y15348D01*
X153143D01*
X153543Y14948D01*
X149606Y7074D02*
X150006Y7474D01*
X150406D01*
X150006Y7874D01*
X150406Y8274D01*
X150006D01*
X149606Y8674D01*
X149206Y8274D01*
X148806D01*
X149206Y7874D01*
X148806Y7474D01*
X149206D01*
X149606Y7074D01*
X137795Y62192D02*
X138195Y62592D01*
X138595D01*
X138195Y62992D01*
X138595Y63392D01*
X138195D01*
X137795Y63792D01*
X137395Y63392D01*
X136995D01*
X137395Y62992D01*
X136995Y62592D01*
X137395D01*
X137795Y62192D01*
X133858Y54318D02*
X134258Y54718D01*
X134658D01*
X134258Y55118D01*
X134658Y55518D01*
X134258D01*
X133858Y55918D01*
X133458Y55518D01*
X133058D01*
X133458Y55118D01*
X133058Y54718D01*
X133458D01*
X133858Y54318D01*
X137795Y46444D02*
X138195Y46844D01*
X138595D01*
X138195Y47244D01*
X138595Y47644D01*
X138195D01*
X137795Y48044D01*
X137395Y47644D01*
X136995D01*
X137395Y47244D01*
X136995Y46844D01*
X137395D01*
X137795Y46444D01*
X133858Y38570D02*
X134258Y38970D01*
X134658D01*
X134258Y39370D01*
X134658Y39770D01*
X134258D01*
X133858Y40170D01*
X133458Y39770D01*
X133058D01*
X133458Y39370D01*
X133058Y38970D01*
X133458D01*
X133858Y38570D01*
X137795Y30696D02*
X138195Y31096D01*
X138595D01*
X138195Y31496D01*
X138595Y31896D01*
X138195D01*
X137795Y32296D01*
X137395Y31896D01*
X136995D01*
X137395Y31496D01*
X136995Y31096D01*
X137395D01*
X137795Y30696D01*
X133858Y22822D02*
X134258Y23222D01*
X134658D01*
X134258Y23622D01*
X134658Y24022D01*
X134258D01*
X133858Y24422D01*
X133458Y24022D01*
X133058D01*
X133458Y23622D01*
X133058Y23222D01*
X133458D01*
X133858Y22822D01*
X129921Y62192D02*
X130321Y62592D01*
X130721D01*
X130321Y62992D01*
X130721Y63392D01*
X130321D01*
X129921Y63792D01*
X129521Y63392D01*
X129121D01*
X129521Y62992D01*
X129121Y62592D01*
X129521D01*
X129921Y62192D01*
X125984Y54318D02*
X126384Y54718D01*
X126784D01*
X126384Y55118D01*
X126784Y55518D01*
X126384D01*
X125984Y55918D01*
X125584Y55518D01*
X125184D01*
X125584Y55118D01*
X125184Y54718D01*
X125584D01*
X125984Y54318D01*
X129921Y46444D02*
X130321Y46844D01*
X130721D01*
X130321Y47244D01*
X130721Y47644D01*
X130321D01*
X129921Y48044D01*
X129521Y47644D01*
X129121D01*
X129521Y47244D01*
X129121Y46844D01*
X129521D01*
X129921Y46444D01*
X125984Y38570D02*
X126384Y38970D01*
X126784D01*
X126384Y39370D01*
X126784Y39770D01*
X126384D01*
X125984Y40170D01*
X125584Y39770D01*
X125184D01*
X125584Y39370D01*
X125184Y38970D01*
X125584D01*
X125984Y38570D01*
X129921Y30696D02*
X130321Y31096D01*
X130721D01*
X130321Y31496D01*
X130721Y31896D01*
X130321D01*
X129921Y32296D01*
X129521Y31896D01*
X129121D01*
X129521Y31496D01*
X129121Y31096D01*
X129521D01*
X129921Y30696D01*
X122047Y62192D02*
X122447Y62592D01*
X122847D01*
X122447Y62992D01*
X122847Y63392D01*
X122447D01*
X122047Y63792D01*
X121647Y63392D01*
X121247D01*
X121647Y62992D01*
X121247Y62592D01*
X121647D01*
X122047Y62192D01*
X118110Y54318D02*
X118510Y54718D01*
X118910D01*
X118510Y55118D01*
X118910Y55518D01*
X118510D01*
X118110Y55918D01*
X117710Y55518D01*
X117310D01*
X117710Y55118D01*
X117310Y54718D01*
X117710D01*
X118110Y54318D01*
Y38570D02*
X118510Y38970D01*
X118910D01*
X118510Y39370D01*
X118910Y39770D01*
X118510D01*
X118110Y40170D01*
X117710Y39770D01*
X117310D01*
X117710Y39370D01*
X117310Y38970D01*
X117710D01*
X118110Y38570D01*
X114173Y62192D02*
X114573Y62592D01*
X114973D01*
X114573Y62992D01*
X114973Y63392D01*
X114573D01*
X114173Y63792D01*
X113773Y63392D01*
X113373D01*
X113773Y62992D01*
X113373Y62592D01*
X113773D01*
X114173Y62192D01*
X110236Y38570D02*
X110636Y38970D01*
X111036D01*
X110636Y39370D01*
X111036Y39770D01*
X110636D01*
X110236Y40170D01*
X109836Y39770D01*
X109436D01*
X109836Y39370D01*
X109436Y38970D01*
X109836D01*
X110236Y38570D01*
X102362Y54318D02*
X102762Y54718D01*
X103162D01*
X102762Y55118D01*
X103162Y55518D01*
X102762D01*
X102362Y55918D01*
X101962Y55518D01*
X101562D01*
X101962Y55118D01*
X101562Y54718D01*
X101962D01*
X102362Y54318D01*
X106299Y46444D02*
X106699Y46844D01*
X107099D01*
X106699Y47244D01*
X107099Y47644D01*
X106699D01*
X106299Y48044D01*
X105899Y47644D01*
X105499D01*
X105899Y47244D01*
X105499Y46844D01*
X105899D01*
X106299Y46444D01*
X102362Y38570D02*
X102762Y38970D01*
X103162D01*
X102762Y39370D01*
X103162Y39770D01*
X102762D01*
X102362Y40170D01*
X101962Y39770D01*
X101562D01*
X101962Y39370D01*
X101562Y38970D01*
X101962D01*
X102362Y38570D01*
X94488Y54318D02*
X94888Y54718D01*
X95288D01*
X94888Y55118D01*
X95288Y55518D01*
X94888D01*
X94488Y55918D01*
X94088Y55518D01*
X93688D01*
X94088Y55118D01*
X93688Y54718D01*
X94088D01*
X94488Y54318D01*
X98425Y46444D02*
X98825Y46844D01*
X99225D01*
X98825Y47244D01*
X99225Y47644D01*
X98825D01*
X98425Y48044D01*
X98025Y47644D01*
X97625D01*
X98025Y47244D01*
X97625Y46844D01*
X98025D01*
X98425Y46444D01*
X90551Y62192D02*
X90951Y62592D01*
X91351D01*
X90951Y62992D01*
X91351Y63392D01*
X90951D01*
X90551Y63792D01*
X90151Y63392D01*
X89751D01*
X90151Y62992D01*
X89751Y62592D01*
X90151D01*
X90551Y62192D01*
X86614Y54318D02*
X87014Y54718D01*
X87414D01*
X87014Y55118D01*
X87414Y55518D01*
X87014D01*
X86614Y55918D01*
X86214Y55518D01*
X85814D01*
X86214Y55118D01*
X85814Y54718D01*
X86214D01*
X86614Y54318D01*
X90551Y46444D02*
X90951Y46844D01*
X91351D01*
X90951Y47244D01*
X91351Y47644D01*
X90951D01*
X90551Y48044D01*
X90151Y47644D01*
X89751D01*
X90151Y47244D01*
X89751Y46844D01*
X90151D01*
X90551Y46444D01*
X82677Y62192D02*
X83077Y62592D01*
X83477D01*
X83077Y62992D01*
X83477Y63392D01*
X83077D01*
X82677Y63792D01*
X82277Y63392D01*
X81877D01*
X82277Y62992D01*
X81877Y62592D01*
X82277D01*
X82677Y62192D01*
X78740Y54318D02*
X79140Y54718D01*
X79540D01*
X79140Y55118D01*
X79540Y55518D01*
X79140D01*
X78740Y55918D01*
X78340Y55518D01*
X77940D01*
X78340Y55118D01*
X77940Y54718D01*
X78340D01*
X78740Y54318D01*
X70866Y7074D02*
X71266Y7474D01*
X71666D01*
X71266Y7874D01*
X71666Y8274D01*
X71266D01*
X70866Y8674D01*
X70466Y8274D01*
X70066D01*
X70466Y7874D01*
X70066Y7474D01*
X70466D01*
X70866Y7074D01*
X62992Y54318D02*
X63392Y54718D01*
X63792D01*
X63392Y55118D01*
X63792Y55518D01*
X63392D01*
X62992Y55918D01*
X62592Y55518D01*
X62192D01*
X62592Y55118D01*
X62192Y54718D01*
X62592D01*
X62992Y54318D01*
Y7074D02*
X63392Y7474D01*
X63792D01*
X63392Y7874D01*
X63792Y8274D01*
X63392D01*
X62992Y8674D01*
X62592Y8274D01*
X62192D01*
X62592Y7874D01*
X62192Y7474D01*
X62592D01*
X62992Y7074D01*
X55118D02*
X55518Y7474D01*
X55918D01*
X55518Y7874D01*
X55918Y8274D01*
X55518D01*
X55118Y8674D01*
X54718Y8274D01*
X54318D01*
X54718Y7874D01*
X54318Y7474D01*
X54718D01*
X55118Y7074D01*
X47244D02*
X47644Y7474D01*
X48044D01*
X47644Y7874D01*
X48044Y8274D01*
X47644D01*
X47244Y8674D01*
X46844Y8274D01*
X46444D01*
X46844Y7874D01*
X46444Y7474D01*
X46844D01*
X47244Y7074D01*
X39370D02*
X39770Y7474D01*
X40170D01*
X39770Y7874D01*
X40170Y8274D01*
X39770D01*
X39370Y8674D01*
X38970Y8274D01*
X38570D01*
X38970Y7874D01*
X38570Y7474D01*
X38970D01*
X39370Y7074D01*
X35433Y62192D02*
X35833Y62592D01*
X36233D01*
X35833Y62992D01*
X36233Y63392D01*
X35833D01*
X35433Y63792D01*
X35033Y63392D01*
X34633D01*
X35033Y62992D01*
X34633Y62592D01*
X35033D01*
X35433Y62192D01*
Y30696D02*
X35833Y31096D01*
X36233D01*
X35833Y31496D01*
X36233Y31896D01*
X35833D01*
X35433Y32296D01*
X35033Y31896D01*
X34633D01*
X35033Y31496D01*
X34633Y31096D01*
X35033D01*
X35433Y30696D01*
Y14948D02*
X35833Y15348D01*
X36233D01*
X35833Y15748D01*
X36233Y16148D01*
X35833D01*
X35433Y16548D01*
X35033Y16148D01*
X34633D01*
X35033Y15748D01*
X34633Y15348D01*
X35033D01*
X35433Y14948D01*
X31496Y7074D02*
X31896Y7474D01*
X32296D01*
X31896Y7874D01*
X32296Y8274D01*
X31896D01*
X31496Y8674D01*
X31096Y8274D01*
X30696D01*
X31096Y7874D01*
X30696Y7474D01*
X31096D01*
X31496Y7074D01*
X82000Y96700D02*
X82400Y97100D01*
X82800D01*
X82400Y97500D01*
X82800Y97900D01*
X82400D01*
X82000Y98300D01*
X81600Y97900D01*
X81200D01*
X81600Y97500D01*
X81200Y97100D01*
X81600D01*
X82000Y96700D01*
X65000Y88200D02*
X65400Y88600D01*
X65800D01*
X65400Y89000D01*
X65800Y89400D01*
X65400D01*
X65000Y89800D01*
X64600Y89400D01*
X64200D01*
X64600Y89000D01*
X64200Y88600D01*
X64600D01*
X65000Y88200D01*
X84000Y139200D02*
X84400Y139600D01*
X84800D01*
X84400Y140000D01*
X84800Y140400D01*
X84400D01*
X84000Y140800D01*
X83600Y140400D01*
X83200D01*
X83600Y140000D01*
X83200Y139600D01*
X83600D01*
X84000Y139200D01*
X82000Y89200D02*
X82400Y89600D01*
X82800D01*
X82400Y90000D01*
X82800Y90400D01*
X82400D01*
X82000Y90800D01*
X81600Y90400D01*
X81200D01*
X81600Y90000D01*
X81200Y89600D01*
X81600D01*
X82000Y89200D01*
X76500Y112700D02*
X76900Y113100D01*
X77300D01*
X76900Y113500D01*
X77300Y113900D01*
X76900D01*
X76500Y114300D01*
X76100Y113900D01*
X75700D01*
X76100Y113500D01*
X75700Y113100D01*
X76100D01*
X76500Y112700D01*
X54500Y101200D02*
X54900Y101600D01*
X55300D01*
X54900Y102000D01*
X55300Y102400D01*
X54900D01*
X54500Y102800D01*
X54100Y102400D01*
X53700D01*
X54100Y102000D01*
X53700Y101600D01*
X54100D01*
X54500Y101200D01*
X84000Y112700D02*
X84400Y113100D01*
X84800D01*
X84400Y113500D01*
X84800Y113900D01*
X84400D01*
X84000Y114300D01*
X83600Y113900D01*
X83200D01*
X83600Y113500D01*
X83200Y113100D01*
X83600D01*
X84000Y112700D01*
X105871Y111566D02*
X106271Y111966D01*
X106671D01*
X106271Y112366D01*
X106671Y112766D01*
X106271D01*
X105871Y113166D01*
X105471Y112766D01*
X105071D01*
X105471Y112366D01*
X105071Y111966D01*
X105471D01*
X105871Y111566D01*
X82000Y70700D02*
X82400Y71100D01*
X82800D01*
X82400Y71500D01*
X82800Y71900D01*
X82400D01*
X82000Y72300D01*
X81600Y71900D01*
X81200D01*
X81600Y71500D01*
X81200Y71100D01*
X81600D01*
X82000Y70700D01*
X138000Y72700D02*
X138400Y73100D01*
X138800D01*
X138400Y73500D01*
X138800Y73900D01*
X138400D01*
X138000Y74300D01*
X137600Y73900D01*
X137200D01*
X137600Y73500D01*
X137200Y73100D01*
X137600D01*
X138000Y72700D01*
X119000Y127492D02*
X119400Y127892D01*
X119800D01*
X119400Y128292D01*
X119800Y128692D01*
X119400D01*
X119000Y129092D01*
X118600Y128692D01*
X118200D01*
X118600Y128292D01*
X118200Y127892D01*
X118600D01*
X119000Y127492D01*
X169000Y137200D02*
X169400Y137600D01*
X169800D01*
X169400Y138000D01*
X169800Y138400D01*
X169400D01*
X169000Y138800D01*
X168600Y138400D01*
X168200D01*
X168600Y138000D01*
X168200Y137600D01*
X168600D01*
X169000Y137200D01*
X181000Y141700D02*
X181400Y142100D01*
X181800D01*
X181400Y142500D01*
X181800Y142900D01*
X181400D01*
X181000Y143300D01*
X180600Y142900D01*
X180200D01*
X180600Y142500D01*
X180200Y142100D01*
X180600D01*
X181000Y141700D01*
X104000Y32700D02*
X104400Y33100D01*
X104800D01*
X104400Y33500D01*
X104800Y33900D01*
X104400D01*
X104000Y34300D01*
X103600Y33900D01*
X103200D01*
X103600Y33500D01*
X103200Y33100D01*
X103600D01*
X104000Y32700D01*
X36000Y119200D02*
X36400Y119600D01*
X36800D01*
X36400Y120000D01*
X36800Y120400D01*
X36400D01*
X36000Y120800D01*
X35600Y120400D01*
X35200D01*
X35600Y120000D01*
X35200Y119600D01*
X35600D01*
X36000Y119200D01*
X43500Y123200D02*
X43900Y123600D01*
X44300D01*
X43900Y124000D01*
X44300Y124400D01*
X43900D01*
X43500Y124800D01*
X43100Y124400D01*
X42700D01*
X43100Y124000D01*
X42700Y123600D01*
X43100D01*
X43500Y123200D01*
X102500Y140200D02*
X102900Y140600D01*
X103300D01*
X102900Y141000D01*
X103300Y141400D01*
X102900D01*
X102500Y141800D01*
X102100Y141400D01*
X101700D01*
X102100Y141000D01*
X101700Y140600D01*
X102100D01*
X102500Y140200D01*
X74000Y142200D02*
X74400Y142600D01*
X74800D01*
X74400Y143000D01*
X74800Y143400D01*
X74400D01*
X74000Y143800D01*
X73600Y143400D01*
X73200D01*
X73600Y143000D01*
X73200Y142600D01*
X73600D01*
X74000Y142200D01*
X31000Y102200D02*
X31400Y102600D01*
X31800D01*
X31400Y103000D01*
X31800Y103400D01*
X31400D01*
X31000Y103800D01*
X30600Y103400D01*
X30200D01*
X30600Y103000D01*
X30200Y102600D01*
X30600D01*
X31000Y102200D01*
X177000Y90200D02*
X177400Y90600D01*
X177800D01*
X177400Y91000D01*
X177800Y91400D01*
X177400D01*
X177000Y91800D01*
X176600Y91400D01*
X176200D01*
X176600Y91000D01*
X176200Y90600D01*
X176600D01*
X177000Y90200D01*
X182500Y78700D02*
X182900Y79100D01*
X183300D01*
X182900Y79500D01*
X183300Y79900D01*
X182900D01*
X182500Y80300D01*
X182100Y79900D01*
X181700D01*
X182100Y79500D01*
X181700Y79100D01*
X182100D01*
X182500Y78700D01*
X56500Y87200D02*
X56900Y87600D01*
X57300D01*
X56900Y88000D01*
X57300Y88400D01*
X56900D01*
X56500Y88800D01*
X56100Y88400D01*
X55700D01*
X56100Y88000D01*
X55700Y87600D01*
X56100D01*
X56500Y87200D01*
X30500Y97200D02*
X30900Y97600D01*
X31300D01*
X30900Y98000D01*
X31300Y98400D01*
X30900D01*
X30500Y98800D01*
X30100Y98400D01*
X29700D01*
X30100Y98000D01*
X29700Y97600D01*
X30100D01*
X30500Y97200D01*
X145500Y70200D02*
X145900Y70600D01*
X146300D01*
X145900Y71000D01*
X146300Y71400D01*
X145900D01*
X145500Y71800D01*
X145100Y71400D01*
X144700D01*
X145100Y71000D01*
X144700Y70600D01*
X145100D01*
X145500Y70200D01*
X162500D02*
X162900Y70600D01*
X163300D01*
X162900Y71000D01*
X163300Y71400D01*
X162900D01*
X162500Y71800D01*
X162100Y71400D01*
X161700D01*
X162100Y71000D01*
X161700Y70600D01*
X162100D01*
X162500Y70200D01*
X112000Y34200D02*
X112400Y34600D01*
X112800D01*
X112400Y35000D01*
X112800Y35400D01*
X112400D01*
X112000Y35800D01*
X111600Y35400D01*
X111200D01*
X111600Y35000D01*
X111200Y34600D01*
X111600D01*
X112000Y34200D01*
X72500Y59200D02*
X72900Y59600D01*
X73300D01*
X72900Y60000D01*
X73300Y60400D01*
X72900D01*
X72500Y60800D01*
X72100Y60400D01*
X71700D01*
X72100Y60000D01*
X71700Y59600D01*
X72100D01*
X72500Y59200D01*
X110500Y16700D02*
X110900Y17100D01*
X111300D01*
X110900Y17500D01*
X111300Y17900D01*
X110900D01*
X110500Y18300D01*
X110100Y17900D01*
X109700D01*
X110100Y17500D01*
X109700Y17100D01*
X110100D01*
X110500Y16700D01*
X106500D02*
X106900Y17100D01*
X107300D01*
X106900Y17500D01*
X107300Y17900D01*
X106900D01*
X106500Y18300D01*
X106100Y17900D01*
X105700D01*
X106100Y17500D01*
X105700Y17100D01*
X106100D01*
X106500Y16700D01*
X102500D02*
X102900Y17100D01*
X103300D01*
X102900Y17500D01*
X103300Y17900D01*
X102900D01*
X102500Y18300D01*
X102100Y17900D01*
X101700D01*
X102100Y17500D01*
X101700Y17100D01*
X102100D01*
X102500Y16700D01*
X98500Y12200D02*
X98900Y12600D01*
X99300D01*
X98900Y13000D01*
X99300Y13400D01*
X98900D01*
X98500Y13800D01*
X98100Y13400D01*
X97700D01*
X98100Y13000D01*
X97700Y12600D01*
X98100D01*
X98500Y12200D01*
X90500D02*
X90900Y12600D01*
X91300D01*
X90900Y13000D01*
X91300Y13400D01*
X90900D01*
X90500Y13800D01*
X90100Y13400D01*
X89700D01*
X90100Y13000D01*
X89700Y12600D01*
X90100D01*
X90500Y12200D01*
X106500D02*
X106900Y12600D01*
X107300D01*
X106900Y13000D01*
X107300Y13400D01*
X106900D01*
X106500Y13800D01*
X106100Y13400D01*
X105700D01*
X106100Y13000D01*
X105700Y12600D01*
X106100D01*
X106500Y12200D01*
X94500Y7700D02*
X94900Y8100D01*
X95300D01*
X94900Y8500D01*
X95300Y8900D01*
X94900D01*
X94500Y9300D01*
X94100Y8900D01*
X93700D01*
X94100Y8500D01*
X93700Y8100D01*
X94100D01*
X94500Y7700D01*
X102500D02*
X102900Y8100D01*
X103300D01*
X102900Y8500D01*
X103300Y8900D01*
X102900D01*
X102500Y9300D01*
X102100Y8900D01*
X101700D01*
X102100Y8500D01*
X101700Y8100D01*
X102100D01*
X102500Y7700D01*
X110500Y12200D02*
X110900Y12600D01*
X111300D01*
X110900Y13000D01*
X111300Y13400D01*
X110900D01*
X110500Y13800D01*
X110100Y13400D01*
X109700D01*
X110100Y13000D01*
X109700Y12600D01*
X110100D01*
X110500Y12200D01*
X82500D02*
X82900Y12600D01*
X83300D01*
X82900Y13000D01*
X83300Y13400D01*
X82900D01*
X82500Y13800D01*
X82100Y13400D01*
X81700D01*
X82100Y13000D01*
X81700Y12600D01*
X82100D01*
X82500Y12200D01*
X94500D02*
X94900Y12600D01*
X95300D01*
X94900Y13000D01*
X95300Y13400D01*
X94900D01*
X94500Y13800D01*
X94100Y13400D01*
X93700D01*
X94100Y13000D01*
X93700Y12600D01*
X94100D01*
X94500Y12200D01*
X82500Y7700D02*
X82900Y8100D01*
X83300D01*
X82900Y8500D01*
X83300Y8900D01*
X82900D01*
X82500Y9300D01*
X82100Y8900D01*
X81700D01*
X82100Y8500D01*
X81700Y8100D01*
X82100D01*
X82500Y7700D01*
X106500D02*
X106900Y8100D01*
X107300D01*
X106900Y8500D01*
X107300Y8900D01*
X106900D01*
X106500Y9300D01*
X106100Y8900D01*
X105700D01*
X106100Y8500D01*
X105700Y8100D01*
X106100D01*
X106500Y7700D01*
X86500D02*
X86900Y8100D01*
X87300D01*
X86900Y8500D01*
X87300Y8900D01*
X86900D01*
X86500Y9300D01*
X86100Y8900D01*
X85700D01*
X86100Y8500D01*
X85700Y8100D01*
X86100D01*
X86500Y7700D01*
X90500D02*
X90900Y8100D01*
X91300D01*
X90900Y8500D01*
X91300Y8900D01*
X90900D01*
X90500Y9300D01*
X90100Y8900D01*
X89700D01*
X90100Y8500D01*
X89700Y8100D01*
X90100D01*
X90500Y7700D01*
X110500D02*
X110900Y8100D01*
X111300D01*
X110900Y8500D01*
X111300Y8900D01*
X110900D01*
X110500Y9300D01*
X110100Y8900D01*
X109700D01*
X110100Y8500D01*
X109700Y8100D01*
X110100D01*
X110500Y7700D01*
X102500Y12200D02*
X102900Y12600D01*
X103300D01*
X102900Y13000D01*
X103300Y13400D01*
X102900D01*
X102500Y13800D01*
X102100Y13400D01*
X101700D01*
X102100Y13000D01*
X101700Y12600D01*
X102100D01*
X102500Y12200D01*
X98500Y7700D02*
X98900Y8100D01*
X99300D01*
X98900Y8500D01*
X99300Y8900D01*
X98900D01*
X98500Y9300D01*
X98100Y8900D01*
X97700D01*
X98100Y8500D01*
X97700Y8100D01*
X98100D01*
X98500Y7700D01*
X86500Y12200D02*
X86900Y12600D01*
X87300D01*
X86900Y13000D01*
X87300Y13400D01*
X86900D01*
X86500Y13800D01*
X86100Y13400D01*
X85700D01*
X86100Y13000D01*
X85700Y12600D01*
X86100D01*
X86500Y12200D01*
X49000Y33200D02*
X49400Y33600D01*
X49800D01*
X49400Y34000D01*
X49800Y34400D01*
X49400D01*
X49000Y34800D01*
X48600Y34400D01*
X48200D01*
X48600Y34000D01*
X48200Y33600D01*
X48600D01*
X49000Y33200D01*
X119000Y112200D02*
X119400Y112600D01*
X119800D01*
X119400Y113000D01*
X119800Y113400D01*
X119400D01*
X119000Y113800D01*
X118600Y113400D01*
X118200D01*
X118600Y113000D01*
X118200Y112600D01*
X118600D01*
X119000Y112200D01*
X112000Y111700D02*
X112400Y112100D01*
X112800D01*
X112400Y112500D01*
X112800Y112900D01*
X112400D01*
X112000Y113300D01*
X111600Y112900D01*
X111200D01*
X111600Y112500D01*
X111200Y112100D01*
X111600D01*
X112000Y111700D01*
X165000Y112700D02*
X165400Y113100D01*
X165800D01*
X165400Y113500D01*
X165800Y113900D01*
X165400D01*
X165000Y114300D01*
X164600Y113900D01*
X164200D01*
X164600Y113500D01*
X164200Y113100D01*
X164600D01*
X165000Y112700D01*
X157500Y123200D02*
X157900Y123600D01*
X158300D01*
X157900Y124000D01*
X158300Y124400D01*
X157900D01*
X157500Y124800D01*
X157100Y124400D01*
X156700D01*
X157100Y124000D01*
X156700Y123600D01*
X157100D01*
X157500Y123200D01*
X146000Y117700D02*
X146400Y118100D01*
X146800D01*
X146400Y118500D01*
X146800Y118900D01*
X146400D01*
X146000Y119300D01*
X145600Y118900D01*
X145200D01*
X145600Y118500D01*
X145200Y118100D01*
X145600D01*
X146000Y117700D01*
X119000Y142700D02*
X119400Y143100D01*
X119800D01*
X119400Y143500D01*
X119800Y143900D01*
X119400D01*
X119000Y144300D01*
X118600Y143900D01*
X118200D01*
X118600Y143500D01*
X118200Y143100D01*
X118600D01*
X119000Y142700D01*
X111000Y150200D02*
X111400Y150600D01*
X111800D01*
X111400Y151000D01*
X111800Y151400D01*
X111400D01*
X111000Y151800D01*
X110600Y151400D01*
X110200D01*
X110600Y151000D01*
X110200Y150600D01*
X110600D01*
X111000Y150200D01*
X62500Y147700D02*
X62900Y148100D01*
X63300D01*
X62900Y148500D01*
X63300Y148900D01*
X62900D01*
X62500Y149300D01*
X62100Y148900D01*
X61700D01*
X62100Y148500D01*
X61700Y148100D01*
X62100D01*
X62500Y147700D01*
X52000Y124200D02*
X52400Y124600D01*
X52800D01*
X52400Y125000D01*
X52800Y125400D01*
X52400D01*
X52000Y125800D01*
X51600Y125400D01*
X51200D01*
X51600Y125000D01*
X51200Y124600D01*
X51600D01*
X52000Y124200D01*
D67*
X9300Y88500D02*
X8747Y89261D01*
X7853Y88970D01*
Y88030D01*
X8747Y87739D01*
X9300Y88500D01*
X19300Y78500D02*
X18747Y79261D01*
X17853Y78970D01*
Y78030D01*
X18747Y77739D01*
X19300Y78500D01*
Y88500D02*
X18747Y89261D01*
X17853Y88970D01*
Y88030D01*
X18747Y87739D01*
X19300Y88500D01*
Y118500D02*
X18747Y119261D01*
X17853Y118970D01*
Y118030D01*
X18747Y117739D01*
X19300Y118500D01*
X9300Y108500D02*
X8747Y109261D01*
X7853Y108970D01*
Y108030D01*
X8747Y107739D01*
X9300Y108500D01*
Y98500D02*
X8747Y99261D01*
X7853Y98970D01*
Y98030D01*
X8747Y97739D01*
X9300Y98500D01*
Y78500D02*
X8747Y79261D01*
X7853Y78970D01*
Y78030D01*
X8747Y77739D01*
X9300Y78500D01*
X19300Y108500D02*
X18747Y109261D01*
X17853Y108970D01*
Y108030D01*
X18747Y107739D01*
X19300Y108500D01*
Y98500D02*
X18747Y99261D01*
X17853Y98970D01*
Y98030D01*
X18747Y97739D01*
X19300Y98500D01*
X9300Y118500D02*
X8747Y119261D01*
X7853Y118970D01*
Y118030D01*
X8747Y117739D01*
X9300Y118500D01*
M02*
