G04*
G04 #@! TF.GenerationSoftware,Altium Limited,Altium Designer,22.3.1 (43)*
G04*
G04 Layer_Color=8388736*
%FSLAX25Y25*%
%MOIN*%
G70*
G04*
G04 #@! TF.SameCoordinates,2454C8F7-4EAD-40B7-BFB8-64AA641CEC59*
G04*
G04*
G04 #@! TF.FilePolarity,Positive*
G04*
G01*
G75*
%ADD11C,0.01181*%
%ADD64C,0.00394*%
D11*
X26382Y78390D02*
X25791Y78980D01*
X25201Y78390D01*
X25791Y77799D01*
X26382Y78390D01*
D64*
X75262Y173325D02*
X74401Y173606D01*
X73500Y173701D01*
X72599Y173606D01*
X71737Y173325D01*
Y173325D02*
X71631Y173083D01*
X75369D02*
X75262Y173325D01*
X71631Y173083D02*
X72157Y172262D01*
X73012Y171794D01*
X73988D01*
X74843Y172262D01*
X75369Y173083D01*
X77831Y180197D02*
X77714Y181196D01*
X77370Y182141D01*
X76818Y182981D01*
X76086Y183671D01*
X75215Y184173D01*
X74252Y184462D01*
X73248Y184520D01*
X72258Y184346D01*
X71335Y183947D01*
X70528Y183347D01*
X69882Y182577D01*
X69430Y181678D01*
X69199Y180700D01*
Y179694D01*
X69430Y178716D01*
X69882Y177817D01*
X70528Y177047D01*
X71335Y176446D01*
X72258Y176048D01*
X73248Y175873D01*
X74252Y175932D01*
X75215Y176220D01*
X76086Y176723D01*
X76818Y177413D01*
X77370Y178253D01*
X77714Y179198D01*
X77831Y180197D01*
X97831D02*
X97714Y181196D01*
X97370Y182141D01*
X96817Y182981D01*
X96086Y183671D01*
X95215Y184173D01*
X94252Y184462D01*
X93248Y184520D01*
X92258Y184346D01*
X91335Y183947D01*
X90528Y183347D01*
X89882Y182577D01*
X89430Y181678D01*
X89199Y180700D01*
Y179694D01*
X89430Y178716D01*
X89882Y177817D01*
X90528Y177047D01*
X91335Y176446D01*
X92258Y176048D01*
X93248Y175873D01*
X94252Y175932D01*
X95215Y176220D01*
X96086Y176723D01*
X96817Y177413D01*
X97370Y178253D01*
X97714Y179198D01*
X97831Y180197D01*
X107831D02*
X107714Y181196D01*
X107370Y182141D01*
X106817Y182981D01*
X106086Y183671D01*
X105215Y184173D01*
X104252Y184462D01*
X103248Y184520D01*
X102258Y184346D01*
X101335Y183947D01*
X100528Y183347D01*
X99882Y182577D01*
X99430Y181678D01*
X99199Y180700D01*
Y179694D01*
X99430Y178716D01*
X99882Y177817D01*
X100528Y177047D01*
X101335Y176446D01*
X102258Y176048D01*
X103248Y175873D01*
X104252Y175932D01*
X105215Y176220D01*
X106086Y176723D01*
X106817Y177413D01*
X107370Y178253D01*
X107714Y179198D01*
X107831Y180197D01*
X117831D02*
X117714Y181196D01*
X117370Y182141D01*
X116817Y182981D01*
X116086Y183671D01*
X115215Y184173D01*
X114252Y184462D01*
X113248Y184520D01*
X112258Y184346D01*
X111335Y183947D01*
X110528Y183347D01*
X109882Y182577D01*
X109431Y181678D01*
X109199Y180700D01*
Y179694D01*
X109431Y178716D01*
X109882Y177817D01*
X110528Y177047D01*
X111335Y176446D01*
X112258Y176048D01*
X113248Y175873D01*
X114252Y175932D01*
X115215Y176220D01*
X116086Y176723D01*
X116817Y177413D01*
X117370Y178253D01*
X117714Y179198D01*
X117831Y180197D01*
X127831D02*
X127714Y181196D01*
X127370Y182141D01*
X126818Y182981D01*
X126086Y183671D01*
X125215Y184173D01*
X124252Y184462D01*
X123248Y184520D01*
X122258Y184346D01*
X121335Y183947D01*
X120528Y183347D01*
X119882Y182577D01*
X119430Y181678D01*
X119199Y180700D01*
Y179694D01*
X119430Y178716D01*
X119882Y177817D01*
X120528Y177047D01*
X121335Y176446D01*
X122258Y176048D01*
X123248Y175873D01*
X124252Y175932D01*
X125215Y176220D01*
X126086Y176723D01*
X126818Y177413D01*
X127370Y178253D01*
X127714Y179198D01*
X127831Y180197D01*
X87831D02*
X87714Y181196D01*
X87370Y182141D01*
X86818Y182981D01*
X86086Y183671D01*
X85215Y184173D01*
X84252Y184462D01*
X83248Y184520D01*
X82258Y184346D01*
X81335Y183947D01*
X80528Y183347D01*
X79882Y182577D01*
X79430Y181678D01*
X79199Y180700D01*
Y179694D01*
X79430Y178716D01*
X79882Y177817D01*
X80528Y177047D01*
X81335Y176446D01*
X82258Y176048D01*
X83248Y175873D01*
X84252Y175932D01*
X85215Y176220D01*
X86086Y176723D01*
X86818Y177413D01*
X87370Y178253D01*
X87714Y179198D01*
X87831Y180197D01*
X81631Y173083D02*
X82157Y172262D01*
X83012Y171794D01*
X83988D01*
X84843Y172262D01*
X85369Y173083D01*
X85263Y173325D01*
X81737D02*
X81631Y173083D01*
X85263Y173325D02*
X84401Y173606D01*
X83500Y173701D01*
X82599Y173606D01*
X81737Y173325D01*
X91631Y173083D02*
X92157Y172262D01*
X93012Y171794D01*
X93988D01*
X94843Y172262D01*
X95369Y173083D01*
X95262Y173325D01*
X91737D02*
X91631Y173083D01*
X95262Y173325D02*
X94401Y173606D01*
X93500Y173701D01*
X92599Y173606D01*
X91737Y173325D01*
X101631Y173083D02*
X102157Y172262D01*
X103012Y171794D01*
X103988D01*
X104843Y172262D01*
X105369Y173083D01*
X105262Y173325D01*
X101737D02*
X101631Y173083D01*
X105262Y173325D02*
X104401Y173606D01*
X103500Y173701D01*
X102599Y173606D01*
X101737Y173325D01*
X111631Y173083D02*
X112157Y172262D01*
X113012Y171794D01*
X113988D01*
X114843Y172262D01*
X115369Y173083D01*
X115369D02*
X115262Y173325D01*
X111737D02*
X111631Y173083D01*
X115263Y173325D02*
X114401Y173606D01*
X113500Y173701D01*
X112599Y173606D01*
X111737Y173325D01*
X121631Y173083D02*
X122157Y172262D01*
X123012Y171794D01*
X123988D01*
X124843Y172262D01*
X125369Y173083D01*
X125263Y173325D01*
X121737D02*
X121631Y173083D01*
X125263Y173325D02*
X124401Y173606D01*
X123500Y173701D01*
X122599Y173606D01*
X121737Y173325D01*
X125263Y173325D02*
X124401Y173606D01*
X123500Y173701D01*
X122599Y173606D01*
X121738Y173325D01*
X121738D02*
X121631Y173083D01*
X125369D02*
X125263Y173325D01*
X121631Y173083D02*
X122157Y172262D01*
X123012Y171794D01*
X123988D01*
X124843Y172262D01*
X125369Y173083D01*
X115263Y173325D02*
X114401Y173606D01*
X113500Y173701D01*
X112599Y173606D01*
X111738Y173325D01*
X111631Y173083D01*
X115369D02*
X115263Y173325D01*
X111631Y173083D02*
X112157Y172262D01*
X113012Y171794D01*
X113988D01*
X114843Y172262D01*
X115369Y173083D01*
X105263Y173325D02*
X104401Y173606D01*
X103500Y173701D01*
X102599Y173606D01*
X101737Y173325D01*
X101737D02*
X101631Y173083D01*
X105369D02*
X105263Y173325D01*
X101631Y173083D02*
X102157Y172262D01*
X103012Y171794D01*
X103988D01*
X104843Y172262D01*
X105369Y173083D01*
X95262Y173325D02*
X94401Y173606D01*
X93500Y173701D01*
X92599Y173606D01*
X91738Y173325D01*
X91631Y173083D01*
X95369D02*
X95262Y173325D01*
X91631Y173083D02*
X92157Y172262D01*
X93012Y171794D01*
X93988D01*
X94843Y172262D01*
X95369Y173083D01*
X85263Y173325D02*
X84401Y173606D01*
X83500Y173701D01*
X82599Y173606D01*
X81737Y173325D01*
X81738D02*
X81631Y173083D01*
X85369D02*
X85263Y173325D01*
X81631Y173083D02*
X82157Y172262D01*
X83012Y171794D01*
X83988D01*
X84843Y172262D01*
X85369Y173083D01*
X75262Y173325D02*
X74401Y173606D01*
X73500Y173701D01*
X72599Y173606D01*
X71737Y173325D01*
X71631Y173083D01*
X75369D02*
X75262Y173325D01*
X71631Y173083D02*
X72157Y172262D01*
X73012Y171794D01*
X73988D01*
X74843Y172262D01*
X75369Y173083D01*
X141870Y129555D02*
Y136445D01*
X138130Y129555D02*
X141870D01*
X138130D02*
Y136445D01*
X141870D01*
X130941Y127488D02*
X136059D01*
X130941D02*
Y138512D01*
X136059D01*
Y127488D02*
Y138512D01*
X162488Y115941D02*
X173512D01*
Y121059D01*
X162488D02*
X173512D01*
X162488Y115941D02*
Y121059D01*
X140988Y140441D02*
X152012D01*
Y145559D01*
X140988D02*
X152012D01*
X140988Y140441D02*
Y145559D01*
X153988Y140441D02*
X165012D01*
Y145559D01*
X153988D02*
X165012D01*
X153988Y140441D02*
Y145559D01*
X130130Y73055D02*
Y79945D01*
X133870D01*
Y73055D02*
Y79945D01*
X130130Y73055D02*
X133870D01*
X57055Y107630D02*
X63945D01*
X57055D02*
Y111370D01*
X63945D01*
Y107630D02*
Y111370D01*
X70055Y69630D02*
X76945D01*
X70055D02*
Y73370D01*
X76945D01*
Y69630D02*
Y73370D01*
X70055Y91130D02*
X76945D01*
X70055D02*
Y94870D01*
X76945D01*
Y91130D02*
Y94870D01*
X67988Y97441D02*
Y102559D01*
X79012D01*
Y97441D02*
Y102559D01*
X67988Y97441D02*
X79012D01*
X67988Y83941D02*
Y89059D01*
X79012D01*
Y83941D02*
Y89059D01*
X67988Y83941D02*
X79012D01*
X68630Y108555D02*
X72370D01*
Y115445D01*
X68630D02*
X72370D01*
X68630Y108555D02*
Y115445D01*
X129441Y83988D02*
X134559D01*
X129441D02*
Y95012D01*
X134559D01*
Y83988D02*
Y95012D01*
X162945Y147130D02*
Y150870D01*
X156055D02*
X162945D01*
X156055Y147130D02*
Y150870D01*
Y147130D02*
X162945D01*
X54988Y114941D02*
Y120059D01*
X66012D01*
Y114941D02*
Y120059D01*
X54988Y114941D02*
X66012D01*
X9750Y117250D02*
Y119750D01*
X9150Y117850D02*
X9750Y117250D01*
X7250D02*
X7850Y117850D01*
X7250Y117250D02*
Y119750D01*
X7850Y119150D01*
X9150D02*
X9750Y119750D01*
X9150Y117850D02*
Y119150D01*
X7850Y117850D02*
X9150D01*
X7850D02*
Y119150D01*
X9150D01*
X9750Y107250D02*
Y109750D01*
X9150Y107850D02*
X9750Y107250D01*
X7250D02*
X7850Y107850D01*
X7250Y107250D02*
Y109750D01*
X7850Y109150D01*
X9150D02*
X9750Y109750D01*
X9150Y107850D02*
Y109150D01*
X7850Y107850D02*
X9150D01*
X7850D02*
Y109150D01*
X9150D01*
X9750Y97250D02*
Y99750D01*
X9150Y97850D02*
X9750Y97250D01*
X7250D02*
X7850Y97850D01*
X7250Y97250D02*
Y99750D01*
X7850Y99150D01*
X9150D02*
X9750Y99750D01*
X9150Y97850D02*
Y99150D01*
X7850Y97850D02*
X9150D01*
X7850D02*
Y99150D01*
X9150D01*
X9750Y87250D02*
Y89750D01*
X9150Y87850D02*
X9750Y87250D01*
X7250D02*
X7850Y87850D01*
X7250Y87250D02*
Y89750D01*
X7850Y89150D01*
X9150D02*
X9750Y89750D01*
X9150Y87850D02*
Y89150D01*
X7850Y87850D02*
X9150D01*
X7850D02*
Y89150D01*
X9150D01*
X9750Y77250D02*
Y79750D01*
X9150Y77850D02*
X9750Y77250D01*
X7250D02*
X7850Y77850D01*
X7250Y77250D02*
Y79750D01*
X7850Y79150D01*
X9150D02*
X9750Y79750D01*
X9150Y77850D02*
Y79150D01*
X7850Y77850D02*
X9150D01*
X7850D02*
Y79150D01*
X9150D01*
X19750Y117250D02*
Y119750D01*
X19150Y117850D02*
X19750Y117250D01*
X17250D02*
X17850Y117850D01*
X17250Y119750D02*
X17850Y119150D01*
X19150D02*
X19750Y119750D01*
X19150Y117850D02*
Y119150D01*
X17850Y117850D02*
X19150D01*
X17850D02*
Y119150D01*
X19150D01*
X19750Y107250D02*
Y109750D01*
X19150Y107850D02*
X19750Y107250D01*
X17250D02*
X17850Y107850D01*
X17250Y107250D02*
Y109750D01*
X17850Y109150D01*
X19150D02*
X19750Y109750D01*
X19150Y107850D02*
Y109150D01*
X17850Y107850D02*
X19150D01*
X17850D02*
Y109150D01*
X19150D01*
X19750Y97250D02*
Y99750D01*
X19150Y97850D02*
X19750Y97250D01*
X17250D02*
X17850Y97850D01*
X17250Y97250D02*
Y99750D01*
X17850Y99150D01*
X19150D02*
X19750Y99750D01*
X19150Y97850D02*
Y99150D01*
X17850Y97850D02*
X19150D01*
X17850D02*
Y99150D01*
X19150D01*
X19750Y87250D02*
Y89750D01*
X19150Y87850D02*
X19750Y87250D01*
X17250D02*
X17850Y87850D01*
X17250Y89750D02*
X17850Y89150D01*
X19150D02*
X19750Y89750D01*
X19150Y87850D02*
Y89150D01*
X17850Y87850D02*
X19150D01*
X17850D02*
Y89150D01*
X19150D01*
X19750Y77250D02*
Y79750D01*
X19150Y77850D02*
X19750Y77250D01*
X17250D02*
X17850Y77850D01*
X17250Y77250D02*
Y79750D01*
X17850Y79150D01*
X19150D02*
X19750Y79750D01*
X19150Y77850D02*
Y79150D01*
X17850Y77850D02*
X19150D01*
X17850D02*
Y79150D01*
X19150D01*
X21531Y73500D02*
X23500Y75468D01*
X5469Y73500D02*
X21531D01*
X3500Y75468D02*
X5469Y73500D01*
X4484Y122516D02*
X5469Y123500D01*
X21531D01*
X22516Y122516D01*
X7240Y117240D02*
X9760D01*
Y119760D01*
X7240D02*
X9760D01*
X17240D02*
X19760D01*
X17240Y117240D02*
Y119760D01*
Y117240D02*
X19760D01*
Y119760D01*
X22516Y122516D02*
X23500Y121531D01*
Y115469D02*
Y121531D01*
X22516Y114484D02*
X23500Y115469D01*
X3500D02*
X4484Y114484D01*
X3500Y115469D02*
Y121531D01*
X4484Y122516D01*
X21531Y113500D02*
X22516Y114484D01*
X4484D02*
X5469Y113500D01*
X21531D02*
X22516Y112516D01*
X4484D02*
X5469Y113500D01*
X21531D01*
X7240Y107240D02*
X9760D01*
Y109760D01*
X7240D02*
X9760D01*
X17240D02*
X19760D01*
X17240Y107240D02*
X19760D01*
Y109760D01*
X22516Y112516D02*
X23500Y111531D01*
Y105468D02*
Y111531D01*
X3500Y105468D02*
Y111531D01*
X4484Y112516D01*
X21531Y103500D02*
X23500Y105468D01*
X3500D02*
X5469Y103500D01*
X21531D01*
X7240Y97240D02*
X9760D01*
Y99760D01*
X7240D02*
X9760D01*
X17240D02*
X19760D01*
X17240Y97240D02*
X19760D01*
Y99760D01*
X21531Y103500D02*
X23500Y101532D01*
Y95468D02*
Y101532D01*
X3500Y95468D02*
Y101532D01*
X5469Y103500D01*
X21531Y93500D02*
X23500Y95468D01*
X3500D02*
X5469Y93500D01*
X21531D01*
X7240Y87240D02*
X9760D01*
Y89760D01*
X7240D02*
X9760D01*
X17240D02*
X19760D01*
X17240Y87240D02*
Y89760D01*
Y87240D02*
X19760D01*
Y89760D01*
X21531Y93500D02*
X23500Y91531D01*
Y85469D02*
Y91531D01*
X3500Y85469D02*
Y91531D01*
X5469Y93500D01*
X21531Y83500D02*
X23500Y85469D01*
X3500D02*
X5469Y83500D01*
X21531D01*
X7240Y77240D02*
X9760D01*
Y79760D01*
X7240D02*
X9760D01*
X17240D02*
X19760D01*
X17240Y77240D02*
X19760D01*
Y79760D01*
X21531Y83500D02*
X23500Y81532D01*
Y75468D02*
Y81532D01*
X3500Y75468D02*
Y81532D01*
X5469Y83500D01*
X105850Y115925D02*
Y119075D01*
X112150D01*
Y115925D02*
Y119075D01*
X105850Y115925D02*
X112150D01*
X43055Y117630D02*
X49945D01*
X43055D02*
Y121370D01*
X49945D01*
Y117630D02*
Y121370D01*
X40988Y112059D02*
X52012D01*
X40988Y106941D02*
Y112059D01*
Y106941D02*
X52012D01*
Y112059D01*
X169055Y141130D02*
X175945D01*
X169055D02*
Y144870D01*
X175945D01*
Y141130D02*
Y144870D01*
X67988Y75441D02*
X79012D01*
Y80559D01*
X67988D02*
X79012D01*
X67988Y75441D02*
Y80559D01*
X151055Y116630D02*
X157945D01*
X151055D02*
Y120370D01*
X157945D01*
Y116630D02*
Y120370D01*
X108653Y32299D02*
X115347D01*
Y19701D02*
Y32299D01*
X108653Y19701D02*
X115347D01*
X108653D02*
Y32299D01*
X102425Y28650D02*
X105575D01*
Y22350D02*
Y28650D01*
X102425Y22350D02*
X105575D01*
X102425D02*
Y28650D01*
X72854Y46949D02*
Y53051D01*
X72461Y46949D02*
Y53051D01*
X72067Y46949D02*
Y53051D01*
X71673Y46949D02*
Y53051D01*
X71280Y46949D02*
Y53051D01*
X70886Y46949D02*
Y53051D01*
X70492Y46949D02*
Y53051D01*
X70098Y46949D02*
Y53051D01*
Y46949D02*
Y53051D01*
X80728D01*
Y46949D02*
Y53051D01*
X70098Y46949D02*
X80728D01*
X72555Y44370D02*
X79445D01*
Y40630D02*
Y44370D01*
X72555Y40630D02*
X79445D01*
X72555D02*
Y44370D01*
X56701Y16764D02*
X69299D01*
X73236Y20701D01*
Y33299D01*
X69299Y37236D02*
X73236Y33299D01*
X56701Y37236D02*
X69299D01*
X52764Y33299D02*
X56701Y37236D01*
X52764Y20701D02*
Y33299D01*
Y20701D02*
X56701Y16764D01*
X49248Y37327D02*
Y40673D01*
X42752Y37327D02*
X49248D01*
X42752D02*
Y40673D01*
X49248D01*
X45630Y60055D02*
Y66945D01*
X49370D01*
Y60055D02*
Y66945D01*
X45630Y60055D02*
X49370D01*
X57059Y57988D02*
Y69012D01*
X51941D02*
X57059D01*
X51941Y57988D02*
Y69012D01*
Y57988D02*
X57059D01*
X150555Y69130D02*
X157445D01*
X150555D02*
Y72870D01*
X157445D01*
Y69130D02*
Y72870D01*
X175130Y79055D02*
Y85945D01*
X178870D01*
Y79055D02*
Y85945D01*
X175130Y79055D02*
X178870D01*
X142559Y83988D02*
Y95012D01*
X137441D02*
X142559D01*
X137441Y83988D02*
Y95012D01*
Y83988D02*
X142559D01*
X120870Y117555D02*
Y124445D01*
X117130Y117555D02*
X120870D01*
X117130D02*
Y124445D01*
X120870D01*
X117130Y132055D02*
Y138945D01*
X120870D01*
Y132055D02*
Y138945D01*
X117130Y132055D02*
X120870D01*
X104850Y144425D02*
Y147575D01*
X111150D01*
Y144425D02*
Y147575D01*
X104850Y144425D02*
X111150D01*
X81441Y125488D02*
Y136512D01*
Y125488D02*
X86559D01*
Y136512D01*
X81441D02*
X86559D01*
X74059Y127988D02*
Y139012D01*
X68941D02*
X74059D01*
X68941Y127988D02*
Y139012D01*
Y127988D02*
X74059D01*
X62055Y141130D02*
X68945D01*
X62055D02*
Y144870D01*
X68945D01*
Y141130D02*
Y144870D01*
X29988Y140441D02*
X41012D01*
Y145559D01*
X29988D02*
X41012D01*
X29988Y140441D02*
Y145559D01*
X31130Y130055D02*
Y136945D01*
X34870D01*
Y130055D02*
Y136945D01*
X31130Y130055D02*
X34870D01*
X45988Y140441D02*
X57012D01*
Y145559D01*
X45988D02*
X57012D01*
X45988Y140441D02*
Y145559D01*
X46547Y103012D02*
X46941Y103405D01*
X46547Y102618D02*
X47335Y103405D01*
X46547Y102224D02*
X47728Y103405D01*
X46547Y101831D02*
X48122Y103405D01*
X46547Y101437D02*
X48516Y103405D01*
X46547Y101043D02*
X48909Y103405D01*
X46547Y100650D02*
X49303Y103405D01*
X46547Y100256D02*
X49697Y103405D01*
X46547Y99862D02*
X50091Y103405D01*
X46547Y99468D02*
X50484Y103405D01*
X46547Y91594D02*
Y103405D01*
X58358D01*
Y91594D02*
Y103405D01*
X46547Y91594D02*
X58358D01*
X34130Y94055D02*
Y100945D01*
X37870D01*
Y94055D02*
Y100945D01*
X34130Y94055D02*
X37870D01*
X32697Y107197D02*
Y111803D01*
Y107197D02*
X37303D01*
X32697Y111803D02*
X37303D01*
Y107197D02*
Y111803D01*
X119697Y19697D02*
Y24303D01*
Y19697D02*
X124303D01*
X119697Y24303D02*
X124303D01*
Y19697D02*
Y24303D01*
X25697Y46197D02*
Y50803D01*
Y46197D02*
X30303D01*
X25697Y50803D02*
X30303D01*
Y46197D02*
Y50803D01*
X50697Y170697D02*
Y175303D01*
Y170697D02*
X55303D01*
X50697Y175303D02*
X55303D01*
Y170697D02*
Y175303D01*
X82201Y37157D02*
X94799D01*
X78264Y33220D02*
X82201Y37157D01*
X78264Y20622D02*
Y33220D01*
Y20622D02*
X82201Y16685D01*
X94799D01*
X98736Y20622D01*
Y33220D01*
X94799Y37157D02*
X98736Y33220D01*
X70012Y57441D02*
Y62559D01*
X58988Y57441D02*
X70012D01*
X58988D02*
Y62559D01*
X70012D01*
X71214Y176519D02*
X77178Y182483D01*
X69822Y177911D02*
X75786Y183875D01*
X91214Y176519D02*
X97178Y182483D01*
X89822Y177911D02*
X95786Y183875D01*
X99822Y177911D02*
X105786Y183875D01*
X101214Y176519D02*
X107178Y182483D01*
X109822Y177911D02*
X115786Y183875D01*
X111214Y176519D02*
X117178Y182483D01*
X119822Y177911D02*
X125786Y183875D01*
X121214Y176519D02*
X127178Y182483D01*
X79822Y177911D02*
X85786Y183875D01*
X81214Y176519D02*
X87178Y182483D01*
X67594Y192205D02*
X129405D01*
X67594Y167795D02*
X129405D01*
X67594D02*
Y192205D01*
X129405Y167795D02*
Y192205D01*
X67594Y191024D02*
X129405D01*
X67594Y184802D02*
X129405D01*
X67594Y175543D02*
X129405D01*
X67594Y174420D02*
X129405D01*
X67594Y185943D02*
X129405D01*
X67594Y189295D02*
X129405D01*
M02*
