M48
;Layer_Color=9474304
;FILE_FORMAT=2:4
INCH,TZ
;TYPE=PLATED
T1F00S00C0.0118
T2F00S00C0.0394
T3F00S00C0.0433
T4F00S00C0.1378
%
T01
X3150Y787
X3937
X4724
X5512
X6299
X7087
X8250Y850
X8650
X9050
X9450
X9850
X10250
X10650
X11050
Y1300
X10650
X10250
X9850
X9450
X9050
X8650
X8250
X10250Y1750
X10650
X11050
X11200Y3500
X11024Y3937
X11811
X12598
X13386
X13780Y4724
X12992
X13386Y5512
X12598
X11811
X12205Y6299
X12992
X13780
X13800Y7350
X14550Y7100
X15354Y6299
Y4724
Y3150
Y1575
X14961Y787
X13386Y2362
X13780Y3150
X12992
X10400Y3350
X10236Y3937
X10630Y4724
X9843
X9055
X9449Y5512
X10236
X8661
X7874
X7250Y6000
X8268Y6299
X9055
X8200Y7150
Y9000
Y9750
X8400Y11350
X7650
X10587Y11237
X11200Y11250
X11900Y11300
Y12829
Y14350
X11100Y15100
X10250Y14100
X8400Y14000
X7400Y14300
X6250Y14850
X5200Y12500
X4350Y12400
X3600Y12000
X3100Y10300
X3050Y9800
X5450Y10200
X5650Y8800
X6500Y8900
X6299Y5512
X4900Y3400
X3543Y3150
Y1575
Y6299
X11417
X14600Y11850
X15750Y12400
X16500Y11350
X16900Y13800
X18100Y14250
X17700Y9100
X18250Y7950
X18504Y6299
X19291
X18898Y5512
X18110
X17323
X16535
X15748
X16142Y6299
X16929
X17717
Y4724
X18504
X19291
X18898Y3937
X18110
X17323
X16535
X15748
X16142Y4724
X16929
X16142Y3150
X15748Y2362
X16142Y1575
X16535Y787
X15748
X19291Y3150
X16250Y7100
T02
X850Y7850
Y8850
X1850
Y7850
Y9850
X850
Y10850
X1850
Y11850
X850
T03
X7350Y18000
X8350
X9350
X10350
X11350
X12350
T04
X1969Y1969
X17717
Y17717
X1969
M30
