G04*
G04 #@! TF.GenerationSoftware,Altium Limited,Altium Designer,22.3.1 (43)*
G04*
G04 Layer_Color=65535*
%FSLAX25Y25*%
%MOIN*%
G70*
G04*
G04 #@! TF.SameCoordinates,2454C8F7-4EAD-40B7-BFB8-64AA641CEC59*
G04*
G04*
G04 #@! TF.FilePolarity,Positive*
G04*
G01*
G75*
%ADD10C,0.00984*%
%ADD11C,0.01181*%
%ADD12C,0.01575*%
%ADD13C,0.00787*%
%ADD14C,0.01968*%
%ADD15C,0.00591*%
G36*
X110034Y102836D02*
X110772D01*
Y102652D01*
X111326D01*
Y102467D01*
X111879D01*
Y102283D01*
X112248D01*
Y102098D01*
X112617D01*
Y101913D01*
X112802D01*
Y101729D01*
X113171D01*
Y101545D01*
X113540D01*
Y101360D01*
X113908D01*
Y101176D01*
X114093D01*
Y100991D01*
X114462D01*
Y100807D01*
X114831D01*
Y100622D01*
X115200D01*
Y100438D01*
X115384D01*
Y100253D01*
X115753D01*
Y100069D01*
X116122D01*
Y99884D01*
X116307D01*
Y99700D01*
X116676D01*
Y99515D01*
X117045D01*
Y99331D01*
X117414D01*
Y99146D01*
X117598D01*
Y98962D01*
X117967D01*
Y98777D01*
X118336D01*
Y98593D01*
X118705D01*
Y98408D01*
X118889D01*
Y98224D01*
X119258D01*
Y98040D01*
X119627D01*
Y97855D01*
X119812D01*
Y97671D01*
X120181D01*
Y97486D01*
X120550D01*
Y97302D01*
X120919D01*
Y97117D01*
X121103D01*
Y96933D01*
X121472D01*
Y96748D01*
X121841D01*
Y96564D01*
X122210D01*
Y96379D01*
X122395D01*
Y96195D01*
X122763D01*
Y96010D01*
X123132D01*
Y95826D01*
X123317D01*
Y95641D01*
X123501D01*
Y95457D01*
X123870D01*
Y95272D01*
X124055D01*
Y95088D01*
X124239D01*
Y94903D01*
X124424D01*
Y94719D01*
X124608D01*
Y94534D01*
X124793D01*
Y94350D01*
X124977D01*
Y93981D01*
X125162D01*
Y93796D01*
X125346D01*
Y93612D01*
X125531D01*
Y93243D01*
X125715D01*
Y92874D01*
X125900D01*
Y92505D01*
X126084D01*
Y92136D01*
X126269D01*
Y91583D01*
X126453D01*
Y91029D01*
X126637D01*
Y89922D01*
X126822D01*
Y76455D01*
X126637D01*
Y75533D01*
X126453D01*
Y74795D01*
X126269D01*
Y74242D01*
X126084D01*
Y73873D01*
X125900D01*
Y73504D01*
X125715D01*
Y73135D01*
X125531D01*
Y72950D01*
X125346D01*
Y72581D01*
X125162D01*
Y72397D01*
X124977D01*
Y72212D01*
X124793D01*
Y71843D01*
X124608D01*
Y71659D01*
X124424D01*
Y71474D01*
X124239D01*
Y71290D01*
X124055D01*
Y71105D01*
X123686D01*
Y70921D01*
X123501D01*
Y70736D01*
X123317D01*
Y70552D01*
X122948D01*
Y70368D01*
X122763D01*
Y70183D01*
X122395D01*
Y69999D01*
X122026D01*
Y69814D01*
X121657D01*
Y69630D01*
X121472D01*
Y69445D01*
X121103D01*
Y69261D01*
X120734D01*
Y69076D01*
X120365D01*
Y68892D01*
X120181D01*
Y68707D01*
X119812D01*
Y68523D01*
X119443D01*
Y68338D01*
X119258D01*
Y68154D01*
X118889D01*
Y67969D01*
X118520D01*
Y67785D01*
X118151D01*
Y67600D01*
X117967D01*
Y67416D01*
X117598D01*
Y67231D01*
X117229D01*
Y67047D01*
X116860D01*
Y66862D01*
X116676D01*
Y66678D01*
X116307D01*
Y66493D01*
X115938D01*
Y66309D01*
X115753D01*
Y66125D01*
X115384D01*
Y65940D01*
X115015D01*
Y65756D01*
X114646D01*
Y65571D01*
X114462D01*
Y65387D01*
X114093D01*
Y65202D01*
X113724D01*
Y65018D01*
X113355D01*
Y64833D01*
X113171D01*
Y64649D01*
X112802D01*
Y64464D01*
X112433D01*
Y64280D01*
X112064D01*
Y64095D01*
X111695D01*
Y63911D01*
X111326D01*
Y63726D01*
X110588D01*
Y63542D01*
X109850D01*
Y63357D01*
X107083D01*
Y63542D01*
X106345D01*
Y63726D01*
X105607D01*
Y63911D01*
X105238D01*
Y64095D01*
X104869D01*
Y64280D01*
X104500D01*
Y64464D01*
X104131D01*
Y64649D01*
X103762D01*
Y64833D01*
X103578D01*
Y65018D01*
X103209D01*
Y65202D01*
X102840D01*
Y65387D01*
X102471D01*
Y65571D01*
X102286D01*
Y65756D01*
X101917D01*
Y65940D01*
X101548D01*
Y66125D01*
X101179D01*
Y66309D01*
X100995D01*
Y66493D01*
X100626D01*
Y66678D01*
X100257D01*
Y66862D01*
X100073D01*
Y67047D01*
X99704D01*
Y67231D01*
X99335D01*
Y67416D01*
X98966D01*
Y67600D01*
X98781D01*
Y67785D01*
X98412D01*
Y67969D01*
X98043D01*
Y68154D01*
X97674D01*
Y68338D01*
X97490D01*
Y68523D01*
X97121D01*
Y68707D01*
X96752D01*
Y68892D01*
X96567D01*
Y69076D01*
X96198D01*
Y69261D01*
X95829D01*
Y69445D01*
X95460D01*
Y69630D01*
X95276D01*
Y69814D01*
X94907D01*
Y69999D01*
X94538D01*
Y70183D01*
X94169D01*
Y70368D01*
X93985D01*
Y70552D01*
X93616D01*
Y70736D01*
X93431D01*
Y70921D01*
X93247D01*
Y71105D01*
X92878D01*
Y71290D01*
X92693D01*
Y71474D01*
X92509D01*
Y71659D01*
X92324D01*
Y71843D01*
X92140D01*
Y72212D01*
X91955D01*
Y72397D01*
X91771D01*
Y72581D01*
X91587D01*
Y72950D01*
X91402D01*
Y73135D01*
X91217D01*
Y73504D01*
X91033D01*
Y73873D01*
X90848D01*
Y74242D01*
X90664D01*
Y74795D01*
X90480D01*
Y75533D01*
X90295D01*
Y76455D01*
X90111D01*
Y89922D01*
X90295D01*
Y91029D01*
X90480D01*
Y91583D01*
X90664D01*
Y91767D01*
Y92136D01*
X90848D01*
Y92505D01*
X91033D01*
Y92874D01*
X91217D01*
Y93243D01*
X91402D01*
Y93612D01*
X91587D01*
Y93796D01*
X91771D01*
Y93981D01*
X91955D01*
Y94350D01*
X92140D01*
Y94534D01*
X92324D01*
Y94719D01*
X92509D01*
Y94903D01*
X92693D01*
Y95088D01*
X92878D01*
Y95272D01*
X93062D01*
Y95457D01*
X93431D01*
Y95641D01*
X93616D01*
Y95826D01*
X93800D01*
Y96010D01*
X94169D01*
Y96195D01*
X94538D01*
Y96379D01*
X94723D01*
Y96564D01*
X95091D01*
Y96748D01*
X95460D01*
Y96933D01*
X95829D01*
Y97117D01*
X96014D01*
Y97302D01*
X96383D01*
Y97486D01*
X96752D01*
Y97671D01*
X97121D01*
Y97855D01*
X97305D01*
Y98040D01*
X97674D01*
Y98224D01*
X98043D01*
Y98408D01*
X98228D01*
Y98593D01*
X98597D01*
Y98777D01*
X98966D01*
Y98962D01*
X99335D01*
Y99146D01*
X99519D01*
Y99331D01*
X99888D01*
Y99515D01*
X100257D01*
Y99700D01*
X100626D01*
Y99884D01*
X100810D01*
Y100069D01*
X101179D01*
Y100253D01*
X101548D01*
Y100438D01*
X101917D01*
Y100622D01*
X102102D01*
Y100807D01*
X102471D01*
Y100991D01*
X102840D01*
Y101176D01*
X103024D01*
Y101360D01*
X103393D01*
Y101545D01*
X103762D01*
Y101729D01*
X104131D01*
Y101913D01*
X104315D01*
Y102098D01*
X104684D01*
Y102283D01*
X105053D01*
Y102467D01*
X105607D01*
Y102652D01*
X106160D01*
Y102836D01*
X106898D01*
Y103020D01*
X110034D01*
Y102836D01*
D02*
G37*
%LPC*%
G36*
X109297Y100991D02*
X107636D01*
Y100807D01*
X106714D01*
Y100622D01*
X106160D01*
Y100438D01*
X105791D01*
Y100253D01*
X105422D01*
Y100069D01*
X105053D01*
Y99884D01*
X104869D01*
Y99700D01*
X104500D01*
Y99515D01*
X104131D01*
Y99331D01*
X103762D01*
Y99146D01*
X103578D01*
Y98962D01*
X103209D01*
Y98777D01*
X102840D01*
Y98593D01*
X102655D01*
Y98408D01*
X102286D01*
Y98224D01*
X101917D01*
Y98040D01*
X101548D01*
Y97855D01*
X101364D01*
Y97671D01*
X100995D01*
Y97486D01*
X100626D01*
Y97302D01*
X100257D01*
Y97117D01*
X100073D01*
Y96933D01*
X99704D01*
Y96748D01*
X99335D01*
Y96564D01*
X99150D01*
Y96379D01*
X98781D01*
Y96195D01*
X98412D01*
Y96010D01*
X98043D01*
Y95826D01*
X97859D01*
Y95641D01*
X97490D01*
Y95457D01*
X97121D01*
Y95272D01*
X96752D01*
Y95088D01*
X96567D01*
Y94903D01*
X96198D01*
Y94719D01*
X95829D01*
Y94534D01*
X95460D01*
Y94350D01*
X95276D01*
Y94165D01*
X94907D01*
Y93981D01*
X94723D01*
Y93796D01*
X94538D01*
Y93612D01*
X94169D01*
Y93427D01*
X93985D01*
Y93243D01*
X93800D01*
Y92874D01*
X93616D01*
Y92690D01*
X93431D01*
Y92505D01*
X93247D01*
Y92136D01*
X93062D01*
Y91767D01*
X92878D01*
Y91398D01*
X92693D01*
Y91029D01*
X92509D01*
Y90291D01*
X92324D01*
Y76086D01*
X92509D01*
Y75349D01*
X92693D01*
Y74980D01*
X92878D01*
Y74611D01*
X93062D01*
Y74242D01*
X93247D01*
Y73873D01*
X93431D01*
Y73688D01*
X93616D01*
Y73504D01*
X93800D01*
Y73319D01*
X93985D01*
Y73135D01*
X94169D01*
Y72950D01*
X94354D01*
Y72766D01*
X94538D01*
Y72581D01*
X94723D01*
Y72397D01*
X95091D01*
Y72212D01*
X95276D01*
Y72028D01*
X95645D01*
Y71843D01*
X96014D01*
Y71659D01*
X96198D01*
Y71474D01*
X96567D01*
Y71290D01*
X96936D01*
Y71105D01*
X97305D01*
Y70921D01*
X97490D01*
Y70736D01*
X97859D01*
Y70552D01*
X98228D01*
Y70368D01*
X98597D01*
Y70183D01*
X98781D01*
Y69999D01*
X99150D01*
Y69814D01*
X99519D01*
Y69630D01*
X99888D01*
Y69445D01*
X100073D01*
Y69261D01*
X100441D01*
Y69076D01*
X100810D01*
Y68892D01*
X100995D01*
Y68707D01*
X101364D01*
Y68523D01*
X101733D01*
Y68338D01*
X102102D01*
Y68154D01*
X102286D01*
Y67969D01*
X102655D01*
Y67785D01*
X103024D01*
Y67600D01*
X103393D01*
Y67416D01*
X103578D01*
Y67231D01*
X103947D01*
Y67047D01*
X104315D01*
Y66862D01*
X104500D01*
Y66678D01*
X104869D01*
Y66493D01*
X105238D01*
Y66309D01*
X105607D01*
Y66125D01*
X105976D01*
Y65940D01*
X106345D01*
Y65756D01*
X106898D01*
Y65571D01*
X108005D01*
Y65387D01*
X108928D01*
Y65571D01*
X110034D01*
Y65756D01*
X110588D01*
Y65940D01*
X110957D01*
Y66125D01*
X111326D01*
Y66309D01*
X111695D01*
Y66493D01*
X112064D01*
Y66678D01*
X112433D01*
Y66862D01*
X112617D01*
Y67047D01*
X112986D01*
Y67231D01*
X113355D01*
Y67416D01*
X113724D01*
Y67600D01*
X113908D01*
Y67785D01*
X114277D01*
Y67969D01*
X114646D01*
Y68154D01*
X114831D01*
Y68338D01*
X115200D01*
Y68523D01*
X115569D01*
Y68707D01*
X115938D01*
Y68892D01*
X116122D01*
Y69076D01*
X116491D01*
Y69261D01*
X116860D01*
Y69445D01*
X117229D01*
Y69630D01*
X117414D01*
Y69814D01*
X117782D01*
Y69999D01*
X118151D01*
Y70183D01*
X118336D01*
Y70368D01*
X118705D01*
Y70552D01*
X119074D01*
Y70736D01*
X119443D01*
Y70921D01*
X119627D01*
Y71105D01*
X119996D01*
Y71290D01*
X120365D01*
Y71474D01*
X120734D01*
Y71659D01*
X120919D01*
Y71843D01*
X121288D01*
Y72028D01*
X121657D01*
Y72212D01*
X121841D01*
Y72397D01*
X122210D01*
Y72581D01*
X122395D01*
Y72766D01*
X122579D01*
Y72950D01*
X122763D01*
Y73135D01*
X122948D01*
Y73319D01*
X123132D01*
Y73504D01*
X123317D01*
Y73688D01*
X123501D01*
Y73873D01*
X123686D01*
Y74242D01*
X123870D01*
Y74611D01*
X124055D01*
Y74980D01*
X124239D01*
Y75349D01*
X124424D01*
Y76086D01*
X124608D01*
Y81067D01*
Y81252D01*
Y90291D01*
X124424D01*
Y91029D01*
X124239D01*
Y91398D01*
X124055D01*
Y91952D01*
X123870D01*
Y92136D01*
X123686D01*
Y92505D01*
X123501D01*
Y92690D01*
X123317D01*
Y92874D01*
X123132D01*
Y93243D01*
X122948D01*
Y93427D01*
X122763D01*
Y93612D01*
X122395D01*
Y93796D01*
X122210D01*
Y93981D01*
X122026D01*
Y94165D01*
X121657D01*
Y94350D01*
X121472D01*
Y94534D01*
X121103D01*
Y94719D01*
X120734D01*
Y94903D01*
X120365D01*
Y95088D01*
X120181D01*
Y95272D01*
X119812D01*
Y95457D01*
X119443D01*
Y95641D01*
X119074D01*
Y95826D01*
X118889D01*
Y96010D01*
X118520D01*
Y96195D01*
X118151D01*
Y96379D01*
X117967D01*
Y96564D01*
X117598D01*
Y96748D01*
X117229D01*
Y96933D01*
X116860D01*
Y97117D01*
X116676D01*
Y97302D01*
X116307D01*
Y97486D01*
X115938D01*
Y97671D01*
X115569D01*
Y97855D01*
X115384D01*
Y98040D01*
X115015D01*
Y98224D01*
X114646D01*
Y98408D01*
X114277D01*
Y98593D01*
X114093D01*
Y98777D01*
X113724D01*
Y98962D01*
X113355D01*
Y99146D01*
X113171D01*
Y99331D01*
X112802D01*
Y99515D01*
X112433D01*
Y99700D01*
X112064D01*
Y99884D01*
X111879D01*
Y100069D01*
X111510D01*
Y100253D01*
X111141D01*
Y100438D01*
X110772D01*
Y100622D01*
X110219D01*
Y100807D01*
X109297D01*
Y100991D01*
D02*
G37*
%LPD*%
G36*
X108558Y98962D02*
X108743D01*
Y98408D01*
X108928D01*
Y97855D01*
X109112D01*
Y97302D01*
X109297D01*
Y96748D01*
X109481D01*
Y96379D01*
X109665D01*
Y95826D01*
X109850D01*
Y95272D01*
X110034D01*
Y94719D01*
X110219D01*
Y94165D01*
X110403D01*
Y93612D01*
X110588D01*
Y93059D01*
X110772D01*
Y92505D01*
X110957D01*
Y91952D01*
X111141D01*
Y91398D01*
X111326D01*
Y91029D01*
X111510D01*
Y91583D01*
X111695D01*
Y92874D01*
X111879D01*
Y93981D01*
X112064D01*
Y93059D01*
X112248D01*
Y91767D01*
X112433D01*
Y90660D01*
X112617D01*
Y89922D01*
X112986D01*
Y89738D01*
X113355D01*
Y89553D01*
X113724D01*
Y89369D01*
X114093D01*
Y89184D01*
X114277D01*
Y89000D01*
X114646D01*
Y89369D01*
X114831D01*
Y90476D01*
X115015D01*
Y91398D01*
X115200D01*
Y92136D01*
X115384D01*
Y91029D01*
X115569D01*
Y89922D01*
X115753D01*
Y89000D01*
X115938D01*
Y88078D01*
X116122D01*
Y87893D01*
X116307D01*
Y87709D01*
X116676D01*
Y87524D01*
X117045D01*
Y87340D01*
X117229D01*
Y87155D01*
X117598D01*
Y86971D01*
X117967D01*
Y86786D01*
X118336D01*
Y86602D01*
X118520D01*
Y86417D01*
X118889D01*
Y86233D01*
X119258D01*
Y86417D01*
X119443D01*
Y86971D01*
X119627D01*
Y87340D01*
X119812D01*
Y87893D01*
X119996D01*
Y88447D01*
X120181D01*
Y88815D01*
X120365D01*
Y89369D01*
X120550D01*
Y89922D01*
X120734D01*
Y89738D01*
X120919D01*
Y89184D01*
X121103D01*
Y88631D01*
X121288D01*
Y88262D01*
X121472D01*
Y87709D01*
X121657D01*
Y87155D01*
X121841D01*
Y86786D01*
X122026D01*
Y86233D01*
X122210D01*
Y85864D01*
X122395D01*
Y76455D01*
X122210D01*
Y75902D01*
X122026D01*
Y75349D01*
X121841D01*
Y74980D01*
X121657D01*
Y74795D01*
X121472D01*
Y74426D01*
X121288D01*
Y74242D01*
X121103D01*
Y74057D01*
X120919D01*
Y73873D01*
X120734D01*
Y73688D01*
X120550D01*
Y73504D01*
X120181D01*
Y73319D01*
X119996D01*
Y73135D01*
X119627D01*
Y72950D01*
X119443D01*
Y72766D01*
X119258D01*
Y84757D01*
X119074D01*
Y84941D01*
X118889D01*
Y85310D01*
X118705D01*
Y85495D01*
X118520D01*
Y85679D01*
X118151D01*
Y85864D01*
X117782D01*
Y86048D01*
X117598D01*
Y86233D01*
X117229D01*
Y86417D01*
X116860D01*
Y86602D01*
X116491D01*
Y86786D01*
X116307D01*
Y86971D01*
X115938D01*
Y87155D01*
X115569D01*
Y87340D01*
X115384D01*
Y87524D01*
X115015D01*
Y87709D01*
X114646D01*
Y87893D01*
X114277D01*
Y88078D01*
X114093D01*
Y88262D01*
X113724D01*
Y88447D01*
X113355D01*
Y88631D01*
X112986D01*
Y88815D01*
X112802D01*
Y89000D01*
X112433D01*
Y89184D01*
X112064D01*
Y88815D01*
X112248D01*
Y88262D01*
X112433D01*
Y87709D01*
X112617D01*
Y87155D01*
X112802D01*
Y86602D01*
X112986D01*
Y86233D01*
X113171D01*
Y85679D01*
X113355D01*
Y85126D01*
X113540D01*
Y84572D01*
X113724D01*
Y84019D01*
X113908D01*
Y83466D01*
X114093D01*
Y82912D01*
X114277D01*
Y82359D01*
X114462D01*
Y81805D01*
X114646D01*
Y81252D01*
X114831D01*
Y80883D01*
X115015D01*
Y80330D01*
X115200D01*
Y79776D01*
X115384D01*
Y79223D01*
X115569D01*
Y78669D01*
X115753D01*
Y78116D01*
X115938D01*
Y77562D01*
X116122D01*
Y77009D01*
X116307D01*
Y76455D01*
X116491D01*
Y75902D01*
X116676D01*
Y75349D01*
X116860D01*
Y74795D01*
X117045D01*
Y74426D01*
X117229D01*
Y73873D01*
X117414D01*
Y73319D01*
X117598D01*
Y72950D01*
X117414D01*
Y73319D01*
X117229D01*
Y73688D01*
X117045D01*
Y74057D01*
X116860D01*
Y74426D01*
X116676D01*
Y74795D01*
X116491D01*
Y74980D01*
X116307D01*
Y75349D01*
X116122D01*
Y75718D01*
X115938D01*
Y76086D01*
X115753D01*
Y76455D01*
X115569D01*
Y76824D01*
X115384D01*
Y77193D01*
X115200D01*
Y77378D01*
X115015D01*
Y77747D01*
X114831D01*
Y78116D01*
X114646D01*
Y78485D01*
X114462D01*
Y78854D01*
X114277D01*
Y79223D01*
X114093D01*
Y79592D01*
X113908D01*
Y79961D01*
X113724D01*
Y80145D01*
X113540D01*
Y80514D01*
X113355D01*
Y80883D01*
X113171D01*
Y81252D01*
X112986D01*
Y81621D01*
X112802D01*
Y81990D01*
X112617D01*
Y82359D01*
X112433D01*
Y82543D01*
X112248D01*
Y82912D01*
X112064D01*
Y83281D01*
X111879D01*
Y83650D01*
X111695D01*
Y84019D01*
X111510D01*
Y84388D01*
X111326D01*
Y84757D01*
X111141D01*
Y84941D01*
X110957D01*
Y85310D01*
X110772D01*
Y85679D01*
X110588D01*
Y86048D01*
X110403D01*
Y86417D01*
X110219D01*
Y86786D01*
X110034D01*
Y87155D01*
X109850D01*
Y87340D01*
X109665D01*
Y87709D01*
X109481D01*
Y88078D01*
X109297D01*
Y88447D01*
X109112D01*
Y88815D01*
X108928D01*
Y89184D01*
X108743D01*
Y89553D01*
X108558D01*
Y89738D01*
X108374D01*
Y89553D01*
X108190D01*
Y89184D01*
X108005D01*
Y88815D01*
X107821D01*
Y88447D01*
X107636D01*
Y88078D01*
X107452D01*
Y87709D01*
X107267D01*
Y87524D01*
X107083D01*
Y87155D01*
X106898D01*
Y86786D01*
X106714D01*
Y86417D01*
X106529D01*
Y86048D01*
X106345D01*
Y85679D01*
X106160D01*
Y85310D01*
X105976D01*
Y84941D01*
X105791D01*
Y84757D01*
X105607D01*
Y84388D01*
X105422D01*
Y84019D01*
X105238D01*
Y83650D01*
X105053D01*
Y83281D01*
X104869D01*
Y82912D01*
X104684D01*
Y82728D01*
X104500D01*
Y82359D01*
X104315D01*
Y81990D01*
X104131D01*
Y81621D01*
X103947D01*
Y81252D01*
X103762D01*
Y80883D01*
X103578D01*
Y80514D01*
X103393D01*
Y80145D01*
X103209D01*
Y79961D01*
X103024D01*
Y79592D01*
X102840D01*
Y79223D01*
X102655D01*
Y78854D01*
X102471D01*
Y78485D01*
X102286D01*
Y78116D01*
X102102D01*
Y77747D01*
X101917D01*
Y77562D01*
X101733D01*
Y77193D01*
X101548D01*
Y76824D01*
X101364D01*
Y76455D01*
X101179D01*
Y76086D01*
X100995D01*
Y75718D01*
X100810D01*
Y75349D01*
X100626D01*
Y75164D01*
X100441D01*
Y74795D01*
X100257D01*
Y74426D01*
X100073D01*
Y74057D01*
X99888D01*
Y73688D01*
X99704D01*
Y73319D01*
X99519D01*
Y73873D01*
X99704D01*
Y74426D01*
X99888D01*
Y74980D01*
X100073D01*
Y75533D01*
X100257D01*
Y75902D01*
X100441D01*
Y76455D01*
X100626D01*
Y77009D01*
X100810D01*
Y77562D01*
X100995D01*
Y78116D01*
X101179D01*
Y78669D01*
X101364D01*
Y79223D01*
X101548D01*
Y79776D01*
X101733D01*
Y80330D01*
X101917D01*
Y80883D01*
X102102D01*
Y81252D01*
X102286D01*
Y81805D01*
X102471D01*
Y82359D01*
X102655D01*
Y82912D01*
X102840D01*
Y83466D01*
X103024D01*
Y84019D01*
X103209D01*
Y84572D01*
X103393D01*
Y85126D01*
X103578D01*
Y85679D01*
X103762D01*
Y86233D01*
X103947D01*
Y86602D01*
X104131D01*
Y87155D01*
X104315D01*
Y87709D01*
X104500D01*
Y88262D01*
X104684D01*
Y88815D01*
X104869D01*
Y89184D01*
X104500D01*
Y89000D01*
X104131D01*
Y88815D01*
X103947D01*
Y88631D01*
X103578D01*
Y88447D01*
X103209D01*
Y88262D01*
X102840D01*
Y88078D01*
X102655D01*
Y87893D01*
X102286D01*
Y87709D01*
X101917D01*
Y87524D01*
X101733D01*
Y87340D01*
X101364D01*
Y87155D01*
X100995D01*
Y86971D01*
X100626D01*
Y86786D01*
X100441D01*
Y86602D01*
X100073D01*
Y86417D01*
X99704D01*
Y86233D01*
X99335D01*
Y86048D01*
X99150D01*
Y85864D01*
X98781D01*
Y85679D01*
X98412D01*
Y85495D01*
X98228D01*
Y85310D01*
X98043D01*
Y84941D01*
X97859D01*
Y84572D01*
X97674D01*
Y72766D01*
X97490D01*
Y72950D01*
X97305D01*
Y73135D01*
X96936D01*
Y73319D01*
X96752D01*
Y73504D01*
X96383D01*
Y73688D01*
X96198D01*
Y73873D01*
X96014D01*
Y74057D01*
X95829D01*
Y74242D01*
X95645D01*
Y74426D01*
X95460D01*
Y74795D01*
X95276D01*
Y75164D01*
X95091D01*
Y75349D01*
X94907D01*
Y75902D01*
X94723D01*
Y76455D01*
X94538D01*
Y85864D01*
X94723D01*
Y86417D01*
X94907D01*
Y86786D01*
X95091D01*
Y87340D01*
X95276D01*
Y87893D01*
X95460D01*
Y88447D01*
X95645D01*
Y88815D01*
X95829D01*
Y89369D01*
X96014D01*
Y89922D01*
X96198D01*
Y89738D01*
X96383D01*
Y89184D01*
X96567D01*
Y88815D01*
X96752D01*
Y88262D01*
X96936D01*
Y87709D01*
X97121D01*
Y87340D01*
X97305D01*
Y86786D01*
X97490D01*
Y86233D01*
X98043D01*
Y86417D01*
X98228D01*
Y86602D01*
X98597D01*
Y86786D01*
X98966D01*
Y86971D01*
X99335D01*
Y87155D01*
X99519D01*
Y87340D01*
X99888D01*
Y87524D01*
X100257D01*
Y87709D01*
X100441D01*
Y87893D01*
X100810D01*
Y88078D01*
X100995D01*
Y89000D01*
X101179D01*
Y89922D01*
X101364D01*
Y91029D01*
X101548D01*
Y91952D01*
X101733D01*
Y91583D01*
X101917D01*
Y90660D01*
X102102D01*
Y89553D01*
X102286D01*
Y89000D01*
X102471D01*
Y89184D01*
X102840D01*
Y89369D01*
X103209D01*
Y89553D01*
X103578D01*
Y89738D01*
X103947D01*
Y89922D01*
X104131D01*
Y90107D01*
X104315D01*
Y91029D01*
X104500D01*
Y92321D01*
X104684D01*
Y93612D01*
X105053D01*
Y92321D01*
X105238D01*
Y91214D01*
X105422D01*
Y91029D01*
X105607D01*
Y91583D01*
X105791D01*
Y92136D01*
X105976D01*
Y92505D01*
X106160D01*
Y93059D01*
X106345D01*
Y93612D01*
X106529D01*
Y94165D01*
X106714D01*
Y94719D01*
X106898D01*
Y95272D01*
X107083D01*
Y95826D01*
X107267D01*
Y96379D01*
X107452D01*
Y96933D01*
X107636D01*
Y97486D01*
X107821D01*
Y97855D01*
X108005D01*
Y98408D01*
X108190D01*
Y98962D01*
X108374D01*
Y99515D01*
X108558D01*
Y98962D01*
D02*
G37*
G36*
X99519Y73135D02*
Y72950D01*
X99335D01*
Y73319D01*
X99519D01*
Y73135D01*
D02*
G37*
G36*
X109665Y76086D02*
X110403D01*
Y75902D01*
X110957D01*
Y75718D01*
X111510D01*
Y75533D01*
X111879D01*
Y75349D01*
X112248D01*
Y75164D01*
X112433D01*
Y74980D01*
X112802D01*
Y74795D01*
X112986D01*
Y74611D01*
X113171D01*
Y74426D01*
X113540D01*
Y74242D01*
X113724D01*
Y74057D01*
X113908D01*
Y73873D01*
X114093D01*
Y73504D01*
X114277D01*
Y73319D01*
X114462D01*
Y73135D01*
X114646D01*
Y72766D01*
X114831D01*
Y72581D01*
X115015D01*
Y72212D01*
X115200D01*
Y71843D01*
X115384D01*
Y71659D01*
X115200D01*
Y71843D01*
X115015D01*
Y72028D01*
X114831D01*
Y72212D01*
X114646D01*
Y72397D01*
X114462D01*
Y72581D01*
X114277D01*
Y72766D01*
X113908D01*
Y72950D01*
X113724D01*
Y73135D01*
X113355D01*
Y73319D01*
X112986D01*
Y73504D01*
X112617D01*
Y73688D01*
X112248D01*
Y73873D01*
X111879D01*
Y74057D01*
X111326D01*
Y74242D01*
X110772D01*
Y74426D01*
X109850D01*
Y74611D01*
X107083D01*
Y74426D01*
X106160D01*
Y74242D01*
X105607D01*
Y74057D01*
X105053D01*
Y73873D01*
X104684D01*
Y73688D01*
X104131D01*
Y73504D01*
X103947D01*
Y73319D01*
X103578D01*
Y73135D01*
X103209D01*
Y72950D01*
X103024D01*
Y72766D01*
X102655D01*
Y72581D01*
X102471D01*
Y72397D01*
X102286D01*
Y72212D01*
X102102D01*
Y72028D01*
X101917D01*
Y71843D01*
X101733D01*
Y72212D01*
X101917D01*
Y72581D01*
X102102D01*
Y72766D01*
X102286D01*
Y73135D01*
X102471D01*
Y73319D01*
X102655D01*
Y73504D01*
X102840D01*
Y73873D01*
X103024D01*
Y74057D01*
X103209D01*
Y74242D01*
X103393D01*
Y74426D01*
X103762D01*
Y74611D01*
X103947D01*
Y74795D01*
X104131D01*
Y74980D01*
X104500D01*
Y75164D01*
X104684D01*
Y75349D01*
X105053D01*
Y75533D01*
X105422D01*
Y75718D01*
X105976D01*
Y75902D01*
X106529D01*
Y76086D01*
X107267D01*
Y76271D01*
X109665D01*
Y76086D01*
D02*
G37*
G36*
X101733Y71659D02*
X101548D01*
Y71843D01*
X101733D01*
Y71659D01*
D02*
G37*
D10*
X144771Y86839D02*
X144033Y87265D01*
Y86412D01*
X144771Y86839D01*
X144818Y134339D02*
X144080Y134765D01*
Y133912D01*
X144818Y134339D01*
X67835Y53543D02*
X67097Y53970D01*
Y53117D01*
X67835Y53543D01*
X56217Y42413D02*
X55478Y42840D01*
Y41987D01*
X56217Y42413D01*
X92740Y142299D02*
X92002Y142725D01*
Y141873D01*
X92740Y142299D01*
X38350Y135118D02*
X37612Y135544D01*
Y134692D01*
X38350Y135118D01*
X42315Y103996D02*
X41577Y104422D01*
Y103570D01*
X42315Y103996D01*
X46406Y153776D02*
X45667Y154202D01*
Y153349D01*
X46406Y153776D01*
D11*
X26382Y78390D02*
X25791Y78980D01*
X25201Y78390D01*
X25791Y77799D01*
X26382Y78390D01*
D12*
X101500Y138146D02*
X100956Y138894D01*
X100076Y138609D01*
Y137683D01*
X100956Y137397D01*
X101500Y138146D01*
D13*
X128146Y180197D02*
X128037Y181195D01*
X127716Y182148D01*
X127198Y183008D01*
X126507Y183738D01*
X125676Y184301D01*
X124743Y184673D01*
X123751Y184836D01*
X122748Y184781D01*
X121780Y184513D01*
X120892Y184042D01*
X120127Y183392D01*
X119519Y182592D01*
X119097Y181680D01*
X118881Y180699D01*
Y179694D01*
X119097Y178713D01*
X119519Y177801D01*
X120127Y177002D01*
X120892Y176351D01*
X121780Y175881D01*
X122748Y175612D01*
X123751Y175557D01*
X124743Y175720D01*
X125676Y176092D01*
X126507Y176656D01*
X127198Y177385D01*
X127716Y178246D01*
X128037Y179198D01*
X128146Y180197D01*
X118146D02*
X118037Y181195D01*
X117716Y182148D01*
X117198Y183008D01*
X116507Y183738D01*
X115676Y184301D01*
X114743Y184673D01*
X113751Y184836D01*
X112748Y184781D01*
X111780Y184513D01*
X110892Y184042D01*
X110127Y183392D01*
X109519Y182592D01*
X109097Y181680D01*
X108881Y180699D01*
Y179694D01*
X109097Y178713D01*
X109519Y177801D01*
X110127Y177002D01*
X110892Y176351D01*
X111780Y175881D01*
X112748Y175612D01*
X113751Y175557D01*
X114743Y175720D01*
X115676Y176092D01*
X116507Y176656D01*
X117198Y177385D01*
X117716Y178246D01*
X118037Y179198D01*
X118146Y180197D01*
X108146D02*
X108037Y181195D01*
X107716Y182148D01*
X107198Y183008D01*
X106507Y183738D01*
X105676Y184301D01*
X104743Y184673D01*
X103751Y184836D01*
X102748Y184781D01*
X101780Y184513D01*
X100892Y184042D01*
X100127Y183392D01*
X99519Y182592D01*
X99097Y181680D01*
X98881Y180699D01*
Y179694D01*
X99097Y178713D01*
X99519Y177801D01*
X100127Y177002D01*
X100892Y176351D01*
X101780Y175881D01*
X102748Y175612D01*
X103751Y175557D01*
X104743Y175720D01*
X105676Y176092D01*
X106507Y176656D01*
X107198Y177385D01*
X107716Y178246D01*
X108037Y179198D01*
X108146Y180197D01*
X98146D02*
X98037Y181195D01*
X97716Y182148D01*
X97198Y183008D01*
X96507Y183738D01*
X95676Y184301D01*
X94743Y184673D01*
X93751Y184836D01*
X92748Y184781D01*
X91780Y184513D01*
X90892Y184042D01*
X90127Y183392D01*
X89519Y182592D01*
X89097Y181680D01*
X88881Y180699D01*
Y179694D01*
X89097Y178713D01*
X89519Y177801D01*
X90127Y177002D01*
X90892Y176351D01*
X91780Y175881D01*
X92748Y175612D01*
X93751Y175557D01*
X94743Y175720D01*
X95676Y176092D01*
X96507Y176656D01*
X97198Y177385D01*
X97716Y178246D01*
X98037Y179198D01*
X98146Y180197D01*
X88146D02*
X88037Y181195D01*
X87716Y182148D01*
X87198Y183008D01*
X86507Y183738D01*
X85676Y184301D01*
X84743Y184673D01*
X83751Y184836D01*
X82748Y184781D01*
X81780Y184513D01*
X80892Y184042D01*
X80127Y183392D01*
X79519Y182592D01*
X79097Y181680D01*
X78881Y180699D01*
Y179694D01*
X79097Y178713D01*
X79519Y177801D01*
X80127Y177002D01*
X80892Y176351D01*
X81780Y175881D01*
X82748Y175612D01*
X83751Y175557D01*
X84743Y175720D01*
X85676Y176092D01*
X86507Y176656D01*
X87198Y177385D01*
X87716Y178246D01*
X88037Y179198D01*
X88146Y180197D01*
X78146D02*
X78037Y181195D01*
X77716Y182148D01*
X77198Y183008D01*
X76507Y183738D01*
X75676Y184301D01*
X74743Y184673D01*
X73751Y184836D01*
X72748Y184781D01*
X71780Y184513D01*
X70892Y184042D01*
X70127Y183392D01*
X69519Y182592D01*
X69097Y181680D01*
X68881Y180699D01*
Y179694D01*
X69097Y178713D01*
X69519Y177801D01*
X70127Y177002D01*
X70892Y176351D01*
X71780Y175881D01*
X72748Y175612D01*
X73751Y175557D01*
X74743Y175720D01*
X75676Y176092D01*
X76507Y176656D01*
X77198Y177385D01*
X77716Y178246D01*
X78037Y179198D01*
X78146Y180197D01*
X156116Y77095D02*
X162790D01*
X156116Y88906D02*
X162790D01*
X21531Y73500D02*
X23500Y75468D01*
X5469Y73500D02*
X21531D01*
X3500Y75468D02*
X5469Y73500D01*
X4484Y122516D02*
X5469Y123500D01*
X21531D01*
X22516Y122516D01*
X23500Y121531D01*
Y115469D02*
Y121531D01*
X22516Y114484D02*
X23500Y115469D01*
X3500D02*
X4484Y114484D01*
X3500Y115469D02*
Y121531D01*
X4484Y122516D01*
X21531Y113500D02*
X22516Y114484D01*
X4484D02*
X5469Y113500D01*
X21531D02*
X22516Y112516D01*
X4484D02*
X5469Y113500D01*
X21531D01*
X22516Y112516D02*
X23500Y111531D01*
Y105468D02*
Y111531D01*
X3500Y105468D02*
Y111531D01*
X4484Y112516D01*
X21531Y103500D02*
X23500Y105468D01*
X3500D02*
X5469Y103500D01*
X21531D01*
X23500Y101532D01*
Y95468D02*
Y101532D01*
X3500Y95468D02*
Y101532D01*
X5469Y103500D01*
X21531Y93500D02*
X23500Y95468D01*
X3500D02*
X5469Y93500D01*
X21531D01*
X23500Y91531D01*
Y85469D02*
Y91531D01*
X3500Y85469D02*
Y91531D01*
X5469Y93500D01*
X21531Y83500D02*
X23500Y85469D01*
X3500D02*
X5469Y83500D01*
X21531D01*
X23500Y81532D01*
Y75468D02*
Y81532D01*
X3500Y75468D02*
Y81532D01*
X5469Y83500D01*
X3500Y140000D02*
X28000D01*
X3500Y132500D02*
X28000D01*
X3500Y147500D02*
X28000D01*
X3500Y155000D02*
X28000D01*
X3500Y125000D02*
X28000D01*
Y162000D01*
X3500D02*
X28000D01*
X3500Y125000D02*
Y162000D01*
X156163Y136406D02*
X162837D01*
X156163Y124594D02*
X162837D01*
X109736Y26000D02*
X114264D01*
X73051Y46850D02*
Y53150D01*
X72264Y46850D02*
Y53150D01*
X71476Y46850D02*
Y53150D01*
X70098Y46850D02*
X80728D01*
X70098Y53150D02*
X80728D01*
X73236Y25622D02*
Y28378D01*
X52764Y25622D02*
Y28378D01*
X49622Y43595D02*
X52378D01*
X49622Y55405D02*
X52378D01*
Y43595D02*
Y55405D01*
X49622Y43595D02*
Y55405D01*
X97563Y121610D02*
X105437D01*
X97563Y141295D02*
X105437D01*
Y121610D02*
Y141295D01*
X97563Y121610D02*
Y141295D01*
X49695Y137185D02*
X56369D01*
X49695Y125374D02*
X56369D01*
X48024Y99468D02*
X51961Y103405D01*
X48024Y100256D02*
X51173Y103405D01*
X48024Y101043D02*
X50386Y103405D01*
X48024Y101831D02*
X49598Y103405D01*
X48024Y102618D02*
X48811Y103405D01*
X48024Y91594D02*
Y103405D01*
X56882D01*
Y91594D02*
Y103405D01*
X48024Y91594D02*
X56882D01*
X31319Y105819D02*
Y113181D01*
Y105819D02*
X38681D01*
Y113181D01*
X31319D02*
X38681D01*
X118319Y18319D02*
Y25681D01*
Y18319D02*
X125681D01*
Y25681D01*
X118319D02*
X125681D01*
X24319Y44819D02*
Y52181D01*
Y44819D02*
X31681D01*
Y52181D01*
X24319D02*
X31681D01*
X49319Y169319D02*
Y176681D01*
Y169319D02*
X56681D01*
Y176681D01*
X49319D02*
X56681D01*
X47095Y158106D02*
Y161256D01*
X50244D01*
X58906Y158106D02*
Y161256D01*
X55756D02*
X58906D01*
X78264Y25543D02*
Y28299D01*
X98736Y25543D02*
Y28299D01*
X73500Y193500D02*
Y195000D01*
X113500Y193500D02*
Y195000D01*
X123500Y193500D02*
Y195000D01*
X103500Y193500D02*
Y195000D01*
X93500Y193500D02*
Y195000D01*
X83500Y193500D02*
Y195000D01*
X67594Y192205D02*
X129405D01*
X67594Y167795D02*
X129405D01*
X67594D02*
Y192205D01*
X129405Y167795D02*
Y192205D01*
X67594Y191024D02*
X129405D01*
X67594Y184802D02*
X129405D01*
X67594Y175543D02*
X129405D01*
X67594Y174420D02*
X129405D01*
X67594Y185943D02*
X129405D01*
X67594Y189295D02*
X129405D01*
X135624Y170436D02*
X133000D01*
Y166500D01*
X135624D01*
X133000Y168468D02*
X134312D01*
X136936Y166500D02*
Y170436D01*
X138904D01*
X139560Y169780D01*
Y168468D01*
X138904Y167812D01*
X136936D01*
X143495Y169780D02*
X142839Y170436D01*
X141527D01*
X140872Y169780D01*
Y169124D01*
X141527Y168468D01*
X142839D01*
X143495Y167812D01*
Y167156D01*
X142839Y166500D01*
X141527D01*
X140872Y167156D01*
X148743Y170436D02*
X151367D01*
X150055D01*
Y166500D01*
X154647D02*
X153335D01*
X152679Y167156D01*
Y168468D01*
X153335Y169124D01*
X154647D01*
X155303Y168468D01*
Y167812D01*
X152679D01*
X157270Y169124D02*
X158582D01*
X159238Y168468D01*
Y166500D01*
X157270D01*
X156614Y167156D01*
X157270Y167812D01*
X159238D01*
X160550Y166500D02*
Y169124D01*
X161206D01*
X161862Y168468D01*
Y166500D01*
Y168468D01*
X162518Y169124D01*
X163174Y168468D01*
Y166500D01*
X137624Y176780D02*
X136968Y177436D01*
X135656D01*
X135000Y176780D01*
Y174156D01*
X135656Y173500D01*
X136968D01*
X137624Y174156D01*
X138936Y176124D02*
Y174156D01*
X139592Y173500D01*
X141560D01*
Y176124D01*
X142871Y177436D02*
Y173500D01*
X144839D01*
X145495Y174156D01*
Y174812D01*
Y175468D01*
X144839Y176124D01*
X142871D01*
X148775Y173500D02*
X147463D01*
X146807Y174156D01*
Y175468D01*
X147463Y176124D01*
X148775D01*
X149431Y175468D01*
Y174812D01*
X146807D01*
X153367Y176780D02*
X152711Y177436D01*
X151399D01*
X150743Y176780D01*
Y176124D01*
X151399Y175468D01*
X152711D01*
X153367Y174812D01*
Y174156D01*
X152711Y173500D01*
X151399D01*
X150743Y174156D01*
X155335Y176124D02*
X156647D01*
X157302Y175468D01*
Y173500D01*
X155335D01*
X154679Y174156D01*
X155335Y174812D01*
X157302D01*
X159270Y176780D02*
Y176124D01*
X158614D01*
X159926D01*
X159270D01*
Y174156D01*
X159926Y173500D01*
X132500Y186500D02*
Y190436D01*
X134468D01*
X135124Y189780D01*
Y188468D01*
X134468Y187812D01*
X132500D01*
X137092Y186500D02*
X138404D01*
X139060Y187156D01*
Y188468D01*
X138404Y189124D01*
X137092D01*
X136436Y188468D01*
Y187156D01*
X137092Y186500D01*
X140372D02*
X141683D01*
X141027D01*
Y190436D01*
X140372D01*
X143651Y186500D02*
X144963D01*
X144307D01*
Y189124D01*
X143651D01*
X149555Y189780D02*
X148899Y190436D01*
X147587D01*
X146931Y189780D01*
Y189124D01*
X147587Y188468D01*
X148899D01*
X149555Y187812D01*
Y187156D01*
X148899Y186500D01*
X147587D01*
X146931Y187156D01*
X150867Y185188D02*
Y189124D01*
X152835D01*
X153491Y188468D01*
Y187156D01*
X152835Y186500D01*
X150867D01*
X155458Y189124D02*
X156770D01*
X157426Y188468D01*
Y186500D01*
X155458D01*
X154803Y187156D01*
X155458Y187812D01*
X157426D01*
X161362Y189124D02*
X159394D01*
X158738Y188468D01*
Y187156D01*
X159394Y186500D01*
X161362D01*
X164642D02*
X163330D01*
X162674Y187156D01*
Y188468D01*
X163330Y189124D01*
X164642D01*
X165298Y188468D01*
Y187812D01*
X162674D01*
X146624Y183436D02*
X145312Y182780D01*
X144000Y181468D01*
Y180156D01*
X144656Y179500D01*
X145968D01*
X146624Y180156D01*
Y180812D01*
X145968Y181468D01*
X144000D01*
X150560Y182780D02*
X149904Y183436D01*
X148592D01*
X147936Y182780D01*
Y182124D01*
X148592Y181468D01*
X149904D01*
X150560Y180812D01*
Y180156D01*
X149904Y179500D01*
X148592D01*
X147936Y180156D01*
X189277Y84911D02*
Y83599D01*
Y84255D01*
X192557D01*
X193213Y83599D01*
Y82943D01*
X192557Y82287D01*
X189277Y86223D02*
X193213D01*
Y88847D01*
X189933Y92783D02*
X189277Y92127D01*
Y90815D01*
X189933Y90159D01*
X192557D01*
X193213Y90815D01*
Y92127D01*
X192557Y92783D01*
X189277Y96718D02*
Y95407D01*
Y96062D01*
X192557D01*
X193213Y95407D01*
Y94751D01*
X192557Y94095D01*
X189277Y98030D02*
X193213D01*
Y100654D01*
X189933Y104590D02*
X189277Y103934D01*
Y102622D01*
X189933Y101966D01*
X192557D01*
X193213Y102622D01*
Y103934D01*
X192557Y104590D01*
X189277Y108526D02*
Y107214D01*
Y107870D01*
X192557D01*
X193213Y107214D01*
Y106558D01*
X192557Y105902D01*
X189277Y109838D02*
X193213D01*
Y112461D01*
X189933Y116397D02*
X189277Y115741D01*
Y114429D01*
X189933Y113773D01*
X192557D01*
X193213Y114429D01*
Y115741D01*
X192557Y116397D01*
X189277Y120333D02*
Y119021D01*
Y119677D01*
X192557D01*
X193213Y119021D01*
Y118365D01*
X192557Y117709D01*
X189277Y121645D02*
X193213D01*
Y124269D01*
X189933Y128204D02*
X189277Y127548D01*
Y126236D01*
X189933Y125581D01*
X192557D01*
X193213Y126236D01*
Y127548D01*
X192557Y128204D01*
X16834Y69437D02*
X16609Y69887D01*
X15934Y70562D01*
X20658D01*
X111933Y153911D02*
X111277Y153255D01*
Y151943D01*
X111933Y151287D01*
X112589D01*
X113245Y151943D01*
Y153255D01*
X113901Y153911D01*
X114557D01*
X115213Y153255D01*
Y151943D01*
X114557Y151287D01*
X115213Y155223D02*
X111277D01*
Y157191D01*
X111933Y157847D01*
X113245D01*
X113901Y157191D01*
Y155223D01*
X111933Y159159D02*
X111277Y159815D01*
Y161127D01*
X111933Y161783D01*
X112589D01*
X113245Y161127D01*
Y160471D01*
Y161127D01*
X113901Y161783D01*
X114557D01*
X115213Y161127D01*
Y159815D01*
X114557Y159159D01*
X113245Y163095D02*
Y165718D01*
X92433Y153911D02*
X91777Y153255D01*
Y151943D01*
X92433Y151287D01*
X93089D01*
X93745Y151943D01*
Y153255D01*
X94401Y153911D01*
X95057D01*
X95713Y153255D01*
Y151943D01*
X95057Y151287D01*
X95713Y155223D02*
X91777D01*
Y157191D01*
X92433Y157847D01*
X93745D01*
X94401Y157191D01*
Y155223D01*
X95713Y161783D02*
Y159159D01*
X93089Y161783D01*
X92433D01*
X91777Y161127D01*
Y159815D01*
X92433Y159159D01*
X93745Y163095D02*
Y165718D01*
X72433Y154411D02*
X71777Y153755D01*
Y152443D01*
X72433Y151787D01*
X73089D01*
X73745Y152443D01*
Y153755D01*
X74401Y154411D01*
X75057D01*
X75713Y153755D01*
Y152443D01*
X75057Y151787D01*
X75713Y155723D02*
X71777D01*
Y157691D01*
X72433Y158347D01*
X73745D01*
X74401Y157691D01*
Y155723D01*
X75713Y159659D02*
Y160971D01*
Y160315D01*
X71777D01*
X72433Y159659D01*
X73745Y162939D02*
Y165562D01*
X121933Y153911D02*
X121277Y153255D01*
Y151943D01*
X121933Y151287D01*
X122589D01*
X123245Y151943D01*
Y153255D01*
X123901Y153911D01*
X124557D01*
X125213Y153255D01*
Y151943D01*
X124557Y151287D01*
X125213Y155223D02*
X121277D01*
Y157191D01*
X121933Y157847D01*
X123245D01*
X123901Y157191D01*
Y155223D01*
X121933Y159159D02*
X121277Y159815D01*
Y161127D01*
X121933Y161783D01*
X122589D01*
X123245Y161127D01*
Y160471D01*
Y161127D01*
X123901Y161783D01*
X124557D01*
X125213Y161127D01*
Y159815D01*
X124557Y159159D01*
X123245Y163095D02*
Y165718D01*
X121933Y164407D02*
X124557D01*
X101933Y153911D02*
X101277Y153255D01*
Y151943D01*
X101933Y151287D01*
X102589D01*
X103245Y151943D01*
Y153255D01*
X103901Y153911D01*
X104557D01*
X105213Y153255D01*
Y151943D01*
X104557Y151287D01*
X105213Y155223D02*
X101277D01*
Y157191D01*
X101933Y157847D01*
X103245D01*
X103901Y157191D01*
Y155223D01*
X105213Y161783D02*
Y159159D01*
X102589Y161783D01*
X101933D01*
X101277Y161127D01*
Y159815D01*
X101933Y159159D01*
X103245Y163095D02*
Y165718D01*
X101933Y164407D02*
X104557D01*
X81933Y154411D02*
X81277Y153755D01*
Y152443D01*
X81933Y151787D01*
X82589D01*
X83245Y152443D01*
Y153755D01*
X83901Y154411D01*
X84557D01*
X85213Y153755D01*
Y152443D01*
X84557Y151787D01*
X85213Y155723D02*
X81277D01*
Y157691D01*
X81933Y158347D01*
X83245D01*
X83901Y157691D01*
Y155723D01*
X85213Y159659D02*
Y160971D01*
Y160315D01*
X81277D01*
X81933Y159659D01*
X83245Y162939D02*
Y165562D01*
X81933Y164251D02*
X84557D01*
X135968Y140580D02*
X132032D01*
Y142548D01*
X132688Y143204D01*
X134000D01*
X134656Y142548D01*
Y140580D01*
Y141892D02*
X135968Y143204D01*
Y144516D02*
Y145828D01*
Y145172D01*
X132032D01*
X132688Y144516D01*
X132032Y147796D02*
Y150420D01*
X132688D01*
X135312Y147796D01*
X135968D01*
X174580Y116532D02*
Y120468D01*
X176548D01*
X177204Y119812D01*
Y118500D01*
X176548Y117844D01*
X174580D01*
X175892D02*
X177204Y116532D01*
X178516D02*
X179828D01*
X179172D01*
Y120468D01*
X178516Y119812D01*
X184420Y120468D02*
X183108Y119812D01*
X181796Y118500D01*
Y117188D01*
X182452Y116532D01*
X183764D01*
X184420Y117188D01*
Y117844D01*
X183764Y118500D01*
X181796D01*
X141580Y147532D02*
Y151468D01*
X143548D01*
X144204Y150812D01*
Y149500D01*
X143548Y148844D01*
X141580D01*
X142892D02*
X144204Y147532D01*
X145516D02*
X146828D01*
X146172D01*
Y151468D01*
X145516Y150812D01*
X151420Y151468D02*
X148796D01*
Y149500D01*
X150108Y150156D01*
X150764D01*
X151420Y149500D01*
Y148188D01*
X150764Y147532D01*
X149452D01*
X148796Y148188D01*
X154080Y153532D02*
Y157468D01*
X156048D01*
X156704Y156812D01*
Y155500D01*
X156048Y154844D01*
X154080D01*
X155392D02*
X156704Y153532D01*
X158016D02*
X159328D01*
X158672D01*
Y157468D01*
X158016Y156812D01*
X163264Y153532D02*
Y157468D01*
X161296Y155500D01*
X163920D01*
X110688Y36532D02*
X110032Y35876D01*
Y34564D01*
X110688Y33908D01*
X113312D01*
X113968Y34564D01*
Y35876D01*
X113312Y36532D01*
X113968Y40468D02*
Y37844D01*
X111344Y40468D01*
X110688D01*
X110032Y39812D01*
Y38500D01*
X110688Y37844D01*
X113968Y41780D02*
Y43092D01*
Y42436D01*
X110032D01*
X110688Y41780D01*
X94720Y147468D02*
Y144188D01*
X95376Y143532D01*
X96688D01*
X97344Y144188D01*
Y147468D01*
X101280D02*
X99968Y146812D01*
X98656Y145500D01*
Y144188D01*
X99312Y143532D01*
X100624D01*
X101280Y144188D01*
Y144844D01*
X100624Y145500D01*
X98656D01*
X173720Y129468D02*
Y126188D01*
X174376Y125532D01*
X175688D01*
X176344Y126188D01*
Y129468D01*
X180280D02*
X177656D01*
Y127500D01*
X178968Y128156D01*
X179624D01*
X180280Y127500D01*
Y126188D01*
X179624Y125532D01*
X178312D01*
X177656Y126188D01*
X48720Y89468D02*
Y86188D01*
X49376Y85532D01*
X50688D01*
X51344Y86188D01*
Y89468D01*
X54624Y85532D02*
Y89468D01*
X52656Y87500D01*
X55280D01*
X58720Y124968D02*
Y121688D01*
X59376Y121032D01*
X60688D01*
X61344Y121688D01*
Y124968D01*
X62656Y124312D02*
X63312Y124968D01*
X64624D01*
X65280Y124312D01*
Y123656D01*
X64624Y123000D01*
X63968D01*
X64624D01*
X65280Y122344D01*
Y121688D01*
X64624Y121032D01*
X63312D01*
X62656Y121688D01*
X156220Y94968D02*
Y91688D01*
X156876Y91032D01*
X158188D01*
X158844Y91688D01*
Y94968D01*
X162780Y91032D02*
X160156D01*
X162780Y93656D01*
Y94312D01*
X162124Y94968D01*
X160812D01*
X160156Y94312D01*
X38532Y46876D02*
X41812D01*
X42468Y47532D01*
Y48844D01*
X41812Y49500D01*
X38532D01*
X42468Y50812D02*
Y52124D01*
Y51468D01*
X38532D01*
X39188Y50812D01*
X25532Y104580D02*
X28156D01*
X29468Y105892D01*
X28156Y107204D01*
X25532D01*
Y108516D02*
Y109828D01*
Y109172D01*
X29468D01*
Y108516D01*
Y109828D01*
Y111796D02*
X25532D01*
X29468Y114420D01*
X25532D01*
X45768Y182640D02*
X45112Y183296D01*
X43801D01*
X43145Y182640D01*
Y180016D01*
X43801Y179360D01*
X45112D01*
X45768Y180016D01*
X47080Y183296D02*
Y179360D01*
Y181328D01*
X49704D01*
Y183296D01*
Y179360D01*
X51016D02*
X52328D01*
X51672D01*
Y183296D01*
X51016Y182640D01*
X54296Y178704D02*
X56920D01*
X58232Y183296D02*
Y180672D01*
X59544Y179360D01*
X60855Y180672D01*
Y183296D01*
X11252Y49812D02*
X11908Y50468D01*
X13220D01*
X13876Y49812D01*
Y49156D01*
X13220Y48500D01*
X12564D01*
X13220D01*
X13876Y47844D01*
Y47188D01*
X13220Y46532D01*
X11908D01*
X11252Y47188D01*
X15188Y50468D02*
Y47844D01*
X16500Y46532D01*
X17812Y47844D01*
Y50468D01*
X19124Y49812D02*
X19780Y50468D01*
X21092D01*
X21748Y49812D01*
Y49156D01*
X21092Y48500D01*
X20436D01*
X21092D01*
X21748Y47844D01*
Y47188D01*
X21092Y46532D01*
X19780D01*
X19124Y47188D01*
X117285Y13500D02*
X119908D01*
X121220Y14812D02*
X121876Y15468D01*
X123188D01*
X123844Y14812D01*
Y14156D01*
X123188Y13500D01*
X122532D01*
X123188D01*
X123844Y12844D01*
Y12188D01*
X123188Y11532D01*
X121876D01*
X121220Y12188D01*
X125156Y15468D02*
Y12844D01*
X126468Y11532D01*
X127780Y12844D01*
Y15468D01*
X129092Y14812D02*
X129748Y15468D01*
X131060D01*
X131716Y14812D01*
Y14156D01*
X131060Y13500D01*
X130404D01*
X131060D01*
X131716Y12844D01*
Y12188D01*
X131060Y11532D01*
X129748D01*
X129092Y12188D01*
X68080Y119032D02*
Y122968D01*
X70048D01*
X70704Y122312D01*
Y121000D01*
X70048Y120344D01*
X68080D01*
X69392D02*
X70704Y119032D01*
X72016D02*
X73328D01*
X72672D01*
Y122968D01*
X72016Y122312D01*
X75296D02*
X75952Y122968D01*
X77264D01*
X77920Y122312D01*
Y121656D01*
X77264Y121000D01*
X76608D01*
X77264D01*
X77920Y120344D01*
Y119688D01*
X77264Y119032D01*
X75952D01*
X75296Y119688D01*
X127580Y97032D02*
Y100968D01*
X129548D01*
X130204Y100312D01*
Y99000D01*
X129548Y98344D01*
X127580D01*
X128892D02*
X130204Y97032D01*
X131516D02*
X132828D01*
X132172D01*
Y100968D01*
X131516Y100312D01*
X137420Y97032D02*
X134796D01*
X137420Y99656D01*
Y100312D01*
X136764Y100968D01*
X135452D01*
X134796Y100312D01*
X58736Y84032D02*
Y87968D01*
X60704D01*
X61360Y87312D01*
Y86000D01*
X60704Y85344D01*
X58736D01*
X60048D02*
X61360Y84032D01*
X62672D02*
X63984D01*
X63328D01*
Y87968D01*
X62672Y87312D01*
X65952Y84032D02*
X67264D01*
X66608D01*
Y87968D01*
X65952Y87312D01*
X85968Y138080D02*
X82032D01*
Y140048D01*
X82688Y140704D01*
X84000D01*
X84656Y140048D01*
Y138080D01*
Y139392D02*
X85968Y140704D01*
Y142016D02*
Y143328D01*
Y142672D01*
X82032D01*
X82688Y142016D01*
Y145296D02*
X82032Y145952D01*
Y147264D01*
X82688Y147920D01*
X85312D01*
X85968Y147264D01*
Y145952D01*
X85312Y145296D01*
X82688D01*
X59720Y76032D02*
Y79968D01*
X61688D01*
X62344Y79312D01*
Y78000D01*
X61688Y77344D01*
X59720D01*
X61032D02*
X62344Y76032D01*
X63656Y76688D02*
X64312Y76032D01*
X65624D01*
X66280Y76688D01*
Y79312D01*
X65624Y79968D01*
X64312D01*
X63656Y79312D01*
Y78656D01*
X64312Y78000D01*
X66280D01*
X48876Y146426D02*
Y149574D01*
X50450D01*
X50975Y149049D01*
Y148000D01*
X50450Y147475D01*
X48876D01*
X49926D02*
X50975Y146426D01*
X52025Y149049D02*
X52549Y149574D01*
X53599D01*
X54124Y149049D01*
Y148525D01*
X53599Y148000D01*
X54124Y147475D01*
Y146950D01*
X53599Y146426D01*
X52549D01*
X52025Y146950D01*
Y147475D01*
X52549Y148000D01*
X52025Y148525D01*
Y149049D01*
X52549Y148000D02*
X53599D01*
X33220Y146532D02*
Y150468D01*
X35188D01*
X35844Y149812D01*
Y148500D01*
X35188Y147844D01*
X33220D01*
X34532D02*
X35844Y146532D01*
X37156Y150468D02*
X39780D01*
Y149812D01*
X37156Y147188D01*
Y146532D01*
X43220Y112532D02*
Y116468D01*
X45188D01*
X45844Y115812D01*
Y114500D01*
X45188Y113844D01*
X43220D01*
X44532D02*
X45844Y112532D01*
X49780Y116468D02*
X48468Y115812D01*
X47156Y114500D01*
Y113188D01*
X47812Y112532D01*
X49124D01*
X49780Y113188D01*
Y113844D01*
X49124Y114500D01*
X47156D01*
X141968Y76220D02*
X138032D01*
Y78188D01*
X138688Y78844D01*
X140000D01*
X140656Y78188D01*
Y76220D01*
Y77532D02*
X141968Y78844D01*
X138032Y82780D02*
Y80156D01*
X140000D01*
X139344Y81468D01*
Y82124D01*
X140000Y82780D01*
X141312D01*
X141968Y82124D01*
Y80812D01*
X141312Y80156D01*
X75220Y104032D02*
Y107968D01*
X77188D01*
X77844Y107312D01*
Y106000D01*
X77188Y105344D01*
X75220D01*
X76532D02*
X77844Y104032D01*
X81124D02*
Y107968D01*
X79156Y106000D01*
X81780D01*
X78968Y130720D02*
X75032D01*
Y132688D01*
X75688Y133344D01*
X77000D01*
X77656Y132688D01*
Y130720D01*
Y132032D02*
X78968Y133344D01*
X75688Y134656D02*
X75032Y135312D01*
Y136624D01*
X75688Y137280D01*
X76344D01*
X77000Y136624D01*
Y135968D01*
Y136624D01*
X77656Y137280D01*
X78312D01*
X78968Y136624D01*
Y135312D01*
X78312Y134656D01*
X60720Y63532D02*
Y67468D01*
X62688D01*
X63344Y66812D01*
Y65500D01*
X62688Y64844D01*
X60720D01*
X62032D02*
X63344Y63532D01*
X67280D02*
X64656D01*
X67280Y66156D01*
Y66812D01*
X66624Y67468D01*
X65312D01*
X64656Y66812D01*
X55968Y70876D02*
X52032D01*
Y72844D01*
X52688Y73500D01*
X54000D01*
X54656Y72844D01*
Y70876D01*
Y72188D02*
X55968Y73500D01*
Y74812D02*
Y76124D01*
Y75468D01*
X52032D01*
X52688Y74812D01*
X46500Y163688D02*
Y166312D01*
X45844Y166968D01*
X44532D01*
X43876Y166312D01*
Y163688D01*
X44532Y163032D01*
X45844D01*
X45188Y164344D02*
X46500Y163032D01*
X45844D02*
X46500Y163688D01*
X47812Y163032D02*
X49124D01*
X48468D01*
Y166968D01*
X47812Y166312D01*
X92720Y43968D02*
Y40032D01*
X95344D01*
X99280D02*
X96656D01*
X99280Y42656D01*
Y43312D01*
X98624Y43968D01*
X97312D01*
X96656Y43312D01*
X46532Y22876D02*
X50468D01*
Y25500D01*
Y26812D02*
Y28124D01*
Y27468D01*
X46532D01*
X47188Y26812D01*
X73790Y58968D02*
Y55032D01*
X75757D01*
X76413Y55688D01*
Y58312D01*
X75757Y58968D01*
X73790D01*
X77725Y55032D02*
X79037D01*
X78381D01*
Y58968D01*
X77725Y58312D01*
X32204Y40312D02*
X31548Y40968D01*
X30236D01*
X29580Y40312D01*
Y37688D01*
X30236Y37032D01*
X31548D01*
X32204Y37688D01*
X33516Y37032D02*
X34828D01*
X34172D01*
Y40968D01*
X33516Y40312D01*
X36796D02*
X37452Y40968D01*
X38764D01*
X39420Y40312D01*
Y39656D01*
X38764Y39000D01*
X38108D01*
X38764D01*
X39420Y38344D01*
Y37688D01*
X38764Y37032D01*
X37452D01*
X36796Y37688D01*
X103188Y36204D02*
X102532Y35548D01*
Y34236D01*
X103188Y33580D01*
X105812D01*
X106468Y34236D01*
Y35548D01*
X105812Y36204D01*
X106468Y37516D02*
Y38828D01*
Y38172D01*
X102532D01*
X103188Y37516D01*
X106468Y43420D02*
Y40796D01*
X103844Y43420D01*
X103188D01*
X102532Y42764D01*
Y41452D01*
X103188Y40796D01*
X86000Y43812D02*
X85344Y44468D01*
X84032D01*
X83376Y43812D01*
Y41188D01*
X84032Y40532D01*
X85344D01*
X86000Y41188D01*
X87312Y40532D02*
X88624D01*
X87968D01*
Y44468D01*
X87312Y43812D01*
D14*
X85000Y107000D02*
X128500D01*
X85000Y62500D02*
Y107000D01*
X128500D02*
Y151000D01*
Y107000D02*
X185000D01*
D15*
X6090Y158590D02*
X8190D01*
X6090Y128640D02*
X8190D01*
X7140Y129690D02*
Y127591D01*
X18090Y130239D02*
X19140D01*
X18615D01*
Y127091D01*
X18090D01*
X19140D01*
X22813Y129714D02*
X22289Y130239D01*
X21239D01*
X20714Y129714D01*
Y129190D01*
X21239Y128665D01*
X22289D01*
X22813Y128140D01*
Y127615D01*
X22289Y127091D01*
X21239D01*
X20714Y127615D01*
X25962Y129714D02*
X25437Y130239D01*
X24388D01*
X23863Y129714D01*
Y127615D01*
X24388Y127091D01*
X25437D01*
X25962Y127615D01*
X5590Y137739D02*
Y135640D01*
X6640Y134590D01*
X7690Y135640D01*
Y137739D01*
X10313D02*
X9264D01*
X8739Y137214D01*
Y135115D01*
X9264Y134590D01*
X10313D01*
X10838Y135115D01*
Y137214D01*
X10313Y137739D01*
X13987Y137214D02*
X13462Y137739D01*
X12412D01*
X11888Y137214D01*
Y135115D01*
X12412Y134590D01*
X13462D01*
X13987Y135115D01*
X16091Y137739D02*
X17140D01*
X16615D01*
Y134590D01*
X16091D01*
X17140D01*
X20813Y137214D02*
X20289Y137739D01*
X19239D01*
X18714Y137214D01*
Y135115D01*
X19239Y134590D01*
X20289D01*
X20813Y135115D01*
X21863Y137739D02*
Y134590D01*
Y136165D01*
X23962D01*
Y137739D01*
Y134590D01*
X25012D02*
X26061D01*
X25536D01*
Y137739D01*
X25012Y137214D01*
X7690Y144714D02*
X7165Y145239D01*
X6115D01*
X5590Y144714D01*
Y144190D01*
X6115Y143665D01*
X7165D01*
X7690Y143140D01*
Y142615D01*
X7165Y142090D01*
X6115D01*
X5590Y142615D01*
X10838Y144714D02*
X10313Y145239D01*
X9264D01*
X8739Y144714D01*
Y142615D01*
X9264Y142090D01*
X10313D01*
X10838Y142615D01*
X11888Y145239D02*
Y142090D01*
X13987D01*
X20591D02*
Y144190D01*
X21640Y145239D01*
X22690Y144190D01*
Y142090D01*
Y143665D01*
X20591D01*
X23739Y144714D02*
X24264Y145239D01*
X25313D01*
X25838Y144714D01*
Y142615D01*
X25313Y142090D01*
X24264D01*
X23739Y142615D01*
Y144714D01*
X18090Y152739D02*
Y150640D01*
X19140Y149591D01*
X20190Y150640D01*
Y152739D01*
X21239D02*
X22289D01*
X21764D01*
Y149591D01*
X21239D01*
X22289D01*
X23863D02*
Y152739D01*
X25962Y149591D01*
Y152739D01*
X7690Y152214D02*
X7165Y152739D01*
X6115D01*
X5590Y152214D01*
Y151690D01*
X6115Y151165D01*
X7165D01*
X7690Y150640D01*
Y150115D01*
X7165Y149591D01*
X6115D01*
X5590Y150115D01*
X8739Y152739D02*
Y149591D01*
X10313D01*
X10838Y150115D01*
Y152214D01*
X10313Y152739D01*
X8739D01*
X11888Y149591D02*
Y151690D01*
X12937Y152739D01*
X13987Y151690D01*
Y149591D01*
Y151165D01*
X11888D01*
X15590Y160239D02*
Y158140D01*
X16640Y157090D01*
X17690Y158140D01*
Y160239D01*
X20838Y159714D02*
X20313Y160239D01*
X19264D01*
X18739Y159714D01*
Y157615D01*
X19264Y157090D01*
X20313D01*
X20838Y157615D01*
X21888Y160239D02*
Y157090D01*
Y158665D01*
X23987D01*
Y160239D01*
Y157090D01*
X25036D02*
X26086D01*
X25561D01*
Y160239D01*
X25036Y159714D01*
X72751Y169626D02*
X72938Y169251D01*
X73501Y169064D01*
X73875D01*
X74438Y169251D01*
X74813Y169814D01*
X75000Y170751D01*
Y171688D01*
X74813Y172438D01*
X74438Y172813D01*
X73875Y173000D01*
X73688D01*
X73126Y172813D01*
X72751Y172438D01*
X72563Y171875D01*
Y171688D01*
X72751Y171126D01*
X73126Y170751D01*
X73688Y170563D01*
X73875D01*
X74438Y170751D01*
X74813Y171126D01*
X75000Y171688D01*
X93126Y169064D02*
X95000Y171688D01*
X92189D01*
X93126Y169064D02*
Y173000D01*
X124000Y169814D02*
X123625Y169626D01*
X123063Y169064D01*
Y173000D01*
X114813Y170001D02*
Y169814D01*
X114625Y169439D01*
X114438Y169251D01*
X114063Y169064D01*
X113313D01*
X112938Y169251D01*
X112751Y169439D01*
X112563Y169814D01*
Y170188D01*
X112751Y170563D01*
X113126Y171126D01*
X115000Y173000D01*
X112376D01*
X104625Y169064D02*
X102563D01*
X103688Y170563D01*
X103126D01*
X102751Y170751D01*
X102563Y170938D01*
X102376Y171501D01*
Y171875D01*
X102563Y172438D01*
X102938Y172813D01*
X103500Y173000D01*
X104063D01*
X104625Y172813D01*
X104813Y172625D01*
X105000Y172250D01*
X82751Y169064D02*
X84625D01*
X84813Y170751D01*
X84625Y170563D01*
X84063Y170376D01*
X83500D01*
X82938Y170563D01*
X82563Y170938D01*
X82376Y171501D01*
Y171875D01*
X82563Y172438D01*
X82938Y172813D01*
X83500Y173000D01*
X84063D01*
X84625Y172813D01*
X84813Y172625D01*
X85000Y172250D01*
M02*
