G04*
G04 #@! TF.GenerationSoftware,Altium Limited,Altium Designer,22.3.1 (43)*
G04*
G04 Layer_Color=255*
%FSLAX25Y25*%
%MOIN*%
G70*
G04*
G04 #@! TF.SameCoordinates,2454C8F7-4EAD-40B7-BFB8-64AA641CEC59*
G04*
G04*
G04 #@! TF.FilePolarity,Positive*
G04*
G01*
G75*
%ADD16R,0.03937X0.03740*%
%ADD17R,0.03937X0.03543*%
G04:AMPARAMS|DCode=18|XSize=73.09mil|YSize=19.61mil|CornerRadius=9.8mil|HoleSize=0mil|Usage=FLASHONLY|Rotation=0.000|XOffset=0mil|YOffset=0mil|HoleType=Round|Shape=RoundedRectangle|*
%AMROUNDEDRECTD18*
21,1,0.07309,0.00000,0,0,0.0*
21,1,0.05348,0.01961,0,0,0.0*
1,1,0.01961,0.02674,0.00000*
1,1,0.01961,-0.02674,0.00000*
1,1,0.01961,-0.02674,0.00000*
1,1,0.01961,0.02674,0.00000*
%
%ADD18ROUNDEDRECTD18*%
%ADD19R,0.07309X0.01961*%
%ADD20R,0.03543X0.03937*%
%ADD21R,0.03740X0.03937*%
%ADD22O,0.07480X0.02362*%
%ADD23R,0.03937X0.03937*%
%ADD24R,0.05512X0.04134*%
%ADD25R,0.03937X0.03937*%
%ADD26R,0.03937X0.02953*%
%ADD27R,0.12205X0.03543*%
%ADD28R,0.19291X0.04724*%
%ADD29R,0.03740X0.03937*%
%ADD30R,0.03543X0.02362*%
%ADD31R,0.05906X0.01181*%
%ADD32R,0.02362X0.05315*%
%ADD53R,0.05000X0.05000*%
%ADD58C,0.25591*%
%ADD59C,0.06693*%
%ADD60C,0.07087*%
D16*
X140000Y129850D02*
D03*
Y136150D02*
D03*
X132000Y79650D02*
D03*
Y73350D02*
D03*
X70500Y108850D02*
D03*
Y115150D02*
D03*
X47500Y66650D02*
D03*
Y60350D02*
D03*
X177000Y85650D02*
D03*
Y79350D02*
D03*
X119000Y117850D02*
D03*
Y124150D02*
D03*
Y138650D02*
D03*
Y132350D02*
D03*
X33000Y136650D02*
D03*
Y130350D02*
D03*
X36000Y100650D02*
D03*
Y94350D02*
D03*
D17*
X133500Y136150D02*
D03*
Y129850D02*
D03*
X132000Y92650D02*
D03*
Y86350D02*
D03*
X54500Y60350D02*
D03*
Y66650D02*
D03*
X140000Y86350D02*
D03*
Y92650D02*
D03*
X84000Y134150D02*
D03*
Y127850D02*
D03*
X71500Y130350D02*
D03*
Y136650D02*
D03*
D18*
X167921Y86839D02*
D03*
Y84280D02*
D03*
Y81721D02*
D03*
Y79161D02*
D03*
X150985D02*
D03*
Y81721D02*
D03*
Y84280D02*
D03*
X167968Y126661D02*
D03*
Y129220D02*
D03*
X151032Y131780D02*
D03*
Y129220D02*
D03*
Y126661D02*
D03*
X167968Y131780D02*
D03*
Y134339D02*
D03*
X44564Y132559D02*
D03*
Y130000D02*
D03*
Y127441D02*
D03*
X61500D02*
D03*
Y130000D02*
D03*
Y132559D02*
D03*
Y135118D02*
D03*
D19*
X150985Y86839D02*
D03*
X151032Y134339D02*
D03*
X44564Y135118D02*
D03*
D20*
X164850Y118500D02*
D03*
X171150D02*
D03*
X143350Y143000D02*
D03*
X149650D02*
D03*
X156350D02*
D03*
X162650D02*
D03*
X76650Y100000D02*
D03*
X70350D02*
D03*
X76650Y86500D02*
D03*
X70350D02*
D03*
Y78000D02*
D03*
X63650Y117500D02*
D03*
X57350D02*
D03*
X49650Y109500D02*
D03*
X43350D02*
D03*
X76650Y78000D02*
D03*
X32350Y143000D02*
D03*
X38650D02*
D03*
X48350D02*
D03*
X54650D02*
D03*
X61350Y60000D02*
D03*
X67650D02*
D03*
D21*
X57350Y109500D02*
D03*
X63650D02*
D03*
X70350Y71500D02*
D03*
X76650D02*
D03*
X70350Y93000D02*
D03*
X76650D02*
D03*
X162650Y149000D02*
D03*
X156350D02*
D03*
X43350Y119500D02*
D03*
X49650D02*
D03*
X169350Y143000D02*
D03*
X175650D02*
D03*
X151350Y118500D02*
D03*
X157650D02*
D03*
X79150Y42500D02*
D03*
X72850D02*
D03*
X150850Y71000D02*
D03*
X157150D02*
D03*
X62350Y143000D02*
D03*
X68650D02*
D03*
D22*
X110752Y128953D02*
D03*
Y123953D02*
D03*
Y133953D02*
D03*
Y138953D02*
D03*
X92248Y123953D02*
D03*
Y128953D02*
D03*
Y133953D02*
D03*
Y138953D02*
D03*
D23*
X111953Y117500D02*
D03*
X106047D02*
D03*
X110953Y146000D02*
D03*
X105047D02*
D03*
D24*
X112000Y22457D02*
D03*
Y29543D02*
D03*
D25*
X104000Y22547D02*
D03*
Y28453D02*
D03*
D26*
X82500Y50000D02*
D03*
X68327D02*
D03*
D27*
X63000Y36055D02*
D03*
Y17945D02*
D03*
X88500Y17866D02*
D03*
Y35976D02*
D03*
D28*
X63000Y22079D02*
D03*
Y31921D02*
D03*
X88500Y31842D02*
D03*
Y22000D02*
D03*
D29*
X43047Y39000D02*
D03*
X48953D02*
D03*
D30*
X55724Y45760D02*
D03*
Y49500D02*
D03*
Y53240D02*
D03*
X46276D02*
D03*
Y45760D02*
D03*
D31*
X61114Y101437D02*
D03*
Y99468D02*
D03*
Y97500D02*
D03*
Y95531D02*
D03*
Y93563D02*
D03*
X43791D02*
D03*
Y95531D02*
D03*
Y97500D02*
D03*
Y99468D02*
D03*
Y101437D02*
D03*
D32*
X49260Y153776D02*
D03*
X56740D02*
D03*
X53000Y163224D02*
D03*
D53*
X35000Y109500D02*
D03*
X122000Y22000D02*
D03*
X28000Y48500D02*
D03*
X53000Y173000D02*
D03*
D58*
X19685Y19685D02*
D03*
X177165Y177165D02*
D03*
Y19685D02*
D03*
X19685Y177165D02*
D03*
D59*
X8500Y88500D02*
D03*
X18500Y78500D02*
D03*
Y88500D02*
D03*
Y118500D02*
D03*
X8500Y108500D02*
D03*
Y98500D02*
D03*
Y78500D02*
D03*
X18500Y108500D02*
D03*
Y98500D02*
D03*
X8500Y118500D02*
D03*
D60*
X123500Y180000D02*
D03*
X83500D02*
D03*
X93500D02*
D03*
X113500D02*
D03*
X73500D02*
D03*
X103500D02*
D03*
M02*
