G04*
G04 #@! TF.GenerationSoftware,Altium Limited,Altium Designer,22.3.1 (43)*
G04*
G04 Layer_Color=8388736*
%FSLAX25Y25*%
%MOIN*%
G70*
G04*
G04 #@! TF.SameCoordinates,2454C8F7-4EAD-40B7-BFB8-64AA641CEC59*
G04*
G04*
G04 #@! TF.FilePolarity,Negative*
G04*
G01*
G75*
G04:AMPARAMS|DCode=18|XSize=73.09mil|YSize=19.61mil|CornerRadius=9.8mil|HoleSize=0mil|Usage=FLASHONLY|Rotation=0.000|XOffset=0mil|YOffset=0mil|HoleType=Round|Shape=RoundedRectangle|*
%AMROUNDEDRECTD18*
21,1,0.07309,0.00000,0,0,0.0*
21,1,0.05348,0.01961,0,0,0.0*
1,1,0.01961,0.02674,0.00000*
1,1,0.01961,-0.02674,0.00000*
1,1,0.01961,-0.02674,0.00000*
1,1,0.01961,0.02674,0.00000*
%
%ADD18ROUNDEDRECTD18*%
%ADD19R,0.07309X0.01961*%
%ADD33R,0.04737X0.04540*%
%ADD34R,0.04737X0.04343*%
%ADD35R,0.04343X0.04737*%
%ADD36R,0.04540X0.04737*%
%ADD37O,0.08280X0.03162*%
%ADD38R,0.04737X0.04737*%
%ADD39R,0.06312X0.04934*%
%ADD40R,0.04737X0.04737*%
%ADD41R,0.04737X0.03753*%
%ADD42R,0.13005X0.04343*%
%ADD43R,0.20091X0.05524*%
%ADD44R,0.04540X0.04737*%
%ADD45R,0.04343X0.03162*%
%ADD46R,0.06706X0.01981*%
%ADD47R,0.05800X0.05800*%
%ADD48R,0.03162X0.06115*%
%ADD49C,0.26391*%
%ADD50C,0.07493*%
%ADD51C,0.07887*%
G36*
X72698Y24838D02*
X72749Y24828D01*
X72799Y24811D01*
X72846Y24788D01*
X72890Y24759D01*
X72929Y24724D01*
X72964Y24685D01*
X72993Y24641D01*
X73016Y24594D01*
X73033Y24545D01*
X73043Y24493D01*
X73046Y24441D01*
Y19716D01*
X73043Y19664D01*
X73033Y19613D01*
X73016Y19563D01*
X72993Y19516D01*
X72964Y19473D01*
X72929Y19433D01*
X69386Y15890D01*
X69346Y15855D01*
X69303Y15826D01*
X69256Y15803D01*
X69206Y15786D01*
X69155Y15776D01*
X69102Y15772D01*
X56898D01*
X56845Y15776D01*
X56794Y15786D01*
X56744Y15803D01*
X56697Y15826D01*
X56654Y15855D01*
X56614Y15890D01*
X53071Y19433D01*
X53036Y19473D01*
X53007Y19516D01*
X52984Y19563D01*
X52967Y19613D01*
X52957Y19664D01*
X52953Y19716D01*
Y24441D01*
X52957Y24493D01*
X52967Y24545D01*
X52984Y24594D01*
X53007Y24641D01*
X53036Y24685D01*
X53071Y24724D01*
X53110Y24759D01*
X53154Y24788D01*
X53201Y24811D01*
X53251Y24828D01*
X53302Y24838D01*
X53354Y24842D01*
X72646D01*
X72698Y24838D01*
D02*
G37*
G36*
X69155Y38224D02*
X69206Y38214D01*
X69256Y38197D01*
X69303Y38174D01*
X69346Y38145D01*
X69386Y38110D01*
X72929Y34567D01*
X72964Y34528D01*
X72993Y34484D01*
X73016Y34437D01*
X73033Y34387D01*
X73043Y34336D01*
X73046Y34284D01*
Y29559D01*
X73043Y29507D01*
X73033Y29455D01*
X73016Y29406D01*
X72993Y29359D01*
X72964Y29315D01*
X72929Y29276D01*
X72890Y29241D01*
X72846Y29212D01*
X72799Y29189D01*
X72749Y29172D01*
X72698Y29162D01*
X72646Y29158D01*
X53354D01*
X53302Y29162D01*
X53251Y29172D01*
X53201Y29189D01*
X53154Y29212D01*
X53110Y29241D01*
X53071Y29276D01*
X53036Y29315D01*
X53007Y29359D01*
X52984Y29406D01*
X52967Y29455D01*
X52957Y29507D01*
X52953Y29559D01*
Y34284D01*
X52957Y34336D01*
X52967Y34387D01*
X52984Y34437D01*
X53007Y34484D01*
X53036Y34528D01*
X53071Y34567D01*
X56614Y38110D01*
X56654Y38145D01*
X56697Y38174D01*
X56744Y38197D01*
X56794Y38214D01*
X56845Y38224D01*
X56898Y38228D01*
X69102D01*
X69155Y38224D01*
D02*
G37*
G36*
X98198Y24760D02*
X98249Y24749D01*
X98299Y24733D01*
X98346Y24709D01*
X98390Y24680D01*
X98429Y24646D01*
X98464Y24606D01*
X98493Y24563D01*
X98516Y24516D01*
X98533Y24466D01*
X98543Y24415D01*
X98546Y24362D01*
Y19638D01*
X98543Y19586D01*
X98533Y19534D01*
X98516Y19484D01*
X98493Y19437D01*
X98464Y19394D01*
X98429Y19354D01*
X94886Y15811D01*
X94846Y15777D01*
X94803Y15747D01*
X94756Y15724D01*
X94706Y15707D01*
X94655Y15697D01*
X94602Y15694D01*
X82398D01*
X82345Y15697D01*
X82294Y15707D01*
X82244Y15724D01*
X82197Y15747D01*
X82154Y15777D01*
X82114Y15811D01*
X78571Y19354D01*
X78536Y19394D01*
X78507Y19437D01*
X78484Y19484D01*
X78467Y19534D01*
X78457Y19586D01*
X78453Y19638D01*
Y24362D01*
X78457Y24415D01*
X78467Y24466D01*
X78484Y24516D01*
X78507Y24563D01*
X78536Y24606D01*
X78571Y24646D01*
X78610Y24680D01*
X78654Y24709D01*
X78701Y24733D01*
X78751Y24749D01*
X78802Y24760D01*
X78854Y24763D01*
X98146D01*
X98198Y24760D01*
D02*
G37*
G36*
X94655Y38146D02*
X94706Y38135D01*
X94756Y38118D01*
X94803Y38095D01*
X94846Y38066D01*
X94886Y38032D01*
X98429Y34488D01*
X98464Y34449D01*
X98493Y34405D01*
X98516Y34358D01*
X98533Y34308D01*
X98543Y34257D01*
X98546Y34205D01*
Y29480D01*
X98543Y29428D01*
X98533Y29377D01*
X98516Y29327D01*
X98493Y29280D01*
X98464Y29236D01*
X98429Y29197D01*
X98390Y29162D01*
X98346Y29133D01*
X98299Y29110D01*
X98249Y29093D01*
X98198Y29083D01*
X98146Y29079D01*
X78854D01*
X78802Y29083D01*
X78751Y29093D01*
X78701Y29110D01*
X78654Y29133D01*
X78610Y29162D01*
X78571Y29197D01*
X78536Y29236D01*
X78507Y29280D01*
X78484Y29327D01*
X78467Y29377D01*
X78457Y29428D01*
X78453Y29480D01*
Y34205D01*
X78457Y34257D01*
X78467Y34308D01*
X78484Y34358D01*
X78507Y34405D01*
X78536Y34449D01*
X78571Y34488D01*
X82114Y38032D01*
X82154Y38066D01*
X82197Y38095D01*
X82244Y38118D01*
X82294Y38135D01*
X82345Y38146D01*
X82398Y38149D01*
X94602D01*
X94655Y38146D01*
D02*
G37*
D18*
X167921Y86839D02*
D03*
Y84280D02*
D03*
Y81721D02*
D03*
Y79161D02*
D03*
X150985D02*
D03*
Y81721D02*
D03*
Y84280D02*
D03*
X167968Y126661D02*
D03*
Y129220D02*
D03*
X151032Y131780D02*
D03*
Y129220D02*
D03*
Y126661D02*
D03*
X167968Y131780D02*
D03*
Y134339D02*
D03*
X44564Y132559D02*
D03*
Y130000D02*
D03*
Y127441D02*
D03*
X61500D02*
D03*
Y130000D02*
D03*
Y132559D02*
D03*
Y135118D02*
D03*
D19*
X150985Y86839D02*
D03*
X151032Y134339D02*
D03*
X44564Y135118D02*
D03*
D33*
X140000Y129850D02*
D03*
Y136150D02*
D03*
X132000Y79650D02*
D03*
Y73350D02*
D03*
X70500Y108850D02*
D03*
Y115150D02*
D03*
X47500Y66650D02*
D03*
Y60350D02*
D03*
X177000Y85650D02*
D03*
Y79350D02*
D03*
X119000Y117850D02*
D03*
Y124150D02*
D03*
Y138650D02*
D03*
Y132350D02*
D03*
X33000Y136650D02*
D03*
Y130350D02*
D03*
X36000Y100650D02*
D03*
Y94350D02*
D03*
D34*
X133500Y136150D02*
D03*
Y129850D02*
D03*
X132000Y92650D02*
D03*
Y86350D02*
D03*
X54500Y60350D02*
D03*
Y66650D02*
D03*
X140000Y86350D02*
D03*
Y92650D02*
D03*
X84000Y134150D02*
D03*
Y127850D02*
D03*
X71500Y130350D02*
D03*
Y136650D02*
D03*
D35*
X164850Y118500D02*
D03*
X171150D02*
D03*
X143350Y143000D02*
D03*
X149650D02*
D03*
X156350D02*
D03*
X162650D02*
D03*
X76650Y100000D02*
D03*
X70350D02*
D03*
X76650Y86500D02*
D03*
X70350D02*
D03*
Y78000D02*
D03*
X63650Y117500D02*
D03*
X57350D02*
D03*
X49650Y109500D02*
D03*
X43350D02*
D03*
X76650Y78000D02*
D03*
X32350Y143000D02*
D03*
X38650D02*
D03*
X48350D02*
D03*
X54650D02*
D03*
X61350Y60000D02*
D03*
X67650D02*
D03*
D36*
X57350Y109500D02*
D03*
X63650D02*
D03*
X70350Y71500D02*
D03*
X76650D02*
D03*
X70350Y93000D02*
D03*
X76650D02*
D03*
X162650Y149000D02*
D03*
X156350D02*
D03*
X43350Y119500D02*
D03*
X49650D02*
D03*
X169350Y143000D02*
D03*
X175650D02*
D03*
X151350Y118500D02*
D03*
X157650D02*
D03*
X79150Y42500D02*
D03*
X72850D02*
D03*
X150850Y71000D02*
D03*
X157150D02*
D03*
X62350Y143000D02*
D03*
X68650D02*
D03*
D37*
X110752Y128953D02*
D03*
Y123953D02*
D03*
Y133953D02*
D03*
Y138953D02*
D03*
X92248Y123953D02*
D03*
Y128953D02*
D03*
Y133953D02*
D03*
Y138953D02*
D03*
D38*
X111953Y117500D02*
D03*
X106047D02*
D03*
X110953Y146000D02*
D03*
X105047D02*
D03*
D39*
X112000Y22457D02*
D03*
Y29543D02*
D03*
D40*
X104000Y22547D02*
D03*
Y28453D02*
D03*
D41*
X82500Y50000D02*
D03*
X68327D02*
D03*
D42*
X63000Y36055D02*
D03*
Y17945D02*
D03*
X88500Y17866D02*
D03*
Y35976D02*
D03*
D43*
X63000Y22079D02*
D03*
Y31921D02*
D03*
X88500Y31842D02*
D03*
Y22000D02*
D03*
D44*
X43047Y39000D02*
D03*
X48953D02*
D03*
D45*
X55724Y45760D02*
D03*
Y49500D02*
D03*
Y53240D02*
D03*
X46276D02*
D03*
Y45760D02*
D03*
D46*
X61114Y101437D02*
D03*
Y99468D02*
D03*
Y97500D02*
D03*
Y95531D02*
D03*
Y93563D02*
D03*
X43791D02*
D03*
Y95531D02*
D03*
Y97500D02*
D03*
Y99468D02*
D03*
Y101437D02*
D03*
D47*
X35000Y109500D02*
D03*
X122000Y22000D02*
D03*
X28000Y48500D02*
D03*
X53000Y173000D02*
D03*
D48*
X49260Y153776D02*
D03*
X56740D02*
D03*
X53000Y163224D02*
D03*
D49*
X19685Y19685D02*
D03*
X177165Y177165D02*
D03*
Y19685D02*
D03*
X19685Y177165D02*
D03*
D50*
X8500Y88500D02*
D03*
X18500Y78500D02*
D03*
Y88500D02*
D03*
Y118500D02*
D03*
X8500Y108500D02*
D03*
Y98500D02*
D03*
Y78500D02*
D03*
X18500Y108500D02*
D03*
Y98500D02*
D03*
X8500Y118500D02*
D03*
D51*
X123500Y180000D02*
D03*
X83500D02*
D03*
X93500D02*
D03*
X113500D02*
D03*
X73500D02*
D03*
X103500D02*
D03*
M02*
