G04*
G04 #@! TF.GenerationSoftware,Altium Limited,Altium Designer,22.3.1 (43)*
G04*
G04 Layer_Color=16711935*
%FSLAX25Y25*%
%MOIN*%
G70*
G04*
G04 #@! TF.SameCoordinates,2454C8F7-4EAD-40B7-BFB8-64AA641CEC59*
G04*
G04*
G04 #@! TF.FilePolarity,Positive*
G04*
G01*
G75*
%ADD13C,0.00787*%
G36*
X161433Y84106D02*
Y84103D01*
Y84088D01*
Y84070D01*
Y84045D01*
X161429Y84012D01*
Y83975D01*
X161426Y83932D01*
X161422Y83888D01*
X161411Y83790D01*
X161397Y83688D01*
X161375Y83590D01*
X161360Y83542D01*
X161346Y83499D01*
Y83495D01*
X161342Y83488D01*
X161335Y83477D01*
X161327Y83462D01*
X161305Y83422D01*
X161273Y83371D01*
X161229Y83313D01*
X161178Y83255D01*
X161113Y83193D01*
X161032Y83138D01*
X161029D01*
X161022Y83131D01*
X161011Y83127D01*
X160992Y83116D01*
X160971Y83105D01*
X160942Y83095D01*
X160912Y83084D01*
X160876Y83069D01*
X160836Y83055D01*
X160792Y83044D01*
X160745Y83033D01*
X160690Y83022D01*
X160636Y83015D01*
X160577Y83007D01*
X160446Y83000D01*
X160414D01*
X160388Y83004D01*
X160359D01*
X160323Y83007D01*
X160283Y83011D01*
X160243Y83015D01*
X160152Y83029D01*
X160053Y83051D01*
X159959Y83080D01*
X159868Y83120D01*
X159864D01*
X159857Y83127D01*
X159846Y83135D01*
X159831Y83142D01*
X159791Y83171D01*
X159744Y83211D01*
X159689Y83262D01*
X159638Y83320D01*
X159587Y83393D01*
X159547Y83473D01*
Y83477D01*
X159544Y83484D01*
X159540Y83499D01*
X159533Y83517D01*
X159526Y83539D01*
X159518Y83568D01*
X159507Y83600D01*
X159500Y83641D01*
X159493Y83684D01*
X159482Y83732D01*
X159475Y83783D01*
X159467Y83837D01*
X159460Y83899D01*
X159456Y83965D01*
X159453Y84034D01*
Y84106D01*
Y85562D01*
X159788D01*
Y84106D01*
Y84103D01*
Y84092D01*
Y84074D01*
Y84052D01*
X159791Y84026D01*
Y83994D01*
X159795Y83925D01*
X159802Y83844D01*
X159813Y83764D01*
X159828Y83688D01*
X159835Y83655D01*
X159846Y83622D01*
X159850Y83615D01*
X159857Y83597D01*
X159875Y83571D01*
X159897Y83535D01*
X159922Y83499D01*
X159959Y83459D01*
X160002Y83419D01*
X160053Y83386D01*
X160061Y83382D01*
X160079Y83371D01*
X160112Y83360D01*
X160155Y83346D01*
X160206Y83328D01*
X160272Y83317D01*
X160341Y83306D01*
X160417Y83302D01*
X160454D01*
X160476Y83306D01*
X160508D01*
X160541Y83309D01*
X160621Y83324D01*
X160708Y83342D01*
X160792Y83371D01*
X160872Y83411D01*
X160909Y83437D01*
X160942Y83466D01*
X160945Y83469D01*
X160949Y83473D01*
X160956Y83484D01*
X160967Y83499D01*
X160978Y83521D01*
X160992Y83542D01*
X161007Y83575D01*
X161022Y83608D01*
X161036Y83648D01*
X161047Y83695D01*
X161062Y83750D01*
X161073Y83808D01*
X161083Y83874D01*
X161091Y83943D01*
X161098Y84023D01*
Y84106D01*
Y85562D01*
X161433D01*
Y84106D01*
D02*
G37*
G36*
X162758Y85570D02*
X162787Y85566D01*
X162823Y85562D01*
X162863Y85555D01*
X162903Y85548D01*
X162998Y85523D01*
X163093Y85486D01*
X163140Y85464D01*
X163187Y85439D01*
X163231Y85406D01*
X163271Y85370D01*
X163275Y85366D01*
X163282Y85362D01*
X163289Y85348D01*
X163304Y85333D01*
X163322Y85315D01*
X163340Y85290D01*
X163358Y85264D01*
X163380Y85231D01*
X163417Y85162D01*
X163453Y85075D01*
X163468Y85031D01*
X163475Y84980D01*
X163482Y84929D01*
X163486Y84874D01*
Y84867D01*
Y84849D01*
X163482Y84820D01*
X163479Y84780D01*
X163471Y84736D01*
X163457Y84685D01*
X163442Y84631D01*
X163420Y84576D01*
X163417Y84569D01*
X163409Y84551D01*
X163395Y84522D01*
X163373Y84481D01*
X163344Y84438D01*
X163307Y84383D01*
X163264Y84329D01*
X163213Y84267D01*
X163206Y84259D01*
X163187Y84237D01*
X163169Y84219D01*
X163151Y84201D01*
X163129Y84179D01*
X163100Y84150D01*
X163071Y84121D01*
X163034Y84088D01*
X162998Y84052D01*
X162954Y84012D01*
X162907Y83972D01*
X162856Y83925D01*
X162798Y83877D01*
X162740Y83826D01*
X162736Y83823D01*
X162729Y83815D01*
X162714Y83804D01*
X162696Y83790D01*
X162674Y83768D01*
X162649Y83746D01*
X162590Y83699D01*
X162529Y83644D01*
X162470Y83590D01*
X162419Y83542D01*
X162398Y83524D01*
X162379Y83506D01*
X162376Y83502D01*
X162365Y83491D01*
X162350Y83477D01*
X162332Y83455D01*
X162314Y83429D01*
X162292Y83404D01*
X162248Y83342D01*
X163489D01*
Y83044D01*
X161819D01*
Y83047D01*
Y83062D01*
Y83084D01*
X161822Y83113D01*
X161826Y83146D01*
X161833Y83182D01*
X161841Y83218D01*
X161855Y83258D01*
Y83262D01*
X161859Y83266D01*
X161866Y83288D01*
X161881Y83320D01*
X161902Y83364D01*
X161932Y83415D01*
X161968Y83473D01*
X162008Y83531D01*
X162059Y83593D01*
Y83597D01*
X162066Y83600D01*
X162084Y83622D01*
X162117Y83655D01*
X162164Y83702D01*
X162219Y83757D01*
X162288Y83823D01*
X162372Y83895D01*
X162463Y83972D01*
X162467Y83975D01*
X162481Y83986D01*
X162503Y84005D01*
X162529Y84026D01*
X162561Y84056D01*
X162601Y84088D01*
X162641Y84125D01*
X162689Y84165D01*
X162780Y84252D01*
X162871Y84339D01*
X162914Y84383D01*
X162954Y84427D01*
X162991Y84467D01*
X163020Y84507D01*
Y84511D01*
X163027Y84514D01*
X163034Y84525D01*
X163042Y84540D01*
X163067Y84580D01*
X163096Y84627D01*
X163122Y84685D01*
X163147Y84747D01*
X163162Y84816D01*
X163169Y84882D01*
Y84886D01*
Y84889D01*
X163165Y84911D01*
X163162Y84947D01*
X163151Y84987D01*
X163136Y85038D01*
X163111Y85089D01*
X163078Y85140D01*
X163034Y85191D01*
X163027Y85198D01*
X163009Y85213D01*
X162984Y85231D01*
X162943Y85257D01*
X162892Y85279D01*
X162834Y85300D01*
X162765Y85315D01*
X162689Y85319D01*
X162667D01*
X162652Y85315D01*
X162609Y85311D01*
X162558Y85300D01*
X162503Y85286D01*
X162441Y85260D01*
X162383Y85228D01*
X162328Y85184D01*
X162321Y85177D01*
X162306Y85158D01*
X162285Y85129D01*
X162263Y85086D01*
X162237Y85035D01*
X162215Y84969D01*
X162201Y84896D01*
X162194Y84813D01*
X161877Y84845D01*
Y84849D01*
X161881Y84860D01*
Y84878D01*
X161884Y84904D01*
X161891Y84933D01*
X161899Y84965D01*
X161910Y85006D01*
X161921Y85046D01*
X161950Y85133D01*
X161993Y85220D01*
X162019Y85264D01*
X162052Y85308D01*
X162084Y85348D01*
X162121Y85384D01*
X162125Y85388D01*
X162132Y85391D01*
X162143Y85402D01*
X162161Y85413D01*
X162183Y85428D01*
X162208Y85442D01*
X162237Y85461D01*
X162274Y85479D01*
X162314Y85497D01*
X162357Y85515D01*
X162405Y85530D01*
X162456Y85544D01*
X162510Y85555D01*
X162569Y85566D01*
X162630Y85570D01*
X162696Y85573D01*
X162732D01*
X162758Y85570D01*
D02*
G37*
G36*
X161480Y131606D02*
Y131603D01*
Y131588D01*
Y131570D01*
Y131545D01*
X161477Y131512D01*
Y131475D01*
X161473Y131432D01*
X161469Y131388D01*
X161458Y131290D01*
X161444Y131188D01*
X161422Y131090D01*
X161407Y131042D01*
X161393Y130999D01*
Y130995D01*
X161389Y130988D01*
X161382Y130977D01*
X161374Y130962D01*
X161353Y130922D01*
X161320Y130871D01*
X161276Y130813D01*
X161225Y130755D01*
X161160Y130693D01*
X161080Y130638D01*
X161076D01*
X161069Y130631D01*
X161058Y130627D01*
X161040Y130616D01*
X161018Y130605D01*
X160989Y130595D01*
X160960Y130584D01*
X160923Y130569D01*
X160883Y130554D01*
X160839Y130544D01*
X160792Y130533D01*
X160738Y130522D01*
X160683Y130515D01*
X160625Y130507D01*
X160494Y130500D01*
X160461D01*
X160435Y130504D01*
X160406D01*
X160370Y130507D01*
X160330Y130511D01*
X160290Y130515D01*
X160199Y130529D01*
X160100Y130551D01*
X160006Y130580D01*
X159915Y130620D01*
X159911D01*
X159904Y130627D01*
X159893Y130635D01*
X159879Y130642D01*
X159838Y130671D01*
X159791Y130711D01*
X159737Y130762D01*
X159686Y130820D01*
X159635Y130893D01*
X159595Y130973D01*
Y130977D01*
X159591Y130984D01*
X159587Y130999D01*
X159580Y131017D01*
X159573Y131039D01*
X159565Y131068D01*
X159555Y131100D01*
X159547Y131141D01*
X159540Y131184D01*
X159529Y131232D01*
X159522Y131282D01*
X159514Y131337D01*
X159507Y131399D01*
X159504Y131465D01*
X159500Y131534D01*
Y131606D01*
Y133063D01*
X159835D01*
Y131606D01*
Y131603D01*
Y131592D01*
Y131574D01*
Y131552D01*
X159838Y131526D01*
Y131494D01*
X159842Y131424D01*
X159849Y131344D01*
X159860Y131264D01*
X159875Y131188D01*
X159882Y131155D01*
X159893Y131122D01*
X159897Y131115D01*
X159904Y131097D01*
X159922Y131071D01*
X159944Y131035D01*
X159969Y130999D01*
X160006Y130959D01*
X160050Y130919D01*
X160100Y130886D01*
X160108Y130882D01*
X160126Y130871D01*
X160159Y130860D01*
X160203Y130846D01*
X160253Y130827D01*
X160319Y130817D01*
X160388Y130806D01*
X160465Y130802D01*
X160501D01*
X160523Y130806D01*
X160556D01*
X160588Y130809D01*
X160668Y130824D01*
X160756Y130842D01*
X160839Y130871D01*
X160920Y130911D01*
X160956Y130937D01*
X160989Y130966D01*
X160992Y130970D01*
X160996Y130973D01*
X161003Y130984D01*
X161014Y130999D01*
X161025Y131020D01*
X161040Y131042D01*
X161054Y131075D01*
X161069Y131108D01*
X161083Y131148D01*
X161094Y131195D01*
X161109Y131250D01*
X161120Y131308D01*
X161131Y131374D01*
X161138Y131443D01*
X161145Y131523D01*
Y131606D01*
Y133063D01*
X161480D01*
Y131606D01*
D02*
G37*
G36*
X163460Y132735D02*
X162452D01*
X162317Y132054D01*
X162321Y132058D01*
X162328Y132062D01*
X162339Y132069D01*
X162357Y132080D01*
X162379Y132091D01*
X162405Y132105D01*
X162463Y132134D01*
X162536Y132163D01*
X162616Y132189D01*
X162703Y132207D01*
X162747Y132214D01*
X162827D01*
X162849Y132211D01*
X162878Y132207D01*
X162911Y132203D01*
X162947Y132196D01*
X162987Y132185D01*
X163074Y132160D01*
X163122Y132142D01*
X163169Y132116D01*
X163216Y132091D01*
X163264Y132062D01*
X163307Y132025D01*
X163351Y131985D01*
X163355Y131981D01*
X163362Y131974D01*
X163373Y131963D01*
X163388Y131945D01*
X163406Y131920D01*
X163424Y131894D01*
X163446Y131861D01*
X163468Y131825D01*
X163486Y131785D01*
X163508Y131741D01*
X163526Y131690D01*
X163544Y131639D01*
X163558Y131585D01*
X163569Y131523D01*
X163577Y131461D01*
X163580Y131395D01*
Y131392D01*
Y131381D01*
Y131363D01*
X163577Y131337D01*
X163573Y131308D01*
X163569Y131275D01*
X163562Y131235D01*
X163555Y131195D01*
X163533Y131100D01*
X163497Y131002D01*
X163475Y130951D01*
X163446Y130904D01*
X163417Y130853D01*
X163380Y130806D01*
X163376Y130802D01*
X163369Y130791D01*
X163355Y130777D01*
X163337Y130758D01*
X163311Y130737D01*
X163282Y130707D01*
X163245Y130682D01*
X163206Y130653D01*
X163162Y130624D01*
X163111Y130598D01*
X163056Y130573D01*
X162998Y130547D01*
X162936Y130529D01*
X162867Y130515D01*
X162794Y130504D01*
X162718Y130500D01*
X162685D01*
X162660Y130504D01*
X162630Y130507D01*
X162598Y130511D01*
X162557Y130515D01*
X162517Y130525D01*
X162426Y130547D01*
X162336Y130580D01*
X162288Y130602D01*
X162241Y130627D01*
X162197Y130657D01*
X162153Y130689D01*
X162150Y130693D01*
X162143Y130696D01*
X162135Y130711D01*
X162121Y130726D01*
X162102Y130744D01*
X162084Y130766D01*
X162063Y130795D01*
X162044Y130827D01*
X162022Y130860D01*
X162001Y130900D01*
X161961Y130988D01*
X161928Y131090D01*
X161917Y131144D01*
X161910Y131202D01*
X162234Y131228D01*
Y131224D01*
Y131217D01*
X162237Y131206D01*
X162241Y131188D01*
X162252Y131148D01*
X162266Y131093D01*
X162288Y131039D01*
X162317Y130977D01*
X162354Y130922D01*
X162397Y130871D01*
X162405Y130868D01*
X162419Y130853D01*
X162448Y130835D01*
X162488Y130813D01*
X162532Y130791D01*
X162587Y130773D01*
X162649Y130758D01*
X162718Y130755D01*
X162740D01*
X162754Y130758D01*
X162798Y130762D01*
X162849Y130777D01*
X162911Y130795D01*
X162972Y130824D01*
X163038Y130868D01*
X163067Y130893D01*
X163096Y130922D01*
X163100Y130926D01*
X163103Y130930D01*
X163111Y130940D01*
X163122Y130951D01*
X163147Y130991D01*
X163176Y131042D01*
X163202Y131104D01*
X163227Y131181D01*
X163245Y131272D01*
X163253Y131319D01*
Y131370D01*
Y131374D01*
Y131381D01*
Y131395D01*
X163249Y131414D01*
Y131435D01*
X163245Y131461D01*
X163235Y131519D01*
X163216Y131588D01*
X163191Y131658D01*
X163154Y131723D01*
X163103Y131785D01*
Y131789D01*
X163096Y131792D01*
X163078Y131810D01*
X163045Y131836D01*
X163002Y131865D01*
X162943Y131890D01*
X162878Y131916D01*
X162801Y131934D01*
X162758Y131941D01*
X162689D01*
X162660Y131938D01*
X162623Y131934D01*
X162579Y131923D01*
X162536Y131912D01*
X162488Y131894D01*
X162441Y131872D01*
X162437Y131869D01*
X162423Y131861D01*
X162401Y131843D01*
X162372Y131825D01*
X162343Y131799D01*
X162314Y131767D01*
X162281Y131734D01*
X162255Y131694D01*
X161964Y131734D01*
X162208Y133030D01*
X163460D01*
Y132735D01*
D02*
G37*
G36*
X56308Y133849D02*
X56355Y133842D01*
X56414Y133831D01*
X56479Y133813D01*
X56545Y133791D01*
X56610Y133762D01*
X56614D01*
X56617Y133758D01*
X56639Y133747D01*
X56672Y133726D01*
X56708Y133700D01*
X56752Y133664D01*
X56796Y133624D01*
X56839Y133576D01*
X56876Y133522D01*
X56880Y133514D01*
X56890Y133496D01*
X56905Y133464D01*
X56923Y133423D01*
X56941Y133376D01*
X56956Y133321D01*
X56967Y133260D01*
X56971Y133198D01*
Y133191D01*
Y133169D01*
X56967Y133140D01*
X56960Y133099D01*
X56949Y133052D01*
X56930Y133001D01*
X56909Y132950D01*
X56880Y132899D01*
X56876Y132892D01*
X56865Y132877D01*
X56843Y132852D01*
X56814Y132823D01*
X56778Y132790D01*
X56734Y132754D01*
X56683Y132721D01*
X56621Y132688D01*
X56625D01*
X56632Y132685D01*
X56643Y132681D01*
X56657Y132677D01*
X56697Y132663D01*
X56748Y132641D01*
X56807Y132612D01*
X56865Y132575D01*
X56919Y132528D01*
X56971Y132473D01*
X56974Y132466D01*
X56989Y132444D01*
X57011Y132408D01*
X57032Y132361D01*
X57054Y132302D01*
X57076Y132233D01*
X57091Y132153D01*
X57094Y132066D01*
Y132062D01*
Y132051D01*
Y132033D01*
X57091Y132011D01*
X57087Y131982D01*
X57080Y131949D01*
X57072Y131913D01*
X57065Y131873D01*
X57036Y131785D01*
X57014Y131738D01*
X56992Y131694D01*
X56963Y131647D01*
X56930Y131600D01*
X56894Y131553D01*
X56850Y131509D01*
X56847Y131505D01*
X56839Y131498D01*
X56825Y131487D01*
X56807Y131472D01*
X56785Y131454D01*
X56756Y131436D01*
X56723Y131414D01*
X56683Y131396D01*
X56643Y131374D01*
X56596Y131352D01*
X56548Y131334D01*
X56494Y131316D01*
X56435Y131301D01*
X56374Y131290D01*
X56312Y131283D01*
X56243Y131280D01*
X56210D01*
X56188Y131283D01*
X56159Y131287D01*
X56126Y131290D01*
X56090Y131298D01*
X56050Y131305D01*
X55962Y131327D01*
X55871Y131363D01*
X55824Y131385D01*
X55780Y131411D01*
X55737Y131443D01*
X55693Y131476D01*
X55689Y131480D01*
X55682Y131487D01*
X55671Y131498D01*
X55660Y131512D01*
X55642Y131531D01*
X55624Y131556D01*
X55602Y131582D01*
X55580Y131614D01*
X55558Y131651D01*
X55536Y131687D01*
X55496Y131774D01*
X55463Y131876D01*
X55453Y131931D01*
X55445Y131989D01*
X55755Y132029D01*
Y132026D01*
X55758Y132018D01*
X55762Y132004D01*
X55766Y131986D01*
X55769Y131964D01*
X55777Y131938D01*
X55795Y131884D01*
X55820Y131818D01*
X55853Y131756D01*
X55889Y131698D01*
X55933Y131647D01*
X55940Y131643D01*
X55955Y131629D01*
X55984Y131611D01*
X56020Y131593D01*
X56064Y131571D01*
X56119Y131553D01*
X56181Y131538D01*
X56246Y131534D01*
X56268D01*
X56283Y131538D01*
X56323Y131542D01*
X56374Y131553D01*
X56432Y131571D01*
X56494Y131596D01*
X56555Y131633D01*
X56614Y131684D01*
X56621Y131691D01*
X56639Y131713D01*
X56661Y131745D01*
X56690Y131789D01*
X56719Y131844D01*
X56741Y131906D01*
X56759Y131978D01*
X56767Y132058D01*
Y132062D01*
Y132069D01*
Y132080D01*
X56763Y132095D01*
X56759Y132135D01*
X56748Y132182D01*
X56734Y132240D01*
X56708Y132299D01*
X56672Y132357D01*
X56625Y132412D01*
X56617Y132419D01*
X56599Y132433D01*
X56570Y132455D01*
X56530Y132481D01*
X56479Y132506D01*
X56417Y132528D01*
X56348Y132543D01*
X56272Y132550D01*
X56239D01*
X56213Y132546D01*
X56181Y132543D01*
X56144Y132535D01*
X56100Y132528D01*
X56053Y132517D01*
X56090Y132790D01*
X56108D01*
X56122Y132786D01*
X56170D01*
X56210Y132794D01*
X56257Y132801D01*
X56312Y132812D01*
X56374Y132830D01*
X56432Y132856D01*
X56494Y132888D01*
X56497D01*
X56501Y132892D01*
X56519Y132907D01*
X56545Y132932D01*
X56574Y132965D01*
X56603Y133012D01*
X56628Y133067D01*
X56647Y133129D01*
X56654Y133165D01*
Y133205D01*
Y133209D01*
Y133212D01*
Y133234D01*
X56647Y133263D01*
X56639Y133303D01*
X56625Y133347D01*
X56607Y133394D01*
X56577Y133442D01*
X56537Y133485D01*
X56534Y133489D01*
X56516Y133503D01*
X56490Y133522D01*
X56457Y133544D01*
X56414Y133562D01*
X56363Y133580D01*
X56304Y133595D01*
X56239Y133598D01*
X56210D01*
X56177Y133591D01*
X56133Y133584D01*
X56086Y133569D01*
X56039Y133551D01*
X55988Y133522D01*
X55940Y133485D01*
X55937Y133482D01*
X55922Y133464D01*
X55900Y133438D01*
X55875Y133402D01*
X55849Y133354D01*
X55824Y133296D01*
X55802Y133227D01*
X55787Y133147D01*
X55478Y133201D01*
Y133205D01*
X55482Y133216D01*
X55485Y133230D01*
X55489Y133252D01*
X55496Y133278D01*
X55507Y133307D01*
X55529Y133376D01*
X55565Y133456D01*
X55609Y133536D01*
X55664Y133613D01*
X55733Y133682D01*
X55737Y133686D01*
X55744Y133689D01*
X55755Y133696D01*
X55769Y133707D01*
X55787Y133722D01*
X55813Y133737D01*
X55839Y133751D01*
X55871Y133769D01*
X55944Y133798D01*
X56028Y133827D01*
X56126Y133846D01*
X56177Y133853D01*
X56268D01*
X56308Y133849D01*
D02*
G37*
G36*
X55012Y132386D02*
Y132382D01*
Y132368D01*
Y132350D01*
Y132324D01*
X55009Y132291D01*
Y132255D01*
X55005Y132211D01*
X55001Y132168D01*
X54990Y132069D01*
X54976Y131967D01*
X54954Y131869D01*
X54939Y131822D01*
X54925Y131778D01*
Y131774D01*
X54921Y131767D01*
X54914Y131756D01*
X54907Y131742D01*
X54885Y131702D01*
X54852Y131651D01*
X54808Y131593D01*
X54757Y131534D01*
X54692Y131472D01*
X54612Y131418D01*
X54608D01*
X54601Y131411D01*
X54590Y131407D01*
X54572Y131396D01*
X54550Y131385D01*
X54521Y131374D01*
X54492Y131363D01*
X54455Y131349D01*
X54415Y131334D01*
X54372Y131323D01*
X54324Y131312D01*
X54270Y131301D01*
X54215Y131294D01*
X54157Y131287D01*
X54026Y131280D01*
X53993D01*
X53967Y131283D01*
X53938D01*
X53902Y131287D01*
X53862Y131290D01*
X53822Y131294D01*
X53731Y131309D01*
X53633Y131330D01*
X53538Y131360D01*
X53447Y131400D01*
X53443D01*
X53436Y131407D01*
X53425Y131414D01*
X53411Y131421D01*
X53370Y131451D01*
X53323Y131491D01*
X53269Y131542D01*
X53218Y131600D01*
X53167Y131673D01*
X53127Y131753D01*
Y131756D01*
X53123Y131764D01*
X53119Y131778D01*
X53112Y131796D01*
X53105Y131818D01*
X53097Y131847D01*
X53087Y131880D01*
X53079Y131920D01*
X53072Y131964D01*
X53061Y132011D01*
X53054Y132062D01*
X53047Y132117D01*
X53039Y132179D01*
X53036Y132244D01*
X53032Y132313D01*
Y132386D01*
Y133842D01*
X53367D01*
Y132386D01*
Y132382D01*
Y132371D01*
Y132353D01*
Y132331D01*
X53370Y132306D01*
Y132273D01*
X53374Y132204D01*
X53381Y132124D01*
X53392Y132044D01*
X53407Y131967D01*
X53414Y131935D01*
X53425Y131902D01*
X53429Y131895D01*
X53436Y131876D01*
X53454Y131851D01*
X53476Y131815D01*
X53502Y131778D01*
X53538Y131738D01*
X53582Y131698D01*
X53633Y131665D01*
X53640Y131662D01*
X53658Y131651D01*
X53691Y131640D01*
X53734Y131625D01*
X53786Y131607D01*
X53851Y131596D01*
X53920Y131585D01*
X53997Y131582D01*
X54033D01*
X54055Y131585D01*
X54088D01*
X54120Y131589D01*
X54201Y131603D01*
X54288Y131622D01*
X54372Y131651D01*
X54452Y131691D01*
X54488Y131716D01*
X54521Y131745D01*
X54524Y131749D01*
X54528Y131753D01*
X54535Y131764D01*
X54546Y131778D01*
X54557Y131800D01*
X54572Y131822D01*
X54586Y131855D01*
X54601Y131887D01*
X54615Y131927D01*
X54626Y131975D01*
X54641Y132029D01*
X54652Y132088D01*
X54663Y132153D01*
X54670Y132222D01*
X54677Y132302D01*
Y132386D01*
Y133842D01*
X55012D01*
Y132386D01*
D02*
G37*
D13*
X145362Y75126D02*
Y90874D01*
Y75126D02*
X173544D01*
Y90874D01*
X145362D02*
X173544D01*
X145409Y138374D02*
X173591D01*
Y122626D02*
Y138374D01*
X145409Y122626D02*
X173591D01*
X145409D02*
Y138374D01*
X38941Y139154D02*
X67123D01*
Y123406D02*
Y139154D01*
X38941Y123406D02*
X67123D01*
X38941D02*
Y139154D01*
M02*
