G04*
G04 #@! TF.GenerationSoftware,Altium Limited,Altium Designer,22.3.1 (43)*
G04*
G04 Layer_Color=16711935*
%FSLAX25Y25*%
%MOIN*%
G70*
G04*
G04 #@! TF.SameCoordinates,2454C8F7-4EAD-40B7-BFB8-64AA641CEC59*
G04*
G04*
G04 #@! TF.FilePolarity,Positive*
G04*
G01*
G75*
%ADD56C,0.01000*%
%ADD64C,0.00394*%
%ADD65C,0.00600*%
D56*
X2Y21514D02*
Y219500D01*
X197000Y171000D02*
Y219500D01*
X2Y218500D02*
X84804D01*
X108997D02*
X197000D01*
X2D02*
X6002Y216500D01*
X2Y218500D02*
X6002Y220500D01*
X191000D02*
X197000Y218500D01*
X191000Y216500D02*
X197000Y218500D01*
X21000Y2D02*
X259000D01*
X20000Y197000D02*
X259000D01*
X258000Y2D02*
Y84804D01*
Y108997D02*
Y197000D01*
Y2D02*
X260000Y6002D01*
X256000D02*
X258000Y2D01*
X256000Y191000D02*
X258000Y197000D01*
X260000Y191000D01*
D64*
X99138Y137752D02*
X98874Y138736D01*
X98154Y139457D01*
X97169Y139720D01*
X96185Y139457D01*
X95464Y138736D01*
X95201Y137752D01*
X95464Y136768D01*
X96185Y136047D01*
X97169Y135784D01*
X98154Y136047D01*
X98874Y136768D01*
X99138Y137752D01*
X54445Y43595D02*
Y55405D01*
X47555Y43595D02*
Y55405D01*
Y43595D02*
X54445D01*
X47555Y55405D02*
X54445D01*
X93626Y121610D02*
X109374D01*
X93626Y141295D02*
X109374D01*
Y121610D02*
Y141295D01*
X93626Y121610D02*
Y141295D01*
X47095Y155744D02*
X58906D01*
X47095Y161256D02*
X58906D01*
X47095Y155744D02*
Y161256D01*
X58906Y155744D02*
Y161256D01*
D65*
X90403Y220899D02*
X86404D01*
Y217900D01*
X88404Y218900D01*
X89403D01*
X90403Y217900D01*
Y215901D01*
X89403Y214901D01*
X87404D01*
X86404Y215901D01*
X92402Y219899D02*
X93402Y220899D01*
X95401D01*
X96401Y219899D01*
Y215901D01*
X95401Y214901D01*
X93402D01*
X92402Y215901D01*
Y219899D01*
X98400Y214901D02*
Y215901D01*
X99400D01*
Y214901D01*
X98400D01*
X103399Y219899D02*
X104398Y220899D01*
X106398D01*
X107397Y219899D01*
Y215901D01*
X106398Y214901D01*
X104398D01*
X103399Y215901D01*
Y219899D01*
X255601Y90403D02*
Y86404D01*
X258600D01*
X257600Y88404D01*
Y89403D01*
X258600Y90403D01*
X260599D01*
X261599Y89403D01*
Y87404D01*
X260599Y86404D01*
X256601Y92402D02*
X255601Y93402D01*
Y95401D01*
X256601Y96401D01*
X260599D01*
X261599Y95401D01*
Y93402D01*
X260599Y92402D01*
X256601D01*
X261599Y98400D02*
X260599D01*
Y99400D01*
X261599D01*
Y98400D01*
X256601Y103399D02*
X255601Y104398D01*
Y106398D01*
X256601Y107397D01*
X260599D01*
X261599Y106398D01*
Y104398D01*
X260599Y103399D01*
X256601D01*
M02*
